<?xml version="1.0" encoding="UTF-8" standalone="no"?>
<!-- Created with Inkscape (http://www.inkscape.org/) -->

<svg
   xmlns:dc="http://purl.org/dc/elements/1.1/"
   xmlns:cc="http://creativecommons.org/ns#"
   xmlns:rdf="http://www.w3.org/1999/02/22-rdf-syntax-ns#"
   xmlns:svg="http://www.w3.org/2000/svg"
   xmlns="http://www.w3.org/2000/svg"
   xmlns:sodipodi="http://sodipodi.sourceforge.net/DTD/sodipodi-0.dtd"
   xmlns:inkscape="http://www.inkscape.org/namespaces/inkscape"
   width="300mm"
   height="300mm"
   viewBox="0 0 1062.9921 1062.9921"
   id="svg2"
   version="1.1"
   inkscape:version="0.91 r13725"
   sodipodi:docname="aim.svg"
   inkscape:export-filename="/home/blue/Pictures/aim.png"
   inkscape:export-xdpi="8.4666672"
   inkscape:export-ydpi="8.4666672">
  <defs
     id="defs4" />
  <sodipodi:namedview
     id="base"
     pagecolor="#ffffff"
     bordercolor="#666666"
     borderopacity="1.0"
     inkscape:pageopacity="0.0"
     inkscape:pageshadow="2"
     inkscape:zoom="0.175"
     inkscape:cx="-404.42083"
     inkscape:cy="-196.01145"
     inkscape:document-units="px"
     inkscape:current-layer="layer1"
     showgrid="false"
     inkscape:window-width="1280"
     inkscape:window-height="1000"
     inkscape:window-x="0"
     inkscape:window-y="24"
     inkscape:window-maximized="1" />
  <metadata
     id="metadata7">
    <rdf:RDF>
      <cc:Work
         rdf:about="">
        <dc:format>image/svg+xml</dc:format>
        <dc:type
           rdf:resource="http://purl.org/dc/dcmitype/StillImage" />
        <dc:title></dc:title>
      </cc:Work>
    </rdf:RDF>
  </metadata>
  <g
     inkscape:label="Layer 1"
     inkscape:groupmode="layer"
     id="layer1"
     transform="translate(0,10.629921)">
    <circle
       style="fill:#1a1a1a;fill-opacity:1;stroke:none;stroke-opacity:1"
       id="path4136"
       cx="531.42859"
       cy="520.93359"
       r="449.63596" />
    <circle
       r="429.65213"
       cy="520.93359"
       cx="531.42859"
       id="circle4138"
       style="fill:#cccccc;fill-opacity:1;stroke:none;stroke-opacity:1" />
    <path
       style="fill:#000000;fill-opacity:1;stroke:none;stroke-opacity:1"
       d="M 531.50391 49.005859 C 531.21472 49.005859 530.98242 49.238161 530.98242 49.527344 L 530.98242 463.4668 L 540.54102 463.4668 L 540.54102 462.45898 C 540.54102 462.3364 540.63914 462.23828 540.76172 462.23828 L 544.1875 462.23828 L 544.1875 49.527344 C 544.1875 49.238161 543.95325 49.005859 543.66406 49.005859 L 531.50391 49.005859 z M 530.98242 604.38281 L 530.98242 1030.1016 C 530.98242 1030.3907 531.21472 1030.625 531.50391 1030.625 L 543.66406 1030.625 C 543.95325 1030.625 544.1875 1030.3907 544.1875 1030.1016 L 544.1875 605.17383 L 540.76172 605.17383 C 540.63914 605.17383 540.54102 605.07571 540.54102 604.95312 L 540.54102 604.38281 L 530.98242 604.38281 z "
       transform="translate(0,-10.629921)"
       id="rect4140" />
    <rect
       style="fill:#000000;fill-opacity:1;stroke:none;stroke-opacity:1"
       id="rect4146-0"
       width="77.14286"
       height="17.142857"
       x="500.00003"
       y="98.07653"
       ry="1.039736" />
    <rect
       style="fill:#000000;fill-opacity:1;stroke:none;stroke-opacity:1"
       id="rect4146-0-6"
       width="77.14286"
       height="17.142857"
       x="499.28574"
       y="186.64793"
       ry="1.039736" />
    <rect
       style="fill:#000000;fill-opacity:1;stroke:none;stroke-opacity:1"
       id="rect4146-0-2"
       width="77.14286"
       height="17.142857"
       x="499.28574"
       y="270.21936"
       ry="1.039736" />
    <rect
       style="fill:#000000;fill-opacity:1;stroke:none;stroke-opacity:1"
       id="rect4146-0-61"
       width="77.14286"
       height="17.142857"
       x="498.57144"
       y="343.79077"
       ry="1.039736" />
    <rect
       style="fill:#000000;fill-opacity:1;stroke:none;stroke-opacity:1"
       id="rect4146-0-20"
       width="77.14286"
       height="17.142857"
       x="495.71432"
       y="682.36218"
       ry="1.039736" />
    <rect
       style="fill:#000000;fill-opacity:1;stroke:none;stroke-opacity:1"
       id="rect4146-0-23"
       width="77.14286"
       height="17.142857"
       x="497.14285"
       y="769.50507"
       ry="1.039736" />
    <rect
       style="fill:#000000;fill-opacity:1;stroke:none;stroke-opacity:1"
       id="rect4146-0-75"
       width="77.14286"
       height="17.142857"
       x="498.57144"
       y="848.07648"
       ry="1.039736" />
    <rect
       style="fill:#000000;fill-opacity:1;stroke:none;stroke-opacity:1"
       id="rect4146-0-28"
       width="77.14286"
       height="17.142857"
       x="498.57144"
       y="926.64789"
       ry="1.039736" />
    <path
       style="fill:#000000;fill-opacity:1;stroke:none;stroke-opacity:1"
       d="M 46.503906 520.32227 C 46.217886 520.32227 45.986328 520.55187 45.986328 520.83789 L 45.986328 533.17188 C 45.986328 533.4579 46.217886 533.6875 46.503906 533.6875 L 1016.3535 533.6875 C 1016.6395 533.6875 1016.8691 533.4579 1016.8691 533.17188 L 1016.8691 520.83789 C 1016.8691 520.55187 1016.6395 520.32227 1016.3535 520.32227 L 607.60742 520.32227 L 607.60742 533.15625 C 607.60742 533.44227 607.37586 533.67188 607.08984 533.67188 L 462.66016 533.67188 C 462.37414 533.67188 462.14453 533.44227 462.14453 533.15625 L 462.14453 520.32227 L 46.503906 520.32227 z "
       transform="translate(0,-10.629921)"
       id="rect4140-9" />
    <rect
       style="fill:#000000;fill-opacity:1;stroke:none;stroke-opacity:1"
       id="rect4146-0-73"
       width="77.14286"
       height="17.142857"
       x="478.79074"
       y="-956.82306"
       ry="1.039736"
       transform="matrix(0,1,-1,0,0,0)" />
    <rect
       style="fill:#000000;fill-opacity:1;stroke:none;stroke-opacity:1"
       id="rect4146-0-6-6"
       width="77.14286"
       height="17.142857"
       x="478.07645"
       y="-868.25165"
       ry="1.039736"
       transform="matrix(0,1,-1,0,0,0)" />
    <rect
       style="fill:#000000;fill-opacity:1;stroke:none;stroke-opacity:1"
       id="rect4146-0-2-1"
       width="77.14286"
       height="17.142857"
       x="478.07645"
       y="-784.68024"
       ry="1.039736"
       transform="matrix(0,1,-1,0,0,0)" />
    <rect
       style="fill:#000000;fill-opacity:1;stroke:none;stroke-opacity:1"
       id="rect4146-0-61-2"
       width="77.14286"
       height="17.142857"
       x="477.36215"
       y="-711.10883"
       ry="1.039736"
       transform="matrix(0,1,-1,0,0,0)" />
    <rect
       style="fill:#000000;fill-opacity:1;stroke:none;stroke-opacity:1"
       id="rect4146-0-20-9"
       width="77.14286"
       height="17.142857"
       x="474.50504"
       y="-372.53738"
       ry="1.039736"
       transform="matrix(0,1,-1,0,0,0)" />
    <rect
       style="fill:#000000;fill-opacity:1;stroke:none;stroke-opacity:1"
       id="rect4146-0-23-4"
       width="77.14286"
       height="17.142857"
       x="475.93356"
       y="-285.3945"
       ry="1.039736"
       transform="matrix(0,1,-1,0,0,0)" />
    <rect
       style="fill:#000000;fill-opacity:1;stroke:none;stroke-opacity:1"
       id="rect4146-0-75-7"
       width="77.14286"
       height="17.142857"
       x="477.36215"
       y="-206.82312"
       ry="1.039736"
       transform="matrix(0,1,-1,0,0,0)" />
    <rect
       style="fill:#000000;fill-opacity:1;stroke:none;stroke-opacity:1"
       id="rect4146-0-28-8"
       width="77.14286"
       height="17.142857"
       x="477.36215"
       y="-128.25163"
       ry="1.039736"
       transform="matrix(0,1,-1,0,0,0)" />
    <circle
       style="fill:#ff0000;fill-opacity:1;stroke:none;stroke-opacity:1"
       id="circle4144"
       cx="535.9743"
       cy="516.89294"
       r="19.861975" />
    <rect
       ry="0.22126414"
       y="-539.42145"
       x="451.57401"
       height="6.0609155"
       width="142.93658"
       id="rect4400"
       style="fill:#ff0000;fill-opacity:1;stroke:none;stroke-opacity:1"
       transform="matrix(0,1,-1,0,0,0)" />
    <rect
       transform="scale(-1,-1)"
       style="fill:#ff0000;fill-opacity:1;stroke:none;stroke-opacity:1"
       id="rect4429"
       width="142.93658"
       height="6.0609155"
       x="-606.84912"
       y="-519.50677"
       ry="0.22126414" />
  </g>
</svg>
