<?xml version="1.0" encoding="UTF-8" standalone="no"?>
<!-- Created with Inkscape (http://www.inkscape.org/) -->

<svg
   xmlns:dc="http://purl.org/dc/elements/1.1/"
   xmlns:cc="http://creativecommons.org/ns#"
   xmlns:rdf="http://www.w3.org/1999/02/22-rdf-syntax-ns#"
   xmlns:svg="http://www.w3.org/2000/svg"
   xmlns="http://www.w3.org/2000/svg"
   xmlns:sodipodi="http://sodipodi.sourceforge.net/DTD/sodipodi-0.dtd"
   xmlns:inkscape="http://www.inkscape.org/namespaces/inkscape"
   width="52mm"
   height="52mm"
   viewBox="0 0 184.25197 184.25197"
   id="svg4228"
   version="1.1"
   inkscape:version="0.91 r13725"
   sodipodi:docname="arms_training.svg">
  <defs
     id="defs4230" />
  <sodipodi:namedview
     id="base"
     pagecolor="#ffffff"
     bordercolor="#666666"
     borderopacity="1.0"
     inkscape:pageopacity="0.0"
     inkscape:pageshadow="2"
     inkscape:zoom="0.98994949"
     inkscape:cx="-141.34223"
     inkscape:cy="285.40817"
     inkscape:document-units="px"
     inkscape:current-layer="layer1"
     showgrid="false"
     inkscape:window-width="1280"
     inkscape:window-height="1000"
     inkscape:window-x="0"
     inkscape:window-y="24"
     inkscape:window-maximized="1" />
  <metadata
     id="metadata4233">
    <rdf:RDF>
      <cc:Work
         rdf:about="">
        <dc:format>image/svg+xml</dc:format>
        <dc:type
           rdf:resource="http://purl.org/dc/dcmitype/StillImage" />
        <dc:title></dc:title>
      </cc:Work>
    </rdf:RDF>
  </metadata>
  <g
     inkscape:label="Layer 1"
     inkscape:groupmode="layer"
     id="layer1"
     transform="translate(0,-868.11024)">
    <path
       style="fill:#000000;fill-opacity:1;stroke:none;stroke-opacity:1"
       id="path4918"
       d="m 59.786066,965.04853 c 0.802783,-4.20386 2.050704,-8.31013 3.641678,-12.32249 1.516883,-3.43464 3.117216,-6.83754 4.656366,-10.26518 1.534031,-3.35754 3.619543,-6.482 5.552603,-9.6604 1.938132,-2.99696 3.500168,-6.15073 4.988512,-9.34318 1.661796,-3.21716 3.490257,-6.31392 4.852402,-9.65131 0.895939,-2.44468 0.43483,-1.2083 1.384487,-3.70882 0,0 23.294066,-9.80652 23.294066,-9.80652 l 0,0 c -1.0197,2.40923 -0.56232,1.18298 -1.36936,3.67963 -1.26163,3.39673 -2.68905,6.64982 -4.75478,9.72508 -1.41221,3.30261 -2.981886,6.53232 -4.879552,9.63301 -1.978872,3.07401 -3.853123,6.2107 -5.677578,9.35821 -1.47842,3.47689 -3.1401,6.87676 -4.762668,10.29773 -1.75431,3.75028 -3.164018,7.71152 -3.604947,11.77592 0,0 -23.321229,10.28832 -23.321229,10.28832 z"
       inkscape:connector-curvature="0" />
    <path
       style="fill:#1a1a1a;fill-opacity:1;stroke:none;stroke-opacity:1"
       id="path4834"
       d="m 114.5903,905.11889 c 2.41313,-0.46041 4.84891,-0.63812 7.28671,-0.73867 3.49944,0.12011 6.96438,-0.30552 10.44449,-0.67326 2.96053,-0.64031 5.90803,-1.34332 8.90188,-1.70133 2.06861,-0.21029 4.14568,-0.21368 6.2198,-0.21859 1.96405,7.7e-4 3.92806,0.01 5.89209,0.0133 2.11367,-0.004 4.22722,0.0199 6.34088,0.021 2.38115,0.01 4.76225,0.009 7.14343,-7.6e-4 2.34725,0.0193 4.69458,0.001 7.04186,-0.006 1.03992,-10e-4 2.07985,-0.006 3.11977,-0.007 0,0 -11.74057,10.49614 -11.74057,10.49614 l 0,0 c -1.03439,-7.8e-4 -2.06874,-10e-4 -3.10313,-0.007 -2.3436,-0.009 -4.68723,-0.0242 -7.03082,-0.006 -2.38015,-0.009 -4.76027,-0.0112 -7.14042,-7.7e-4 -2.1269,2e-5 -4.25371,0.0247 -6.38066,0.0112 -1.96201,-10e-4 -3.9241,-0.0133 -5.88613,-10e-4 -2.03226,0.0215 -4.06749,0.0596 -6.09056,0.32223 -2.92845,0.40963 -5.82106,1.10626 -8.74851,1.52411 -3.52597,0.39209 -7.04828,0.64995 -10.58906,0.71554 -2.46381,0.18567 -4.93563,0.42245 -7.34433,1.12572 0,0 11.66328,-10.86627 11.66328,-10.86627 z"
       inkscape:connector-curvature="0" />
    <path
       style="fill:#000000;fill-opacity:1;stroke:none;stroke-opacity:1"
       id="path4859"
       d="m 82.476953,955.7341 c 3.606343,3.81215 7.413285,7.45382 11.233233,11.07197 4.374269,4.34536 9.557754,7.85052 14.613374,11.43018 4.23783,2.87631 8.32337,5.93944 12.21666,9.22611 2.6586,2.35458 5.64779,4.4568 6.8004,7.84077 0.24954,3.7545 -2.80802,6.91037 -4.69308,10.02787 -2.16677,3.8708 -4.11282,7.8548 -6.09277,11.8158 -1.61352,3.0382 -2.08732,6.4083 -2.83134,9.6932 -0.37993,1.7875 -0.20575,0.9032 -0.52459,2.6524 0,0 -16.829972,7.8331 -16.829972,7.8331 l 0,0 c 0.304471,-1.8263 0.132441,-0.9066 0.518399,-2.7583 0.823318,-3.4013 1.292569,-6.9175 2.817509,-10.1212 1.971544,-3.9981 4.048454,-7.9507 6.061724,-11.9288 0.52476,-0.9334 1.53156,-2.7663 2.13536,-3.6798 0.87117,-1.3179 2.08599,-2.6096 2.72485,-4.0615 0.13332,-0.3029 0.14704,-0.6417 0.22055,-0.9625 -0.55928,-3.1154 -3.9584,-4.86837 -6.06278,-7.0515 -3.77663,-3.27971 -7.708661,-6.39103 -11.853669,-9.24368 -5.15505,-3.59768 -10.325493,-7.24933 -14.779107,-11.63722 -3.833186,-3.66645 -7.692848,-7.31828 -11.728201,-10.78327 0,0 16.05345,-9.36363 16.05345,-9.36363 z"
       inkscape:connector-curvature="0" />
    <path
       style="fill:#333333;fill-opacity:1;stroke:none;stroke-opacity:1"
       id="path4861"
       d="m 79.672343,955.40267 c -1.185879,4.00275 -2.567696,7.96138 -4.230217,11.81499 -2.429845,4.79208 -4.501141,9.7192 -6.615762,14.63532 -1.870704,4.10695 -3.63885,8.24303 -6.05634,12.10179 -2.224555,3.13486 -4.767057,6.07033 -7.340004,8.96083 -3.541713,3.8435 -7.418,7.3893 -11.416308,10.8133 -5.654892,4.7264 -11.856941,8.8305 -17.926946,13.0701 -3.488646,2.4948 -1.766654,1.2735 -5.164988,3.6646 0,0 -17.3053143,6.4148 -17.3053143,6.4148 l 0,0 c 3.5020562,-2.3976 1.7302037,-1.1603 5.3126286,-3.7156 6.0302257,-4.1942 12.1981747,-8.2427 17.8702867,-12.8606 3.897846,-3.3362 7.71446,-6.7477 11.18152,-10.4838 2.61228,-2.8208 5.06121,-5.7657 7.477983,-8.7323 2.63476,-3.73647 4.461949,-7.82036 6.356949,-11.91651 2.229736,-4.84955 4.080004,-9.84704 6.551649,-14.60272 1.656092,-3.66262 2.985133,-7.41665 4.013796,-11.27532 0,0 17.291067,-7.88888 17.291067,-7.88888 z"
       inkscape:connector-curvature="0" />
    <path
       style="fill:#4d4d4d;fill-opacity:1;stroke:none;stroke-opacity:1"
       id="path4869"
       d="m 78.07227,903.53438 c -0.816167,3.49381 -0.966535,7.10389 -1.130928,10.67536 -0.05085,4.23752 -0.193949,8.45697 -0.596319,12.67611 -0.293312,2.69697 -0.46291,5.40341 -0.545689,8.11424 0.22751,0.65069 -0.522532,2.43773 0.140536,2.94887 0.02936,0.0228 1.264379,-1.11535 2.090789,-1.69782 -23.38105,14.13039 -13.282748,8.0941 -8.699726,3.69886 2.404791,-2.30626 4.656882,-4.76476 6.901527,-7.22368 4.619167,-5.14724 9.172989,-10.35013 13.714355,-15.56546 3.338604,-4.07978 6.988534,-7.92734 10.063655,-12.21496 1.53303,-2.25814 2.47078,-4.80024 3.39863,-7.34207 0.15332,-0.39891 0.30665,-0.79781 0.45998,-1.19674 0,0 15.48885,-7.13022 15.48885,-7.13022 l 0,0 c -0.16481,0.37089 -0.32965,0.7418 -0.49448,1.11269 -0.91841,2.70332 -1.89724,5.38209 -3.38542,7.83742 -3.04527,4.48855 -6.99731,8.26897 -10.33799,12.53389 -4.59247,5.199 -9.142763,10.43345 -13.765611,15.60576 -2.17935,2.4794 -4.410994,4.89496 -6.703368,7.27103 -0.56511,0.58573 -2.990268,3.13708 -3.820168,3.65476 -5.297515,3.30442 -10.735952,6.37823 -16.103927,9.56736 -0.476206,0.16384 -0.926857,0.44745 -1.428615,0.4915 -2.837427,0.24915 -2.908429,-2.68708 -2.751771,-4.66048 0.08043,-2.77953 0.255787,-5.55534 0.637343,-8.3119 0.525778,-4.19429 0.826711,-8.37481 0.731446,-12.60768 0.104748,-3.58757 0.294389,-7.16907 0.651524,-10.74149 0,0 15.485373,-7.49535 15.485373,-7.49535 z"
       inkscape:connector-curvature="0" />
    <path
       style="fill:#000000;fill-opacity:1;stroke:none;stroke-opacity:1"
       id="path4887"
       d="m 87.191853,900.66522 c -1.962968,-2.00971 -3.196122,-4.49603 -4.294591,-7.10211 -1.000396,-2.28626 -1.425178,-4.74378 -1.651437,-7.23333 0.04572,-8.63572 9.842268,-10.29213 15.979428,-14.04654 2.444705,-0.73362 4.621277,-0.28345 6.900517,0.77001 2.39495,1.31623 3.54127,3.55556 4.15917,6.23541 0.45088,2.43773 0.39555,4.89226 0.0836,7.33904 -0.45626,2.85391 -1.43512,5.52143 -2.95154,7.91746 -6.967094,8.16207 -12.753938,12.5564 -20.179589,7.67288 -1.442778,-1.26749 -0.778875,-0.58589 -1.998189,-2.03764 0,0 13.194083,-8.51677 13.194083,-8.51677 l 0,0 c 1.023347,1.16663 0.457343,0.62465 1.70865,1.61328 1.049478,0.56162 2.083145,1.1517 3.309015,0.99492 0.348,-0.0446 1.30777,-0.50725 1.01045,-0.30967 -17.469809,11.60971 -15.639791,10.29106 -11.22822,7.03029 1.794885,-1.98902 2.67571,-4.47094 3.291114,-7.12177 0.32793,-2.25906 0.472942,-4.50614 0.122891,-6.78163 -0.405842,-2.21456 -1.225371,-3.97577 -3.301569,-4.87932 -2.119033,-0.69826 -4.221283,-0.73604 -6.242709,0.36652 4.133968,-2.5848 8.279933,-5.14799 12.401901,-7.7544 0.266312,-0.1684 -0.573133,0.25913 -0.832759,0.43896 -1.141531,0.7907 -1.612128,2.07011 -1.696229,3.46897 0.151286,2.3215 0.449276,4.62892 1.356523,6.77329 1.023362,2.44839 2.061465,4.83418 4.140937,6.49933 0,0 -13.281467,8.66282 -13.281467,8.66282 z"
       inkscape:connector-curvature="0" />
  </g>
</svg>
