<?xml version="1.0" encoding="UTF-8" standalone="no"?>
<!-- Created with Inkscape (http://www.inkscape.org/) -->

<svg
   xmlns:dc="http://purl.org/dc/elements/1.1/"
   xmlns:cc="http://creativecommons.org/ns#"
   xmlns:rdf="http://www.w3.org/1999/02/22-rdf-syntax-ns#"
   xmlns:svg="http://www.w3.org/2000/svg"
   xmlns="http://www.w3.org/2000/svg"
   xmlns:sodipodi="http://sodipodi.sourceforge.net/DTD/sodipodi-0.dtd"
   xmlns:inkscape="http://www.inkscape.org/namespaces/inkscape"
   width="300mm"
   height="300mm"
   viewBox="0 0 1062.9921 1062.9921"
   id="svg2"
   version="1.1"
   inkscape:version="0.91 r13725"
   sodipodi:docname="book_pictogram_1.svg"
   inkscape:export-filename="/home/blue/Pictures/book_pictogram_1.png"
   inkscape:export-xdpi="8.4666672"
   inkscape:export-ydpi="8.4666672">
  <defs
     id="defs4" />
  <sodipodi:namedview
     id="base"
     pagecolor="#ffffff"
     bordercolor="#666666"
     borderopacity="1.0"
     inkscape:pageopacity="0.0"
     inkscape:pageshadow="2"
     inkscape:zoom="0.20567555"
     inkscape:cx="-285.54257"
     inkscape:cy="-137.39786"
     inkscape:document-units="px"
     inkscape:current-layer="layer1"
     showgrid="false"
     inkscape:window-width="1280"
     inkscape:window-height="1000"
     inkscape:window-x="0"
     inkscape:window-y="24"
     inkscape:window-maximized="1" />
  <metadata
     id="metadata7">
    <rdf:RDF>
      <cc:Work
         rdf:about="">
        <dc:format>image/svg+xml</dc:format>
        <dc:type
           rdf:resource="http://purl.org/dc/dcmitype/StillImage" />
        <dc:title />
      </cc:Work>
    </rdf:RDF>
  </metadata>
  <g
     inkscape:label="Layer 1"
     inkscape:groupmode="layer"
     id="layer1"
     transform="translate(0,10.629921)">
    <path
       style="fill:#000000;fill-opacity:1;stroke:none;stroke-opacity:1"
       id="path4609"
       d="m 126.74571,323.91231 c 4.92962,-1.51208 9.62194,-3.73383 14.10302,-6.27591 12.26097,-6.98998 -12.72838,7.39676 -19.1665,10.96382 -1.09554,0.60699 2.07959,-1.39648 3.11024,-2.1081 3.25416,-2.24689 6.44083,-4.57676 9.71562,-6.79455 15.33242,-9.26855 30.59109,-19.19817 47.55257,-25.24074 10.30269,-2.81489 20.83559,-4.69748 31.43365,-5.95467 15.05698,-1.40098 30.20011,-1.3454 45.30752,-1.43681 16.59789,-0.0259 33.19564,-0.089 49.79356,-0.0853 18.0664,-0.42482 36.09733,1.16372 53.9462,3.84999 16.95679,2.18956 33.42733,6.74328 49.49767,12.4531 14.16881,5.49481 28.18155,11.36073 42.12676,17.3953 11.30233,4.75494 22.47932,9.78379 33.1131,15.90321 8.24003,4.73706 15.82964,10.33158 22.71859,16.85975 4.79041,5.42907 8.43172,11.73127 11.68945,18.16371 0.48859,1.17173 3.59608,9.1172 4.96443,8.71582 0.36851,-0.1081 0.44644,-0.625 0.66967,-0.9375 -58.24229,31.57034 -28.7533,17.45113 -22.51549,11.6837 3.73811,-3.45622 7.01814,-7.59618 10.34758,-11.43349 6.56037,-7.86785 13.48309,-15.4196 20.52454,-22.8562 7.82263,-8.01893 17.15173,-14.37242 26.46288,-20.51916 19.90822,-13.60108 38.53781,-23.37026 60.80756,-30.76431 15.21183,-5.0549 31.13647,-7.18373 46.87497,-9.8813 17.33334,-2.81544 34.70981,-5.22905 52.22035,-6.57807 26.21193,-1.42653 52.48177,-1.36877 78.72499,-1.44282 27.75834,-0.033 55.5163,-0.0526 83.27358,-0.31207 15.88345,-0.13401 31.73675,-1.03624 47.47248,1.48561 11.08394,1.98553 21.4639,6.35908 31.72507,10.82735 9.66819,4.29541 19.3734,8.49059 28.71914,13.46009 4.12962,2.50123 8.41309,4.7135 12.47069,7.33013 0,0 -24.76226,15.89693 -24.76226,15.89693 l 0,0 c -3.92864,-2.57089 -8.036,-4.8489 -12.01633,-7.34054 -9.16895,-5.01436 -18.70827,-9.2475 -28.27094,-13.44933 -10.10201,-4.28204 -20.40124,-8.33436 -31.24978,-10.27074 -15.24602,-2.21334 -30.60768,-1.90995 -45.98499,-2.03287 -27.50212,-0.30449 -55.00607,-0.38074 -82.50962,-0.22264 -26.57711,0.2195 -53.19165,0.33049 -79.7025,2.43019 -17.55313,1.70003 -35.00966,4.17629 -52.41499,7.01107 -15.78231,2.71352 -31.70638,5.13311 -46.8806,10.44938 -6.58327,2.31472 -13.08434,4.68597 -19.3935,7.6898 -1.99264,0.94871 -7.78547,4.14855 -5.90824,2.98808 4.36697,-2.69958 29.75876,-17.47555 13.37324,-7.64069 -9.22414,5.96022 -18.41529,12.19572 -26.39439,19.77678 -7.02892,7.33414 -13.99191,14.74225 -20.41221,22.62291 -2.55272,3.09888 -5.21725,6.08286 -7.82242,9.13632 -0.65489,0.76758 -1.3117,1.53375 -1.95073,2.31458 -0.54691,0.66827 -0.86518,1.58961 -1.60667,2.0322 -8.97586,5.35764 -18.25883,10.18315 -27.38825,15.27473 -0.61174,-0.29156 -1.28408,-0.48037 -1.83522,-0.87467 -3.04483,-2.17831 -3.69268,-6.87991 -5.26941,-9.99417 -2.90854,-6.21192 -6.1795,-12.36962 -10.84433,-17.45772 -6.63658,-6.4083 -14.08151,-11.75115 -22.00569,-16.47705 -10.49975,-5.97105 -21.4664,-11.03338 -32.49862,-15.9378 -13.86464,-6.09338 -27.8604,-11.86424 -42.02258,-17.23546 -15.7706,-5.68294 -31.94288,-10.18444 -48.60064,-12.39603 -17.95832,-2.50075 -36.05501,-3.6469 -54.19234,-3.18528 -16.54199,-0.0282 -33.08459,-0.1588 -49.62625,-0.002 -15.23196,0.17833 -30.50936,0.32558 -45.65552,2.11981 -10.5982,1.52195 -21.21436,3.38724 -31.3996,6.76566 -3.98611,1.59211 -7.86094,3.31282 -11.70146,5.23251 -1.18911,0.59438 -4.69045,2.50076 -3.54923,1.81893 5.87253,-3.5086 31.3332,-18.29495 17.73366,-10.32908 -4.35557,2.75565 -8.29995,6.24577 -12.70515,8.89087 -9.32721,5.60052 -18.75702,11.02847 -28.15524,16.509 -0.95356,0.55606 -1.93281,1.06683 -2.89922,1.60025 -4.76658,2.4196 -9.68808,4.45183 -14.69492,6.32124 0,0 23.53305,-18.50548 23.53305,-18.50548 z"
       inkscape:connector-curvature="0" />
    <path
       style="fill:#000000;fill-opacity:1;stroke:none;stroke-opacity:1"
       id="path4609-0"
       d="m 110.95951,975.12385 c 4.92962,-1.51208 9.62194,-3.73383 14.10302,-6.27591 12.26097,-6.98998 -12.72838,7.39676 -19.1665,10.96382 -1.09553,0.60699 2.07959,-1.39648 3.11024,-2.1081 3.25416,-2.24689 6.44083,-4.57676 9.71562,-6.79455 15.33242,-9.26855 30.59109,-19.19817 47.55257,-25.24074 10.30269,-2.81489 20.83559,-4.69748 31.43365,-5.95467 15.05698,-1.40098 30.20011,-1.3454 45.30752,-1.43681 16.59789,-0.0259 33.19564,-0.089 49.79356,-0.0853 18.0664,-0.42482 36.09733,1.16372 53.9462,3.84999 16.95679,2.18956 33.42733,6.74328 49.49767,12.4531 14.16881,5.49481 28.18155,11.36073 42.12676,17.3953 11.30233,4.75494 22.47932,9.78379 33.1131,15.90321 8.24003,4.73706 15.82964,10.33158 22.71859,16.85971 4.79041,5.4291 8.43172,11.7313 11.68945,18.1638 0.48859,1.1717 3.59608,9.1172 4.96443,8.7158 0.36851,-0.1081 0.44644,-0.625 0.66967,-0.9375 -58.24229,31.5703 -28.7533,17.4511 -22.51549,11.6837 3.73811,-3.4562 7.01814,-7.5962 10.34758,-11.4335 6.56037,-7.8679 13.48309,-15.4196 20.52454,-22.8562 7.82263,-8.01895 17.15173,-14.37244 26.46288,-20.51918 19.90822,-13.60108 38.53781,-23.37026 60.80756,-30.76431 15.21183,-5.0549 31.13647,-7.18373 46.87497,-9.8813 17.33334,-2.81544 34.70981,-5.22905 52.22035,-6.57807 26.21193,-1.42653 52.48177,-1.36877 78.72499,-1.44282 27.75834,-0.033 55.5163,-0.0526 83.27358,-0.31207 15.88345,-0.13401 31.73675,-1.03624 47.47248,1.48561 11.08394,1.98553 21.4639,6.35908 31.72507,10.82735 9.66819,4.29541 19.3734,8.49059 28.71914,13.46009 4.12962,2.50123 8.41312,4.7135 12.4707,7.33013 0,0 -24.76227,15.89693 -24.76227,15.89693 l 0,0 c -3.92864,-2.57089 -8.036,-4.8489 -12.01633,-7.34054 -9.16895,-5.01436 -18.70827,-9.2475 -28.27094,-13.44933 -10.10201,-4.28204 -20.40124,-8.33436 -31.24978,-10.27074 -15.24602,-2.21334 -30.60768,-1.90995 -45.98499,-2.03287 -27.50212,-0.30449 -55.00607,-0.38074 -82.50962,-0.22264 -26.57711,0.2195 -53.19165,0.33049 -79.7025,2.43019 -17.55313,1.70003 -35.00966,4.17629 -52.41499,7.01107 -15.78231,2.71352 -31.70638,5.13311 -46.8806,10.44938 -6.58327,2.31472 -13.08434,4.68597 -19.3935,7.6898 -1.99264,0.94871 -7.78547,4.14855 -5.90824,2.98808 4.36697,-2.69958 29.75876,-17.47555 13.37324,-7.64069 -9.22414,5.96022 -18.41529,12.19572 -26.39439,19.77678 -7.02892,7.33415 -13.99191,14.74225 -20.41221,22.62295 -2.55272,3.0988 -5.21725,6.0828 -7.82242,9.1363 -0.65489,0.7676 -1.3117,1.5337 -1.95073,2.3146 -0.54691,0.6682 -0.86518,1.5896 -1.60667,2.0322 -8.97586,5.3576 -18.25883,10.1831 -27.38825,15.2747 -0.61174,-0.2916 -1.28408,-0.4804 -1.83522,-0.8747 -3.04483,-2.1783 -3.69268,-6.8799 -5.26941,-9.9941 -2.90854,-6.212 -6.1795,-12.3697 -10.84433,-17.4578 -6.63658,-6.4083 -14.08151,-11.7511 -22.00569,-16.477 -10.49975,-5.97107 -21.4664,-11.0334 -32.49862,-15.93782 -13.86464,-6.09338 -27.8604,-11.86424 -42.02258,-17.23546 -15.7706,-5.68294 -31.94288,-10.18444 -48.60064,-12.39603 -17.95832,-2.50075 -36.05501,-3.6469 -54.19234,-3.18528 -16.54199,-0.0282 -33.08459,-0.1588 -49.62625,-0.002 -15.23196,0.17833 -30.50936,0.32558 -45.65552,2.11981 -10.5982,1.52195 -21.21436,3.38724 -31.3996,6.76566 -3.98611,1.59211 -7.86094,3.31282 -11.70146,5.23251 -1.18911,0.59438 -4.69045,2.50076 -3.54923,1.81893 5.87253,-3.5086 31.3332,-18.29495 17.73366,-10.32908 -4.35557,2.75565 -8.29995,6.24577 -12.70515,8.89087 -9.32721,5.60052 -18.75702,11.02847 -28.15524,16.509 -0.95356,0.55606 -1.93281,1.06683 -2.89922,1.60025 -4.766577,2.4196 -9.688078,4.45183 -14.694914,6.32124 0,0 23.533044,-18.50548 23.533044,-18.50548 z"
       inkscape:connector-curvature="0"
       inkscape:transform-center-x="26.263966"
       inkscape:transform-center-y="4.0406706" />
    <path
       style="fill:#000000;fill-opacity:1;stroke:none;stroke-opacity:1"
       id="path4626"
       d="m 122.91319,330.45229 c -3.27286,7.09416 -5.40459,14.68063 -7.58263,22.16872 -3.4031,10.80818 -5.59205,21.91489 -7.61061,33.04482 -1.82091,10.33892 -3.10125,20.7596 -4.52889,31.15658 -1.57439,10.49149 -2.02955,21.094 -3.07625,31.64096 -0.778983,8.42437 -2.211982,16.75896 -2.954187,25.18813 -0.2546,8.75905 -0.931482,17.41619 -2.205628,26.08479 -1.614858,10.09538 -2.154656,20.30853 -2.447539,30.51379 -0.239262,9.35662 -0.160152,18.716 -0.190405,28.07435 -0.0035,9.89972 -0.0557,19.79923 -0.03345,29.69899 -0.0077,10.27035 0.01736,20.54058 -0.01892,30.81091 -0.114269,11.8103 -0.10073,23.62042 -0.07811,35.43102 -0.118869,11.23892 0.961803,22.44183 1.499709,33.65964 0.234068,10.8766 1.707712,21.65911 2.841795,32.46245 1.605884,11.5125 2.731559,23.06284 3.297187,34.67087 0.460678,10.30808 1.246698,20.61308 2.231258,30.88526 1.01186,9.01577 2.71075,17.92209 3.63774,26.9509 0.76515,7.11149 0.86633,14.2638 0.9724,21.40744 0.0503,5.99648 0.0422,11.99297 0.0744,17.9895 0.0629,4.86479 0.0145,9.72944 0.0234,14.59433 0.0432,4.59032 0.015,9.18028 0.001,13.77051 -0.0278,5.97017 -0.11821,11.94017 -0.10895,17.91049 -0.007,6.59573 0.007,13.19144 -0.003,19.78718 -0.0478,6.40123 0.0439,12.80237 0.0381,19.20349 0.007,5.11527 0.10799,10.23009 0.0696,15.34531 -0.009,4.62943 0.0212,9.25883 0.0368,13.88823 0.0989,4.05391 -0.17001,8.12255 0.17541,12.16551 0.27404,2.68696 1.17958,5.23511 2.16947,7.72716 0,0 -25.908417,14.49908 -25.908417,14.49908 l 0,0 c -1.142841,-2.70328 -2.187353,-5.49105 -2.588465,-8.41489 -0.614468,-4.13279 -0.21152,-8.32615 -0.307913,-12.49486 0.01555,-4.6419 0.04542,-9.28379 0.03679,-13.92573 -0.03884,-5.13885 0.06301,-10.27735 0.06963,-15.41626 -0.0057,-6.41408 0.08589,-12.82817 0.03813,-19.24235 -0.0099,-6.5946 0.004,-13.18918 -0.0034,-19.78377 0.0091,-5.93325 -0.08107,-11.86617 -0.109264,-17.79928 -0.01411,-4.59115 -0.04257,-9.18205 0.0025,-13.7733 0.01175,-4.87881 -0.0318,-9.75746 0.04895,-14.636 0.05282,-6.01291 0.08383,-12.02621 0.08439,-18.03927 -0.0039,-7.10275 -0.108634,-14.21167 -0.62132,-21.29837 -0.812318,-9.06154 -2.404787,-18.00049 -3.454545,-27.03082 -1.097065,-10.33454 -1.65431,-20.74716 -2.09731,-31.12651 -0.541514,-11.55383 -1.489335,-23.08005 -3.217859,-34.52387 -1.168602,-10.83717 -2.888373,-21.6413 -3.021376,-32.56322 -0.499363,-11.28033 -1.449496,-22.55081 -1.428269,-33.84496 0.02265,-11.78406 0.03699,-23.56763 -0.07799,-35.35138 -0.03695,-10.26176 -0.01232,-20.52343 -0.02854,-30.78521 0.01242,-9.88093 -0.05718,-19.76141 -0.07977,-29.64223 -0.03434,-9.40028 0.01394,-18.80331 0.237564,-28.20101 0.351348,-10.28518 0.809398,-20.58319 2.249178,-30.78472 1.260639,-8.58828 1.959836,-17.1568 2.121005,-25.84024 0.672099,-8.50092 2.073725,-16.87408 3.093019,-25.33164 1.207689,-10.58663 1.844609,-21.22 3.189512,-31.79218 1.420444,-10.44234 2.600746,-20.92485 4.497671,-31.29657 2.135593,-11.1525 4.142174,-22.34522 7.41616,-33.24052 2.02539,-7.41841 4.2512,-14.77471 6.297901,-22.18516 0,0 27.332518,-12.36609 27.332518,-12.36609 z"
       inkscape:connector-curvature="0" />
    <path
       style="fill:#000000;fill-opacity:1;stroke:none;stroke-opacity:1"
       id="path4628"
       d="m 525.05922,368.97542 c -0.36837,9.11611 -0.41087,18.22755 -0.99624,27.33611 -0.64961,10.294 -2.01809,20.51755 -2.76003,30.80653 -0.74603,12.12525 -0.83173,24.27805 -0.90305,36.42211 -0.0984,11.47982 0.34338,22.96596 -0.0356,34.44113 -0.35344,10.69674 -1.97054,21.27869 -3.4188,31.86427 -1.91494,14.74135 -2.31245,29.61557 -2.61683,44.45944 -0.22623,15.04404 -0.10092,30.09052 -0.0953,45.13563 0.0448,13.259 0.11034,26.51791 0.14461,39.77696 0.0352,11.51065 0.0927,23.02124 0.10451,34.53197 0.0411,10.13121 0.0524,20.26244 0.0767,30.39369 0.0293,9.47492 0.009,18.94992 0.0163,28.42488 0.0511,8.92682 0.0384,17.85349 0.0309,26.78032 0.0202,9.55972 -0.0717,19.11923 -0.0711,28.6789 -0.0713,11.01719 -0.0335,22.03481 -0.0919,33.0519 -0.0374,12.94291 -0.10332,25.88558 -0.15142,38.82844 -0.53721,13.32655 0.65328,26.55238 2.17363,39.76877 1.33845,9.91023 2.79466,19.79608 3.77606,29.75059 0.58135,6.07447 0.64622,12.18263 0.64791,18.28004 -0.25924,5.60742 0.0602,11.14345 0.86527,16.68728 0.64447,4.77943 1.80439,9.46091 2.51277,14.2312 0,0 -26.23899,13.82062 -26.23899,13.82062 l 0,0 c -0.59444,-4.7979 -1.76077,-9.4727 -2.47439,-14.24313 -0.75626,-5.69657 -1.1856,-11.35268 -0.91834,-17.10948 -0.0336,-6.06605 -0.0282,-12.13442 -0.3361,-18.19481 -0.56757,-10.0412 -1.74911,-20.02324 -3.1627,-29.97923 -1.28665,-13.35934 -2.72091,-26.69792 -2.09007,-40.1489 -0.0481,-12.89143 -0.11406,-25.78267 -0.15142,-38.67414 -0.0586,-10.98587 -0.0204,-21.97227 -0.0919,-32.95824 6.3e-4,-9.53553 -0.0914,-19.0709 -0.0711,-28.60648 -0.008,-8.93732 -0.0201,-17.87447 0.0309,-26.81179 0.007,-9.48051 -0.013,-18.96106 0.0164,-28.44154 0.0244,-10.15731 0.0361,-20.31462 0.0769,-30.47189 0.0114,-11.54436 0.0682,-23.08859 0.0959,-34.6329 0.0241,-13.29944 0.0703,-26.59882 0.0937,-39.89826 -0.007,-15.09153 0.0807,-30.18258 0.25223,-45.27318 0.22553,-14.85183 0.50373,-29.72666 2.04506,-44.51245 1.20101,-10.49719 2.67362,-20.96756 3.24658,-31.52629 0.69016,-11.48708 0.20158,-23.01141 0.44914,-34.51325 0.0179,-12.13822 -0.0429,-24.2844 0.49219,-36.41359 0.61351,-10.30808 1.99512,-20.52567 2.79684,-30.81381 0.53686,-8.89863 0.79433,-17.80074 0.15426,-26.70602 0,0 26.5765,-13.5414 26.5765,-13.5414 z"
       inkscape:connector-curvature="0" />
    <path
       style="fill:#000000;fill-opacity:1;stroke:none;stroke-opacity:1"
       id="path4630"
       d="m 995.82067,322.25127 c -0.54076,9.66314 -0.53915,19.34815 -0.58394,29.02352 0.2764,12.14247 -1.23848,24.22894 -2.81504,36.2444 -1.5188,12.50744 -4.01005,24.86656 -6.16828,37.2726 -2.05174,12.55411 -5.34369,24.84617 -8.36346,37.18867 -2.62017,10.62494 -3.7719,21.52396 -5.5155,32.30867 -1.41905,9.2122 -3.14065,18.37082 -4.15288,27.63979 -1.05981,11.23048 -1.19972,22.52377 -1.24111,33.7962 -0.15993,11.16937 -1.66601,22.2398 -2.71499,33.34274 -0.79615,9.00658 -1.02459,18.04868 -1.12359,27.08552 0.24831,8.28822 -0.48886,16.53791 -1.11986,24.79093 -0.67287,8.47474 -1.77505,16.89814 -2.33166,25.38569 -0.4942,8.20392 -0.49389,16.42376 -0.5321,24.63883 -0.0303,8.77467 -0.13509,17.54897 -0.14585,26.32373 -0.0211,10.17011 -0.0344,20.3404 -0.0101,30.51054 0.10772,9.10276 0.0625,18.20651 0.06,27.30969 -0.0193,9.11343 -0.004,18.22674 0.0236,27.34018 -0.009,8.7939 -0.009,17.58776 0.01,26.38172 0.13394,9.02946 -0.88628,18.0146 -2.0043,26.95771 -1.30048,9.52045 -1.71571,19.11711 -1.93619,28.71264 -0.0875,7.97345 -0.10199,15.94936 -0.0358,23.92324 0.0898,7.10119 0.0202,14.20172 -0.0242,21.3028 -0.007,8.55948 -0.0607,17.11873 -0.0577,25.67821 0.39866,6.78038 0.98577,13.56258 2.3077,20.22966 0.94845,4.438 2.02431,8.9195 3.86866,13.07935 0.65635,1.20685 2.16783,3.05858 3.88439,2.40101 0.45832,-0.17557 1.47827,-1.26764 1.04479,-1.03746 -8.18018,4.34379 -16.22515,8.93755 -24.33773,13.40635 0,0 27.38297,-11.65774 27.38297,-11.65774 l 0,0 c -8.89309,5.44026 -25.07112,25.51704 -33.81217,11.47204 -2.01818,-4.35209 -3.16854,-9.0759 -4.07103,-13.774 -1.25688,-6.9151 -1.79494,-13.9125 -2.15099,-20.93088 0.003,-8.5381 -0.0507,-17.07598 -0.0651,-25.61407 -0.0517,-7.08634 -0.13563,-14.17217 -0.0626,-21.25883 0.0596,-8.04412 0.0364,-16.08899 0.27837,-24.13088 0.26919,-9.66887 0.56675,-19.36112 1.79779,-28.96464 1.10546,-8.81668 2.15334,-17.69143 2.07434,-26.58821 0.0193,-8.79739 0.0187,-17.59467 0.0101,-26.39198 0.0278,-9.12151 0.0431,-18.2429 0.0239,-27.36439 -0.002,-9.12323 -0.0472,-18.247 0.0587,-27.36982 0.0222,-10.16306 0.006,-20.32631 -0.0282,-30.4893 -0.0219,-8.73277 -0.15793,-17.46503 -0.14091,-26.19789 0.0534,-8.29741 0.22208,-16.59636 0.64541,-24.88388 0.51449,-8.46459 1.40489,-16.8855 2.11847,-25.33071 0.67264,-8.22474 1.67602,-16.432 1.38275,-24.70298 0.10868,-9.13443 0.22074,-18.27905 1.14703,-27.37626 1.11783,-11.06476 2.9074,-22.07148 3.04559,-33.21663 0.10939,-11.30792 0.0503,-22.62861 0.85571,-33.91531 0.92645,-9.35143 2.46992,-18.59227 4.12675,-27.83953 1.96823,-10.86815 3.03012,-21.90425 5.72129,-32.63515 3.03118,-12.29677 6.42798,-24.51748 8.48801,-37.02894 2.12868,-12.35797 4.66618,-24.65563 6.10532,-37.12231 1.64439,-11.89766 3.27028,-23.88921 3.03031,-35.92384 -0.0441,-9.47684 -0.0326,-18.96461 -0.58393,-28.42846 0,0 26.63722,-13.57234 26.63722,-13.57234 z"
       inkscape:connector-curvature="0" />
    <path
       style="fill:#000000;fill-opacity:1;stroke:none;stroke-opacity:1"
       id="path4632"
       d="m 1025.7862,328.9458 c -4.4907,10.63904 -8.1319,21.58816 -11.5358,32.61354 -4.3867,14.64737 -8.4981,29.37513 -12.5728,44.11173 -4.0713,14.3173 -7.24023,28.87247 -10.15247,43.46323 -2.1902,11.93738 -3.55229,24.01238 -4.87377,36.07209 -1.41091,10.92051 -3.24765,21.76142 -4.33681,32.72227 -0.92984,13.32715 -1.17507,26.67625 -2.40317,39.98383 -1.75135,12.38476 -3.33872,24.77742 -4.14239,37.26255 -0.69961,12.16833 -0.7368,24.36018 -0.8462,36.54419 -0.12957,14.11407 -0.0895,28.22914 0.0463,42.34296 0.0689,10.14901 0.27712,20.29686 0.26554,30.4463 -0.0704,10.63816 -0.13003,21.27632 -0.16278,31.91466 -0.0101,10.83412 0.0425,21.66844 0.10676,32.50242 0.0656,8.20266 0.0969,16.40561 0.17275,24.60816 0.0712,6.563 0.0402,13.12697 0.0302,19.69032 -0.0116,7.62773 -0.0826,15.25512 -0.11716,22.88269 -0.0618,9.34213 -0.0741,18.6848 -0.0515,28.02714 -0.034,9.56417 -0.03,19.12823 0.007,28.69239 0.33164,7.63462 1.00674,15.25804 2.2911,22.7924 0.97326,4.92219 1.59211,9.89384 1.90331,14.89859 0.28717,4.02711 0.009,8.07454 0.35231,12.09466 0.93317,3.64175 0.49504,7.75698 2.16717,11.16576 0.15888,-0.21426 0.31776,-0.42852 0.47664,-0.64278 0,0 -24.89585,16.73853 -24.89585,16.73853 l 0,0 c -0.51461,-0.47082 -1.02922,-0.94164 -1.54383,-1.41246 -1.70428,-3.81322 -1.68131,-7.98313 -2.53463,-12.03569 -0.60583,-4.06625 -0.19351,-8.18937 -0.41671,-12.2899 -0.1938,-4.94404 -0.6258,-9.87266 -1.47453,-14.75201 -1.21335,-7.74917 -1.76551,-15.55567 -2.16773,-23.38956 0.0373,-9.56669 0.0416,-19.13328 0.007,-28.69998 0.0225,-9.32485 0.0105,-18.65003 -0.0515,-27.97466 -0.0346,-7.58777 -0.1057,-15.17536 -0.11715,-22.7633 -0.01,-6.57362 -0.0408,-13.14784 0.0302,-19.72112 0.0757,-8.26123 0.10728,-16.52287 0.17278,-24.78422 0.0641,-10.87031 0.11693,-21.74095 0.1071,-32.6114 -0.0325,-10.58278 -0.0916,-21.16537 -0.16358,-31.74795 -0.0142,-10.23473 0.18898,-20.46801 0.24136,-30.70247 0.11258,-14.12491 0.11369,-28.25053 -10e-4,-42.37548 -0.0565,-12.19475 -0.13123,-24.40225 0.50906,-36.58432 0.90038,-12.55506 2.45457,-25.0207 4.37958,-37.46053 1.24882,-13.28056 1.64534,-26.58788 2.27754,-39.90581 0.84558,-10.95302 2.38958,-21.80511 4.06016,-32.65951 1.39519,-12.23187 3.08259,-24.45078 5.32477,-36.55638 2.84437,-14.67465 6.02938,-29.29356 10.10486,-43.68218 4.12841,-14.72023 8.15428,-29.46964 12.48937,-44.13127 3.10052,-10.71796 6.37414,-21.38377 10.1119,-31.89899 0,0 26.9258,-12.78844 26.9258,-12.78844 z"
       inkscape:connector-curvature="0" />
    <path
       style="fill:#000000;fill-opacity:1;stroke:none;stroke-opacity:1"
       id="path4634"
       d="m 1036.0473,365.12511 c -1.6714,9.96211 -3.112,19.96059 -4.7095,29.93519 -2.0926,12.43963 -4.853,24.74864 -6.9403,37.19576 -2.7296,14.07071 -3.8307,28.37023 -5.112,42.62429 -1.4763,10.87487 -1.8382,21.9023 -3.8463,32.69839 -1.4784,7.53765 -3.4256,14.96941 -4.5767,22.56693 -1.2254,9.22714 -2.0691,18.49237 -3.031,27.74816 -0.7887,10.18253 -2.2731,20.2729 -3.8473,30.35646 -1.5724,11.08461 -3.2264,22.15864 -5.04773,33.20532 -2.22282,12.37827 -3.03349,24.92902 -3.49164,37.47659 -0.31681,12.40563 -0.32431,24.8183 -0.15973,37.22626 0.0998,7.67722 0.21989,15.35411 0.34556,23.03098 0.0771,4.50928 0.10316,9.01914 0.11548,13.52899 -0.0514,5.77427 -0.15989,11.54828 -0.17689,17.3227 -0.006,7.11723 -0.0466,14.23419 10e-4,21.35144 0.0879,6.41602 1.57656,12.54838 3.32233,18.67264 1.80202,6.64739 2.30052,13.53692 2.58172,20.38884 0.1918,8.1523 0.117,16.30956 0.054,24.46335 -0.014,9.16079 -0.089,18.32134 10e-4,27.48191 -0.015,8.46976 0,16.93953 0.014,25.40929 0.044,6.97878 0.064,13.95711 0.1506,20.93559 0.064,4.61104 0.094,9.22241 0.1087,13.83384 -0.01,4.46153 0.6475,8.93374 1.5296,13.30112 1.0984,4.1603 1.6806,8.42027 2.6876,12.59933 1.0487,4.03009 2.1244,8.05935 3.2406,12.07313 0.5457,2.06114 1.2824,2.83589 3.237,3.37665 0,0 -24.90064,16.32425 -24.90064,16.32425 l 0,0 c -2.10533,-1.4638 -3.70713,-2.87478 -4.41675,-5.46695 -1.22161,-4.0231 -2.14718,-8.15191 -3.30516,-12.19165 -1.02925,-4.21062 -1.63405,-8.48075 -2.67089,-12.69187 -1.03707,-4.51133 -1.64909,-9.22235 -1.88185,-13.83152 0.0147,-4.6483 0.0451,-9.29654 0.1085,-13.94446 0.0857,-7.02964 0.10604,-14.05913 0.15033,-21.08906 0.01,-8.47659 0.0301,-16.95318 0.0226,-25.42978 0.0996,-9.1709 0.0439,-18.34205 0.0577,-27.5133 -0.0458,-8.0744 -0.0244,-16.1502 -0.2608,-24.22221 -0.26173,-6.63387 -0.60534,-13.31153 -2.32201,-19.76042 -1.72969,-6.39964 -3.6269,-12.69329 -3.64559,-19.40108 0.0478,-7.11781 0.008,-14.23532 0.002,-21.3531 -0.0167,-5.71424 -0.12477,-11.42807 -0.17675,-17.14214 0.0115,-4.54548 0.0357,-9.09095 0.10182,-13.63601 0.10667,-7.78443 0.19525,-15.56898 0.281,-23.35364 0.15861,-12.49373 0.13882,-24.99015 0.45355,-37.48176 0.37225,-12.61767 0.87862,-25.25483 3.12271,-37.70896 1.8164,-10.99645 3.36603,-22.03599 4.84639,-33.08193 1.58724,-10.04375 3.11923,-20.09609 3.96149,-30.2357 0.90571,-9.22594 1.51183,-18.47829 2.65735,-27.68178 0.96633,-7.71492 2.84974,-15.20051 4.55503,-22.77784 2.4962,-10.76645 3.11751,-21.86209 4.74724,-32.77818 1.35506,-14.2638 2.2741,-28.59762 4.83311,-42.71348 2.02782,-12.43235 4.63992,-24.74034 6.83312,-37.13278 1.5925,-9.71993 3.0353,-19.51183 3.6345,-29.347 0,0 26.7616,-13.1608 26.7616,-13.1608 z"
       inkscape:connector-curvature="0" />
    <path
       style="fill:#000000;fill-opacity:1;stroke:none;stroke-opacity:1"
       id="path4636"
       d="m 524.45111,1020.8006 c 9.27816,-5.8844 -1.55973,1.0181 -22.0183,12.5917 -0.76503,0.4328 1.47023,-0.9644 2.18782,-1.472 2.30644,-1.6314 4.47433,-3.4475 6.6793,-5.2106 4.0849,-3.2865 8.43269,-6.2163 12.61903,-9.3658 10.66239,-7.9294 22.9878,-13.8351 34.23382,-20.5514 7.57918,-4.52638 -30.67785,17.4838 -22.94142,13.2318 9.28198,-5.1015 18.38594,-10.52041 27.57891,-15.78062 4.03162,-2.5241 8.47704,-4.16197 12.77845,-6.11558 4.33172,-1.78931 8.86845,-2.82713 13.3632,-4.10073 4.83766,-1.65038 9.88908,-2.70197 14.72949,-4.32533 4.36604,-1.55667 8.96599,-1.84552 13.54956,-2.08552 4.77863,-0.0571 9.60053,-0.57789 14.2104,-1.86547 4.30956,-1.143 8.67743,-1.82748 12.99153,-2.93038 4.72954,-0.96142 9.37893,-2.08175 14.18565,-2.61266 6.68235,-0.54947 13.39138,-0.66649 20.09314,-0.72061 6.232,-0.10289 12.46365,-0.0288 18.69571,0.011 9.93433,0.12035 19.86908,0.15926 29.80386,0.21209 11.86316,-0.007 23.72633,0.002 35.58949,0.006 11.94405,0.29837 23.84912,-0.20115 35.76059,-1.01936 9.97792,-0.94408 19.8747,-2.50669 29.81358,-3.75867 8.62819,-1.03727 17.31924,-1.30638 26.0008,-1.39495 9.26407,-0.0786 18.52861,-0.0327 27.79273,0.0137 8.62611,0.0193 17.2518,-0.0793 25.87786,-0.0907 7.1375,0.0225 14.27463,0.002 21.41189,-0.0556 5.42369,-0.43968 10.72208,0.36633 16.07906,1.03903 0.87902,0.0942 1.75803,0.18838 2.63704,0.28257 0,0 -24.10844,17.0989 -24.10844,17.0989 l 0,0 c -0.87775,-0.10717 -1.75549,-0.21433 -2.63323,-0.3215 -5.2558,-0.65149 -10.498,-0.93462 -15.79765,-0.79045 -7.08481,-0.0591 -14.16948,-0.0779 -21.25454,-0.0601 -8.5262,-0.018 -17.05181,-0.13069 -25.57807,-0.12893 -9.30797,0.0294 -18.61648,0.0171 -27.92377,0.1466 -8.59317,0.20779 -17.19637,0.48732 -25.73111,1.59107 -9.89424,1.27501 -19.76888,2.72853 -29.72547,3.45681 -11.91906,0.6319 -23.83086,1.06084 -35.7708,0.8107 -11.86768,0.004 -23.73536,0.0133 -35.60304,0.004 -10.11919,0.0502 -20.23833,0.0874 -30.35725,0.18651 -6.2402,0.0257 -12.47993,0.0605 -18.72016,0.0526 -6.66247,0.10016 -13.34911,0.17329 -19.96144,1.08505 -4.76681,0.79644 -9.46154,1.95162 -14.17851,2.99674 -4.29784,1.03021 -8.68615,1.64983 -12.95231,2.83131 -4.79798,0.86265 -9.62499,1.42781 -14.50424,1.50865 -4.48707,0.38131 -8.89408,1.13696 -13.16357,2.62028 -4.92581,1.30296 -9.76582,2.86775 -14.67853,4.21655 -4.4914,1.2353 -8.94141,2.6368 -13.21601,4.5052 -4.32204,1.8006 -8.45994,3.9771 -12.55816,6.2382 58.47081,-33.91495 -0.65201,0.3875 -4.539,2.5995 -7.66156,4.3602 15.22156,-8.8967 22.86834,-13.2827 0.80568,-0.4621 -1.56142,1.0063 -2.34213,1.5094 -0.7581,0.4543 -1.52795,0.8896 -2.27428,1.3629 -0.70358,0.4463 -1.38267,0.93 -2.074,1.395 -4.0991,3.3125 -8.53753,6.1262 -12.65687,9.4107 -2.92898,2.1423 -5.54369,4.9835 -8.65791,6.8467 -9.05963,5.4202 -18.20326,10.6988 -27.32516,16.0135 -0.55794,0.3251 -1.1419,0.6033 -1.71285,0.9049 0,0 23.42697,-18.7394 23.42697,-18.7394 z"
       inkscape:connector-curvature="0" />
    <path
       style="fill:#000000;fill-opacity:1;stroke:none;stroke-opacity:1"
       id="path4638"
       d="m 522.90073,1033.4922 c 5.10062,-1.0633 10.23741,-2.2045 15.23227,-3.7515 6.07566,-1.9605 12.0844,-4.2684 17.97785,-6.7352 5.88038,-2.6633 11.77547,-5.3877 17.98431,-7.196 5.59316,-1.7635 11.25925,-3.3956 16.9664,-4.7733 4.21793,-1.8715 8.80997,-2.2876 13.23779,-3.3441 5.78489,-2.0054 11.85328,-2.8916 17.92725,-3.4247 6.03983,-0.9161 12.07077,-1.7545 18.05951,-2.9526 5.82897,-1.1643 11.79714,-1.3254 17.72175,-1.44772 5.58963,-0.10394 11.18027,-0.17806 16.77091,-0.15124 5.89714,-0.0251 11.79362,0.0588 17.69009,0.13305 10.22901,0.26471 20.42747,0.16751 30.63414,-0.53075 9.26665,-0.74838 18.55273,-1.15267 27.84552,-1.36017 9.74702,0.14426 19.45337,-0.80575 29.17876,-1.30221 9.71073,-0.50386 19.43279,-0.69675 29.15477,-0.79714 8.06061,-0.10412 16.12133,-0.0557 24.18224,-0.0429 8.6159,0.36625 17.17326,-0.30176 25.75146,-0.97669 7.55362,-0.53371 15.08619,-0.84035 22.60767,-1.71883 6.84181,-0.95049 13.73938,-1.16505 20.63493,-1.27398 7.08145,-0.0827 14.16322,-0.12339 21.24494,-0.17705 6.42799,0.0225 12.85585,0.0424 19.28388,0.0523 5.98875,0.0301 11.91403,-1.07347 17.86646,-1.64755 4.28948,-1.14407 8.64512,-1.88216 13.06405,-2.25693 4.04838,-0.42388 8.00049,-1.44325 12.07091,-1.87941 1.34675,-0.25551 2.73304,-0.0729 4.08408,-0.26159 1.92202,-0.26838 1.90999,-0.43858 3.56165,-1.30934 -8.0593,4.54395 -16.11861,9.0879 -24.17791,13.63185 0,0 27.77274,-10.84995 27.77274,-10.84995 l 0,0 c -18.59216,10.67161 -20.16003,15.44435 -35.07078,16.56885 -4.03922,0.5998 -8.01784,1.5896 -12.10644,1.8221 -4.35573,0.5448 -8.61613,1.5748 -12.96413,2.1566 -5.93364,0.5846 -11.86631,1.4662 -17.84459,1.2748 -6.46316,0 -12.92623,0.014 -19.38939,0.026 -7.00022,-0.055 -14.00221,-0.091 -21.00103,0.091 -6.86343,0.2352 -13.71808,0.6658 -20.53625,1.5145 -7.47718,0.7974 -14.99241,0.8994 -22.48648,1.5067 -8.64,0.663 -17.27059,1.068 -25.9408,0.8335 -8.03778,0 -16.07546,0.028 -24.11318,0.026 -9.61531,0.07 -19.23331,0.2007 -28.83617,0.7333 -9.82954,0.6005 -19.64759,1.4796 -29.50445,1.4218 -9.18444,0.2149 -18.3613,0.6213 -27.52622,1.2687 -10.34693,0.5888 -20.6954,0.552 -31.05667,0.6134 -6.00279,0.068 -12.00562,0.1423 -18.00892,0.098 -5.51841,0.018 -11.0383,-0.061 -16.55515,0.1135 -5.88177,0.2556 -11.76791,0.6369 -17.53733,1.8917 -6.00932,1.1147 -12.08073,1.8326 -18.13035,2.6925 -6.09164,0.7557 -12.04928,2.0396 -17.92519,3.8282 -4.44681,0.8863 -8.80816,2.0073 -13.13098,3.3838 -5.60255,1.4818 -11.22478,2.923 -16.70679,4.8122 -6.10505,2.1645 -11.99773,4.8419 -17.93972,7.4089 -5.97061,2.2443 -11.85484,4.7581 -18.02212,6.4283 -5.24863,1.4701 -10.55438,2.7494 -15.87878,3.9131 0,0 23.88349,-18.0832 23.88349,-18.0832 z"
       inkscape:connector-curvature="0" />
    <path
       style="fill:#000000;fill-opacity:1;stroke:none;stroke-opacity:1"
       id="path4640"
       d="m 104.22766,986.45544 c 3.95072,-2.4815 8.45551,-3.87502 12.73016,-5.68259 5.6624,-2.18344 11.39271,-4.16589 17.2829,-5.64118 5.93267,-2.3921 12.31313,-2.61582 18.53208,-3.62704 7.41041,-1.23559 14.92084,-1.54702 22.41393,-1.83274 6.04409,-0.26369 12.09275,-0.22874 18.14049,-0.2324 6.34626,0.0525 12.69224,0.0544 19.03856,0.0175 4.69611,-0.0333 9.39228,-0.0538 14.0885,-0.0641 4.44387,-0.006 8.88747,0.0243 13.3314,0.0183 4.87305,-0.0247 9.74594,0.0269 14.61896,0.0315 6.83148,0.0601 13.6628,0.0773 20.49453,0.0893 6.93094,-0.22671 13.79757,-0.0428 20.68854,0.67144 7.80321,0.66264 15.60005,1.56725 23.32109,2.88858 7.80374,1.08215 15.51619,2.68727 23.33995,3.62891 6.7926,0.6142 13.51317,1.84286 20.20744,3.11986 5.61829,0.97491 11.27289,1.42845 16.89167,2.38274 6.54875,1.60377 12.97727,3.64718 19.38244,5.74627 6.01455,2.05389 12.19858,3.69802 18.06457,6.15996 6.55504,3.12264 13.3943,5.55232 20.28301,7.81685 6.37654,2.0207 13.02633,2.9153 19.34041,5.1357 5.25624,1.9727 10.11975,4.7869 15.36268,6.7794 6.00897,1.7057 11.7795,4.0382 17.43315,6.669 4.59459,1.9603 2.31774,1.0508 6.82602,2.7399 0,0 -24.33312,16.3222 -24.33312,16.3222 l 0,0 c -4.48971,-1.8495 -2.21551,-0.8864 -6.82059,-2.8941 -5.77658,-2.4383 -11.71792,-4.3786 -17.64466,-6.4103 -5.10592,-2.1862 -10.02406,-4.8115 -15.29237,-6.6126 -6.25374,-1.9965 -12.70444,-3.2798 -18.92968,-5.3776 -7.03208,-2.2509 -13.97116,-4.7624 -20.72572,-7.7574 -5.83682,-2.2276 -11.80714,-4.1286 -17.72269,-6.1333 -6.39276,-1.9823 -12.80829,-3.9354 -19.38507,-5.22139 -5.60243,-0.88223 -11.27068,-1.29559 -16.81623,-2.53354 -6.62425,-1.27702 -13.30463,-2.2696 -20.00576,-3.0459 -7.7973,-1.08775 -15.51161,-2.68942 -23.31472,-3.7508 -7.74016,-1.14706 -15.5103,-2.08743 -23.31575,-2.65738 -6.82214,-0.5621 -13.64962,-0.46154 -20.49108,-0.47907 -6.91363,0.012 -13.82687,0.0297 -20.74026,0.0893 -4.90202,0.005 -9.8039,0.0561 -14.70594,0.0317 -4.46087,-0.006 -8.92142,0.0248 -13.38225,0.0183 -4.63443,-0.0109 -9.26883,-0.0328 -13.90311,-0.073 -6.34436,-0.0471 -12.68851,-0.0594 -19.03298,-0.0176 -5.96519,4.9e-4 -11.93169,0.0444 -17.89508,0.19281 -7.46044,0.29338 -14.90901,0.86139 -22.27485,2.13311 -6.2406,0.86506 -12.42459,1.89294 -18.4082,3.94783 -5.82273,1.66617 -11.529713,3.71372 -17.134266,6.00871 -4.4448,1.78872 -8.821206,3.72662 -12.965082,6.14422 0,0 23.426978,-18.73934 23.426978,-18.73934 z"
       inkscape:connector-curvature="0" />
    <path
       style="fill:#000000;fill-opacity:1;stroke:none;stroke-opacity:1"
       id="path4642"
       d="m 96.795226,993.56322 c 5.033824,0.12925 10.071454,0.14589 15.107004,0.15029 6.13077,0.0508 12.26147,0.009 18.39214,-0.0307 5.14074,-0.0512 10.28125,0.014 15.4221,0.004 4.65993,-0.0184 9.31986,-0.0378 13.97982,-0.0479 5.26571,0.0337 10.53147,0.0464 15.79721,0.0801 6.74581,-0.006 13.49141,0.0562 20.23722,0.0369 5.73099,0.54527 11.42967,1.31573 17.17734,1.67656 7.46558,0.88396 14.87972,2.08232 22.32522,3.11363 6.08944,0.55176 12.14641,1.4736 18.09798,2.8826 7.53714,1.3923 15.16196,2.3697 22.77328,3.2989 6.68214,0.9627 13.4128,1.8129 20.06266,3.0016 8.56319,1.7662 17.24688,2.6875 25.88991,3.9381 8.09023,0.8788 16.12486,2.072 24.18505,3.1723 7.55911,0.6067 15.05352,1.7498 22.60481,2.4478 7.20129,1.2754 14.4686,2.0222 21.76601,2.4247 6.01088,0.2755 12.03042,0.2843 18.04637,0.2651 5.49715,-0.3029 10.90528,0.7945 16.35504,1.3396 7.82855,1.249 15.65672,2.5233 23.52584,3.4967 7.40518,1.627 14.99511,2.0486 22.45281,3.2818 5.87856,0.7021 11.59687,2.2312 17.43375,3.1766 4.25226,0.6355 8.55526,0.7191 12.84589,0.7656 4.02484,0.02 8.04975,4e-4 12.0746,-0.01 0.70578,0.1277 1.41155,0.2555 2.11733,0.3832 0,0 -24.25733,17.1927 -24.25733,17.1927 l 0,0 c -0.63785,-0.031 -1.27571,-0.061 -1.91356,-0.092 -4.03615,0.01 -8.0729,0.031 -12.10851,-0.049 -4.35705,-0.1292 -8.71983,-0.3794 -13.00624,-1.228 -5.7229,-1.14 -11.39712,-2.5137 -17.1959,-3.245 -7.39952,-1.0304 -14.79558,-2.0411 -22.14365,-3.4111 -7.9529,-1.0382 -15.88928,-2.2049 -23.84956,-3.1804 -5.40114,-0.5682 -10.78441,-1.3348 -16.23382,-1.0666 -6.00459,-0.058 -12.01137,-0.1213 -18.00511,-0.5269 -7.28353,-0.5774 -14.5189,-1.5142 -21.75011,-2.5529 -7.56787,-0.8118 -15.11294,-1.8273 -22.69227,-2.5312 -7.9794,-1.1601 -15.94196,-2.398 -23.95381,-3.3379 -8.74016,-1.2114 -17.49244,-2.298 -26.19107,-3.7989 -6.63977,-0.9707 -13.255,-2.0653 -19.89799,-3.0089 -7.71574,-1.0888 -15.48478,-1.8553 -23.13732,-3.33 -5.90363,-1.1261 -11.81252,-2.1926 -17.78956,-2.8567 -7.44938,-1.1164 -14.89531,-2.264 -22.4188,-2.7736 -5.65171,-0.4061 -11.23903,-1.3733 -16.90117,-1.6318 -6.77966,-0.02 -13.55911,0.044 -20.33878,0.037 -5.33927,0.034 -10.67856,0.047 -16.01781,0.08 -4.61605,-0.01 -9.23205,-0.029 -13.84807,-0.048 -5.14406,-0.01 -10.28779,0.055 -15.43175,0 -6.10252,-0.04 -12.205068,-0.081 -18.307695,-0.031 -5.173498,0 -10.348805,0.024 -15.520727,0.1503 0,0 24.241228,-17.61226 24.241228,-17.61226 z"
       inkscape:connector-curvature="0" />
    <path
       style="fill:#000000;fill-opacity:1;stroke:none;stroke-opacity:1"
       id="path4644"
       d="m 166.71922,393.29228 c 4.85521,-0.42058 9.68472,-0.79864 14.49843,-1.57677 2.60265,-0.53969 5.47807,-0.43955 7.86708,-1.78122 0.53509,-0.30051 2.01918,-1.38831 1.48017,-1.09488 -5.50885,2.99895 -10.93577,6.14603 -16.40366,9.21904 2.00794,-2.51032 3.67379,-6.26017 3.30478,-9.57935 3.32215,8.28453 -0.27122,1.23029 18.12702,-7.87533 0.60279,-0.29833 -0.65307,1.17614 -0.96511,1.77195 -1.157,2.2091 -2.16332,4.48036 -3.17422,6.75853 -1.76477,3.9321 -3.33835,7.92503 -4.28319,12.13522 -0.54522,3.17635 -0.90165,6.42916 -0.49841,9.63628 2.30123,5.33001 8.11505,4.51009 12.84336,3.57636 5.28319,-1.34102 9.96058,-4.15833 14.90532,-6.32206 0.5653,-0.24737 1.18486,-0.94236 1.73122,-0.65556 0.74473,0.39094 0.81582,1.47114 1.22373,2.20672 -0.75204,2.37496 -2.67078,3.94896 -4.20649,5.80722 -0.32592,0.39437 -0.90606,1.58198 -1.07234,1.09814 -0.26556,-0.77273 -0.4364,-1.57484 -0.6546,-2.36225 -32.49412,18.27491 -16.87664,11.96949 -12.62377,5.15047 1.00098,-1.60497 1.1752,-2.3345 1.8307,-4.08642 1.4619,-5.14849 0.9005,-8.10061 -3.89888,-10.73663 -1.96385,-1.21444 -4.49478,-0.83025 -6.5639,-1.58769 -0.37832,-0.13849 -1.26457,-0.50828 -0.94495,-0.75353 17.32231,-13.29134 11.56438,-12.06908 22.30764,-13.28128 5.04336,-0.67943 10.04658,-1.67907 15.09974,-2.28871 2.51234,-0.3031 5.71925,-0.67002 8.27853,-0.19368 1.09448,0.20371 2.10374,0.72921 3.15561,1.09382 0.81078,0.66471 1.73711,1.20936 2.43233,1.99412 3.73493,4.2159 3.87788,10.88802 4.35359,16.1763 0.47468,4.93954 0.37652,7.91444 4.76179,10.67076 5.94732,3.33316 12.98947,3.53371 19.63517,3.97221 7.87214,0.79992 15.65615,-0.46779 23.46862,-1.21388 1.50842,-0.12212 3.01663,-0.24688 4.52526,-0.36635 2.98222,-0.23618 5.17353,-0.4818 8.14272,-0.39653 3.87443,0.11128 7.79595,0.7396 11.64911,1.11598 12.69984,1.03077 25.44119,1.38581 38.16892,1.8936 -6.14413,4.1754 -11.88915,9.00906 -18.43239,12.5262 -1.31958,0.7093 -2.99201,-0.16892 -4.4897,-0.20507 -4.38401,-0.10585 -9.15958,0.0106 -13.53182,-0.20773 -5.7997,-0.28968 -5.86919,-0.44145 -11.09529,-1.32637 -2.10867,-0.61371 -3.22949,-0.49036 -4.56863,-2.16205 -0.46606,-0.5818 -0.3791,-1.52413 -0.91788,-2.03933 -0.38626,-0.36935 -1.03395,-0.27103 -1.5526,-0.39996 -5.93624,-2.97368 -1.38659,-9.33527 1.13028,-13.08477 0.94466,-1.83349 3.96802,-5.96402 1.63932,-8.0307 -0.87137,-0.77333 -2.66481,-1.15566 -3.65871,-1.45429 -2.54274,-0.16116 -5.06795,0.17761 -7.38748,1.28246 -0.65745,0.31315 -2.49964,1.49434 -1.86196,1.14269 16.59943,-9.15384 20.44681,-13.78082 15.13784,-7.7955 -0.82854,1.31932 -1.53434,2.76161 -1.59275,4.35327 -0.0312,0.85093 0.34794,2.13012 0.13274,2.96837 -0.17557,0.68394 -0.60707,1.27509 -0.91061,1.91264 -6.85009,3.96537 -13.50401,8.29083 -20.55027,11.89612 -1.42766,0.73048 -3.1254,0.72431 -4.70086,1.0239 -5.41593,1.02991 -11.47686,2.19759 -16.98607,1.03756 -1.39393,-0.29351 -2.65247,-1.03978 -3.9787,-1.55967 -2.57383,-1.80445 -3.52438,-4.10433 -4.17801,-7.0247 -0.0687,-0.30696 -0.43496,-0.77665 -0.16029,-0.92995 19.29361,-10.76764 17.22324,-16.39067 19.46488,-7.94101 0.9002,5.54234 3.61145,7.59711 8.6487,9.42329 6.15721,1.14283 12.31373,-0.31962 18.20923,-2.05383 5.25977,-1.45175 9.42675,-4.06265 10.89797,2.8934 1.03664,3.67527 4.26983,4.42208 7.81712,5.29545 3.33277,0.82056 6.71616,1.44569 10.11323,1.93618 12.28301,1.77351 20.09305,2.03171 32.71678,2.88072 24.13019,0.61414 48.65053,2.91241 72.59422,-1.24934 9.74996,-3.22147 -1.17739,0.19688 -14.78909,8.92589 -0.37893,0.24301 0.0585,0.89841 0.0877,1.34762 0,0 17.63997,-11.66996 17.63997,-11.66996 l 0,0 c 0.6237,0.72803 2.62578,1.59292 1.8711,2.1841 -13.34445,10.45336 -12.08415,9.97639 -20.86323,11.19597 -23.23827,1.89022 -46.56789,-0.8463 -69.81348,-1.20469 -8.14406,-0.37259 -25.95544,-1.08431 -34.46912,-1.85045 -3.79817,-0.3418 -7.60626,-0.71949 -11.34668,-1.4626 -4.61199,-0.91628 -8.38775,-2.00656 -10.1165,-6.48585 -0.006,-0.0645 -0.0297,-1.50279 -0.35137,-1.74912 -1.45009,-1.11037 -6.69943,1.31415 -8.21821,1.48748 -6.26221,1.62842 -12.76655,2.90938 -19.1434,1.07883 -5.333,-2.31246 -8.50316,-5.04456 -9.97431,-10.85818 -2.3408,-7.66341 -0.60992,-0.92696 18.12612,-11.39605 0.17629,-0.0985 -0.38729,0.23214 -0.42654,0.43023 -0.2034,1.02663 0.20629,2.82634 0.72172,3.62872 0.46414,0.72254 1.20622,1.2227 1.80933,1.83405 1.11569,0.41854 2.17488,1.04135 3.34706,1.25562 5.37498,0.98255 11.45471,-0.21474 16.63041,-1.60789 1.64686,-0.44329 6.21729,-2.6477 4.85075,-1.6273 -4.6281,3.45579 -9.85425,6.02833 -14.78138,9.04249 0.46032,-0.22105 1.04047,-0.2826 1.38096,-0.66316 0.64222,-0.71777 -0.0203,-2.38936 -0.0665,-2.98458 -0.10669,-1.37524 0.0833,-2.2949 0.49723,-3.59861 0.19381,-0.61042 0.45916,-1.19577 0.68875,-1.79366 4.74511,-8.21589 0.80181,-2.03336 20.29219,-13.52459 3.00222,-1.77007 6.89991,-1.5985 10.16889,-1.02636 0.83997,0.34209 1.73211,0.5769 2.51993,1.02626 5.16951,2.94865 3.35301,7.60733 1.10236,11.86729 -0.96043,1.379 -4.99627,6.27519 -4.4812,8.15046 0.22781,0.8294 1.48696,1.13458 2.06457,1.37968 1.18205,0.5824 1.661,0.65902 2.51627,1.74561 0.20562,0.26123 0.26797,0.6085 0.40195,0.91275 -0.0237,0.15977 -0.1425,0.33438 -0.0712,0.47931 0.56396,1.14611 2.277,1.33957 3.20293,1.68351 8.19305,1.73474 15.97596,1.77202 24.3237,1.20467 1.70307,-0.11575 6.23119,-1.80273 5.09348,-0.53016 -4.3521,4.868 -10.28024,8.05414 -15.42037,12.08121 -4.30045,-1.29195 -9.37041,-1.25845 -13.77364,-1.49393 -7.90946,-0.42298 -15.81969,-0.41679 -23.73257,-0.7161 -8.06262,-0.54139 -16.0917,-1.34211 -24.14424,-0.0169 -7.88248,0.88201 -15.73757,1.92553 -23.67897,0.93764 -7.07762,-0.50387 -14.5059,-0.79643 -20.77258,-4.49761 -0.62825,-0.44405 -1.30868,-0.82223 -1.88476,-1.33214 -3.10551,-2.74882 -3.18206,-7.32079 -3.54505,-11.11802 -0.24724,-4.42802 -0.32545,-11.1946 -3.59243,-14.62757 -0.55745,-0.58578 -1.30869,-0.95021 -1.96304,-1.42531 -0.90077,-0.25095 -1.77588,-0.62608 -2.70232,-0.75284 -2.36349,-0.32338 -5.46892,0.0111 -7.76619,0.28348 -5.13408,0.60864 -10.2326,1.54629 -15.29146,2.59814 -1.25601,0.38589 -4.76369,2.01509 -3.76804,1.15768 13.49565,-11.62181 11.63578,-13.76051 22.63252,-9.10602 0.72595,0.48701 1.51624,0.88966 2.17786,1.46102 3.36081,2.90232 4.16264,7.58366 3.09404,11.7113 -3.98798,12.93095 -10.75158,12.93365 -24.60833,20.99105 -0.66312,-0.57224 -1.47447,-1.00814 -1.98936,-1.71671 -0.1801,-0.24785 -0.0682,-0.64578 0.0763,-0.91594 0.46638,-0.87207 3.50991,-4.236 4.19716,-4.85387 0.35401,-0.31826 0.83684,-0.45403 1.25526,-0.68105 0.41752,0.37323 1.2714,0.55998 1.25256,1.11969 -0.0157,0.46638 -0.87813,0.31766 -1.30711,0.50132 -0.918,0.39303 -1.82168,0.81868 -2.73246,1.22815 -4.00542,1.80078 -8.02056,3.60906 -12.35146,4.50418 -6.54233,0.71654 -11.97039,0.72715 -15.03392,-5.95416 -0.75211,-3.40878 -0.41312,-6.91036 0.11644,-10.34655 0.88852,-4.3858 2.44858,-8.54498 4.28788,-12.62026 3.29271,-7.32993 12.51584,-32.25773 23.72425,-18.9583 -0.0684,3.85667 -1.18182,7.86145 -2.88365,11.29099 -15.7738,9.80979 -15.40642,12.40594 -28.82988,14.05691 -4.98904,0.68124 -10.01189,1.06442 -15.0194,1.57609 0,0 17.10215,-12.42544 17.10215,-12.42544 z"
       inkscape:connector-curvature="0" />
    <path
       style="fill:#000000;fill-opacity:1;stroke:none;stroke-opacity:1"
       id="path4646"
       d="m 189.51115,523.9371 c 0.60576,4.41672 1.44783,8.78643 1.97638,13.2182 0.50114,4.25873 2.05747,8.20887 4.64292,11.61465 2.91824,2.45738 7.38799,3.23413 11.14036,2.87636 1.17286,-0.11183 2.31091,-0.46054 3.46637,-0.69082 1.28951,-0.5458 2.61641,-1.01056 3.86852,-1.63741 1.53153,-0.76672 5.96635,-3.36703 4.46855,-2.53635 -4.16798,2.31155 -8.21111,4.85807 -12.47923,6.97905 -1.48916,0.74001 2.74699,-1.87488 4.11382,-2.82198 1.11132,-0.77006 2.14741,-1.65728 3.32055,-2.32943 6.62439,-3.79547 13.36982,-7.37567 20.05473,-11.06351 0.59669,0.7455 1.57408,1.30635 1.79007,2.23649 0.87861,3.78369 -3.72022,15.23289 -4.84303,18.58603 -0.36303,1.08414 -5.86799,17.48255 -6.14941,18.3209 -2.39037,7.89745 -5.789,15.53724 -7.7619,23.56736 -0.31619,1.28692 -0.79001,2.61935 -0.5973,3.93046 0.0564,0.38358 1.49613,-0.36932 1.14481,-0.20536 -4.63405,2.1628 -9.35039,4.14471 -14.02559,6.21706 2.32718,-2.46458 4.78153,-4.815 6.98154,-7.39374 2.97434,-3.48638 5.72461,-7.1584 8.52693,-10.78449 13.86627,-17.94247 26.60465,-36.6584 39.32447,-55.4194 10.95067,-16.05135 15.40385,-25.47372 37.00393,-30.24848 1.60164,-0.35405 1.92558,2.7109 2.46083,4.26142 0.7015,2.03214 0.79857,4.22481 1.19785,6.33722 0.81531,7.3388 0.88949,14.72885 1.49845,22.08266 0.20925,2.52689 0.60681,7.23028 1.48123,9.83209 0.35363,1.05219 1.01799,1.97289 1.52699,2.95934 0.70964,0.65446 1.28949,1.48668 2.12892,1.9634 3.7625,2.13674 11.34018,0.72386 15.63357,0.63861 0.80437,0.15827 1.65775,0.15625 2.41311,0.47482 4.22616,1.78239 4.67653,7.56863 5.19465,11.43106 0.28043,1.36925 0.41759,3.12944 1.4465,4.25215 3.05425,3.33268 15.4174,3.66809 19.30668,4.01951 13.33126,0.0188 26.93342,-0.44735 39.96912,-3.49989 10.23863,-4.75604 -18.27693,2.59765 -15.25715,9.17958 0,0 18.40668,-10.49322 18.40668,-10.49322 l 0,0 c 0.30453,0.61085 1.45994,1.42344 0.91359,1.83255 -13.8037,10.33642 -11.93436,9.6675 -20.34293,11.78637 -12.99101,1.88242 -26.17938,2.54049 -39.29547,2.35003 -5.62167,-0.36615 -17.61859,-0.005 -21.73696,-4.89352 -1.2041,-1.42934 -1.35938,-3.19479 -1.72831,-4.91704 -0.28221,-2.56331 -0.3296,-6.49225 -2.4728,-8.3756 -1.04824,-0.92115 -2.18364,-0.82557 -3.48717,-0.99063 -5.29777,0.0784 -11.85499,1.31647 -16.46928,-2.08385 -0.94791,-0.69853 -1.58708,-1.73986 -2.38062,-2.60979 -0.52324,-1.18444 -1.22398,-2.30547 -1.56972,-3.55332 -0.73895,-2.66704 -0.88741,-7.81918 -1.00433,-10.36354 -0.33272,-7.24061 -0.2986,-14.52374 -1.5507,-21.69051 -0.46425,-1.82584 -0.72588,-3.71557 -1.39275,-5.47753 -3.23996,-8.56034 -11.78858,4.63872 12.91949,-12.43445 1.62809,-1.12501 -3.50444,1.92779 -4.9466,3.28296 -4.56361,4.28836 -11.03917,13.66808 -14.38087,18.20028 -17.09589,24.42327 -33.59258,49.30011 -51.75488,72.95319 -7.40307,4.13641 -14.40897,9.08181 -22.20919,12.40923 -0.85296,0.36385 -1.60288,-1.29568 -1.67649,-2.22008 -0.12148,-1.52579 0.68079,-2.98833 1.14567,-4.44665 2.57039,-8.06313 6.06358,-15.8257 8.5336,-23.92572 3.66863,-11.30384 7.61654,-22.61274 9.82524,-34.31362 5.01734,-3.0366 9.98424,-6.15813 15.05202,-9.10978 1.23678,-0.72035 -2.3761,1.59652 -3.55235,2.41198 -1.39853,0.96955 -2.71753,2.05889 -4.17168,2.94284 -7.14306,4.34215 -14.3618,8.55986 -21.60774,12.72805 -1.57403,0.90545 -3.17689,1.77326 -4.84569,2.48915 -1.37941,0.59174 -2.84825,0.94823 -4.27238,1.42235 -5.78263,0.66928 -11.91363,0.66202 -16.24905,-3.8048 -2.6524,-3.77961 -4.55022,-7.98186 -5.05905,-12.61669 -0.45064,-4.34219 -1.205,-8.61832 -2.28807,-12.84872 0,0 18.68055,-9.98748 18.68055,-9.98748 z"
       inkscape:connector-curvature="0" />
    <path
       style="fill:#000000;fill-opacity:1;stroke:none;stroke-opacity:1"
       id="path4652"
       d="m 176.50207,625.73821 c -1.87202,6.55466 -3.20586,13.24857 -4.33018,19.96724 -0.0673,3.17323 -2.11483,9.15672 -0.692,12.13896 0.18183,0.38112 0.5359,0.65273 0.80385,0.97909 0.47951,0.0357 0.95999,0.15406 1.43855,0.1072 1.92951,-0.18894 3.19184,-0.88902 4.94737,-1.80412 1.36082,-0.70936 5.35206,-3.00589 4.0189,-2.24581 -14.94573,8.52112 -14.87459,8.57458 -5.71726,2.95198 5.48116,-3.11961 10.40844,-7.16713 15.81471,-10.39567 6.96877,-4.16164 13.89139,-8.41714 21.06224,-12.22002 1.04727,-0.55539 2.29067,-0.9297 3.46771,-0.78883 0.94591,0.11322 1.62369,0.99693 2.43554,1.4954 0.37385,1.25521 0.98083,2.46351 1.12155,3.76563 0.25256,2.33689 -0.54131,7.7401 -0.85208,9.95523 -0.59309,4.22753 -1.31582,8.43898 -1.98285,12.65535 1.50895,-2.08146 -1.10529,3.38706 -0.065,3.18099 0.31755,-0.0629 0.005,-0.67036 0.15074,-0.95939 0.23279,-0.46153 1.40943,-1.46377 0.95102,-1.2249 -12.61461,6.57323 -21.68243,13.053 -13.85233,7.54915 7.88957,-5.76541 16.17347,-10.16576 25.14281,-14.58819 0.72298,-0.35647 1.6279,-0.15693 2.41825,0.002 1.7344,0.34783 2.35197,1.166 3.59536,2.25545 1.8431,1.48407 1.56856,4.94328 3.85556,5.96215 1.63568,0.72871 4.74825,0.44986 6.22989,0.43864 1.63635,-0.41149 3.29009,-0.75917 4.90906,-1.23448 4.72568,-1.38741 6.37965,-2.13125 10.90282,-4.11699 3.41424,-1.49891 6.60702,-3.2096 10.232,-4.10524 2.96644,0.2186 1.18777,3.69428 2.06556,4.39156 0.97771,0.77666 5.13741,1.50388 5.3975,1.56423 10.13338,1.47605 20.61119,2.00614 30.8037,0.70698 11.35647,-2.15668 22.97873,-2.47279 34.47597,-3.51638 11.37468,-0.91883 22.82041,-0.76294 34.16658,0.40052 4.62915,0.59056 8.90703,2.55595 13.53427,3.15139 2.48359,0.31959 4.52826,0.29109 7.0078,0.33359 1.25665,0.81449 3.40845,-1.03243 4.61796,-0.0151 0.3529,0.29681 0.50541,0.77593 0.81414,1.11847 0.74351,0.82492 1.61683,1.11758 2.61455,1.64178 3.63591,1.64169 1.75524,0.86236 5.64831,2.32274 0,0 -17.0221,11.45253 -17.0221,11.45253 l 0,0 c -4.06335,-1.54174 -2.06124,-0.74932 -6.00752,-2.37423 -4.99498,-2.55662 -0.23192,0.0672 -3.42981,-2.08607 -0.11243,-0.0757 -0.25282,0.12534 -0.38828,0.12074 -1.16279,-0.0395 -2.32171,-0.16686 -3.48465,-0.19967 -3.61966,-0.24441 -7.21001,-0.48188 -10.75619,-1.31117 -3.49548,-0.81743 -2.20461,-0.79297 -5.59162,-1.75046 -1.23761,-0.34986 -2.49893,-0.60964 -3.7484,-0.91447 -11.45165,-1.39849 -22.51056,-0.72666 -33.97669,-0.0887 -11.76495,0.60594 -23.52019,1.55586 -35.0691,3.99245 -3.61263,0.16435 -7.17813,-0.01 -10.79403,-0.14977 -2.40225,-0.0929 -11.70937,-0.4603 -13.75603,-0.62164 -2.09754,-0.16534 -4.18117,-0.47528 -6.27175,-0.71292 -2.91505,-0.67632 -4.99452,-0.58589 -7.11016,-2.72953 -0.78328,-0.79366 -1.15665,-2.63434 -0.80154,-2.81112 0.27818,-0.13849 1.393,0.82831 0.48772,0.79448 -8.72758,2.51991 -16.6034,7.90768 -25.88798,8.61821 -3.12414,-0.15209 -4.90552,0.21664 -7.59735,-1.40578 -2.17424,-1.31046 -2.27569,-3.94781 -3.80553,-5.71993 -1.01184,-0.69105 -1.24034,-1.07271 -2.58635,-1.01759 -0.65769,0.0269 -2.4844,0.75774 -1.93469,0.39565 27.67081,-18.22628 16.44505,-9.85234 10.33514,-5.80772 -7.66694,5.74408 -5.72179,4.40546 -21.7637,13.14908 -1.39756,0.76174 -2.6652,0.24944 -3.36769,-1.07589 -0.524,-0.98859 0.18597,-3.35591 0.32594,-4.07496 1.46467,-6.43706 3.51813,-15.20584 3.15146,-21.72406 -0.0413,-0.73489 -0.32037,-1.43681 -0.48055,-2.15522 -0.42167,-0.14334 -0.82318,-0.48598 -1.26502,-0.43002 -3.51225,0.44482 -24.45919,11.99944 10.18111,-6.71021 1.70639,-0.92164 -3.21939,2.16347 -4.83806,3.2317 -0.33499,0.22108 -11.13392,7.26675 -11.26725,7.35375 -11.55369,7.22556 -9.61655,6.09352 -28.08477,16.66103 -2.91642,1.66877 -7.01069,4.1534 -10.62475,3.18467 -0.79137,-0.21212 -1.45201,-0.75941 -2.17801,-1.13912 -0.38542,-0.56388 -0.87284,-1.07021 -1.15626,-1.69165 -1.84354,-4.04215 0.57615,-9.06556 0.78418,-13.17488 1.1772,-6.55421 2.46492,-13.08855 3.56747,-19.65527 0,0 19.06019,-9.2424 19.06019,-9.2424 z"
       inkscape:connector-curvature="0" />
    <path
       style="fill:#000000;fill-opacity:1;stroke:none;stroke-opacity:1"
       id="path4654"
       d="m 166.46582,811.60308 c -2.29603,11.59916 -1.03148,9.48684 -20.44865,15.95977 -0.9995,0.33319 0.27455,-2.08919 0.41183,-3.13379 3.78183,-12.81254 6.4165,-25.93324 10.32011,-38.70961 4.2306,-8.87262 2.77565,-7.28339 20.66457,-13.73854 1.1683,-0.42158 1.52007,1.98044 2.0949,3.08145 1.76847,3.38729 2.71314,7.45935 3.98782,11.05342 1.07731,2.13382 2.09381,5.83214 5.10997,6.03757 0.77949,0.0531 1.57087,-0.18931 2.29221,-0.48946 0.87592,-0.36446 3.27247,-1.9189 2.43311,-1.47671 -4.88829,2.57523 -9.72247,5.25189 -14.58371,7.87783 7.66518,-6.83672 18.5349,-24.61787 29.89933,-20.86148 2.62227,3.48553 2.52893,3.99111 6.95391,5.20363 3.03952,0.76336 6.98622,0.30574 9.11112,3.07934 0.47785,0.62373 0.7575,1.37685 1.13625,2.06528 1.79665,4.45517 1.39569,9.34708 2.55245,13.93847 0.95625,2.11615 2.26196,1.94167 4.22199,1.37924 3.3358,-0.95722 -0.21589,0.0439 3.2185,-0.91859 2.55303,-0.56423 4.77692,0.49101 7.18443,1.08148 2.52427,0.6191 2.15534,0.46423 4.95444,0.65802 1.1174,-0.17361 2.25683,-0.23991 3.35219,-0.52082 7.96309,-2.04219 16.59689,-7.7782 23.80115,-11.82182 2.10552,-0.74218 5.00253,-2.74797 7.19278,-0.95324 1.25002,1.02429 1.39043,2.74262 2.21344,4.04214 3.69694,2.07218 8.92328,-0.11886 12.53809,-1.51799 4.75052,-2.80541 9.3992,-4.08962 14.83291,-4.67572 6.154,-0.43775 12.32707,-0.51433 18.49407,-0.59368 3.93393,0.12592 7.92057,-0.34235 11.82361,0.23069 3.45617,0.58145 5.42613,3.42582 8.11068,5.31359 0.73347,0.51578 1.52282,0.94711 2.28423,1.42066 8.62616,3.67849 18.258,3.83568 27.48586,4.18467 0,0 -15.60752,11.25557 -15.60752,11.25557 l 0,0 c -9.79049,-0.32193 -20.08098,-0.24728 -29.20894,-4.25065 -0.84987,-0.51442 -1.72621,-0.98745 -2.54961,-1.54325 -2.4771,-1.67208 -4.38353,-4.05276 -7.5972,-4.24261 -3.82899,-0.23425 -7.6709,-0.0927 -11.5048,-0.17787 -6.08189,-0.0265 -12.18618,-0.0208 -18.23028,0.7442 -5.17611,0.88924 -9.87663,2.75254 -14.60503,5.01519 -4.69512,1.47737 -10.35571,3.20744 -14.40652,-0.56898 -0.33083,-0.50621 -0.73034,-0.97367 -0.99249,-1.51862 -0.11869,-0.24672 -0.005,-1.09352 -0.48642,-1.25063 -1.66178,-0.54214 -4.09223,1.42157 -5.42042,1.70641 -7.49949,4.14249 -16.08869,9.77366 -24.54936,11.39466 -1.22982,0.23563 -2.49638,0.20005 -3.74458,0.30007 -1.0127,-0.0999 -2.03096,-0.15417 -3.0381,-0.29983 -3.03651,-0.43919 -5.87212,-1.72801 -8.95518,-0.68177 -4.16785,0.9687 -7.14671,1.16242 -9.18776,-3.26623 -1.05511,-4.44386 -0.64692,-9.11458 -2.25911,-13.43954 -0.27173,-0.4565 -0.46084,-0.97368 -0.81518,-1.3695 -1.79666,-2.00699 -6.23012,-1.38724 -8.57251,-2.45684 -1.9856,-0.67621 -3.81383,-1.27815 -5.33106,-2.80123 -0.53308,-0.53514 -0.82648,-1.2794 -1.36605,-1.808 -0.0508,-0.0497 -0.14093,0.0186 -0.21139,0.0279 -5.98426,4.05819 4.2828,-2.91924 15.92018,-9.46217 0.7412,-0.41673 -1.3349,1.05968 -1.93586,1.66126 -2.75758,2.76043 -4.955,6.04211 -7.78641,8.73717 -6.82823,4.15412 -13.53686,8.51153 -20.48468,12.46237 -1.71992,0.97803 -4.0868,1.2133 -5.95034,0.5041 -3.15985,-1.20254 -4.30655,-4.7515 -5.53418,-7.51415 -0.44069,-1.26385 -2.09481,-6.05965 -2.59969,-7.29918 -0.41642,-1.02236 -0.81413,-2.06329 -1.38442,-3.00849 -0.24599,-0.40769 -1.41239,-0.709 -1.02875,-0.99104 5.1354,-3.77545 10.55038,-7.20714 16.19831,-10.16134 1.04758,-0.54795 -1.43721,1.87753 -2.15581,2.8163 -0.70589,1.77569 -1.51876,3.51251 -2.11767,5.32708 -3.5109,10.63735 -5.30397,21.79122 -7.52125,32.73812 -2.70551,8.3106 -0.29657,2.20582 -19.20574,11.71997 -0.33706,0.16959 0.46107,-0.61186 0.58824,-0.9671 0.59067,-1.65006 0.79382,-3.51779 1.0063,-5.24416 0,0 18.98769,-9.28299 18.98769,-9.28299 z"
       inkscape:connector-curvature="0" />
    <path
       style="fill:#000000;fill-opacity:1;stroke:none;stroke-opacity:1"
       id="path4656"
       d="m 661.45413,402.09073 c 6.45416,-1.56958 12.78579,1.89502 19.18157,1.82835 1.67522,-0.0175 3.31181,-0.50856 4.96771,-0.76284 1.76463,-0.76961 3.60335,-1.3878 5.29389,-2.30884 1.83648,-1.00054 7.1056,-4.39985 5.24983,-3.43555 -10.03106,5.21236 -19.47551,11.58435 -29.79851,16.19157 -2.01063,0.89735 3.09286,-3.14733 4.45222,-4.87937 2.63209,-3.35368 4.61039,-6.98097 6.74854,-10.63664 9.27944,-14.68026 5.04533,-9.01482 39.57069,-24.53781 1.31749,-0.59236 1.92046,2.17557 2.68739,3.3997 2.30701,3.68232 3.59843,8.3495 5.30143,12.32693 4.10333,9.27592 9.95766,11.29457 19.3673,12.97655 8.33304,1.51707 16.15906,-2.08322 24.33948,-3.11675 10.56373,-1.02284 21.19378,-0.57526 31.7629,-1.53474 5.73833,-0.52093 11.44848,-1.3234 17.18508,-1.86299 10.13547,-0.44532 20.23052,-0.11356 30.14317,2.03837 6.64938,2.48793 13.51875,3.9196 20.55871,4.63622 1.15187,0.0786 2.30374,0.1571 3.4556,0.23565 0,0 -34.08385,24.3175 -34.08385,24.3175 l 0,0 c -1.17429,-0.12236 -2.34859,-0.24472 -3.52288,-0.36707 -7.09834,-1.00003 -13.91273,-2.9247 -20.78812,-4.9152 -9.32332,-1.89008 -18.89377,-2.18035 -28.38219,-1.8004 -16.50199,1.3842 -33.05665,2.24674 -49.496,4.18853 -8.43377,1.71273 -16.68104,4.22699 -25.31131,1.89809 -10.35606,-2.57006 -16.96149,-6.12865 -21.37199,-16.33158 -0.15783,-0.34283 -3.51256,-7.6499 -3.84138,-8.29291 -6.60655,-12.91916 -26.80265,10.98753 32.77153,-22.69061 1.1083,-0.62653 -1.77484,1.82578 -2.66226,2.73867 -2.38488,3.85145 -7.61952,14.53688 -10.93679,16.82513 -12.96171,8.94099 -26.61643,16.83611 -40.06824,25.02122 -1.84839,1.1247 -3.78678,2.12742 -5.80989,2.89455 -1.95634,0.74181 -4.04469,1.07264 -6.06704,1.60896 -1.88158,0.0424 -3.76477,0.21569 -5.64475,0.12717 -6.37798,-0.30031 -12.70099,-2.41929 -19.02819,-0.20627 0,0 33.77635,-25.57359 33.77635,-25.57359 z"
       inkscape:connector-curvature="0" />
    <path
       style="fill:#000000;fill-opacity:1;stroke:none;stroke-opacity:1"
       id="path4658"
       d="m 649.36099,475.57074 c 3.75106,-1.63912 9.01496,-7.07392 13.46602,-5.16737 1.00725,0.43144 1.72044,1.35752 2.58065,2.03628 2.89625,1.43351 3.28029,12.92572 5.36325,13.50093 0.45283,0.12504 0.86712,-0.36174 1.30067,-0.5426 8.11097,-2.05628 16.22331,-4.1715 24.23194,-6.6281 0,0 -32.9005,25.37792 -32.9005,25.37792 l 0,0 c -8.51054,2.41704 -17.32795,5.78508 -26.26255,4.98288 -0.97444,-0.64032 -2.09925,-1.09606 -2.92332,-1.92096 -3.08305,-3.08616 -1.30695,-8.53227 -4.22037,-11.69399 -5.00827,-0.005 -9.19525,4.99834 -13.76653,6.55648 0,0 33.13074,-26.50147 33.13074,-26.50147 z"
       inkscape:connector-curvature="0" />
    <path
       style="fill:#000000;fill-opacity:1;stroke:none;stroke-opacity:1"
       id="path4670"
       d="m 610.06768,720.03367 c 0.74851,10.2545 2.31,20.42404 3.84162,30.58438 1.90796,12.56169 2.80868,25.2431 3.40686,37.92527 0.27639,7.4176 0.49264,14.83723 0.59828,22.25927 0.0516,4.28592 0.0478,8.57222 0.0457,12.85837 -0.003,4.0029 -0.006,8.00581 -0.007,12.00871 0.3138,4.85184 -0.6184,9.56134 -1.72877,14.25184 -1.48515,7.33453 1.41082,6.34208 7.57499,6.78921 11.97699,-0.3246 23.8536,-2.04836 35.74148,-3.41351 14.59803,-2.02753 29.15478,-4.3499 43.7485,-6.41902 13.19671,-1.83699 26.43127,-3.1278 39.73767,-3.78074 11.2142,-0.44033 22.43543,-0.67414 33.6562,-0.86919 6.07925,-0.0893 12.15944,-0.0539 18.23925,-0.0791 4.467,-0.0216 8.93404,-0.0327 13.40109,-0.0384 5.92614,6.1e-4 11.8511,0.13224 17.77702,0.17349 8.12581,0.0773 16.25117,0.007 24.37655,-0.0767 5.36808,-0.0122 10.73602,-0.0556 16.10405,-0.0794 5.00051,-5.2e-4 10.00118,0.0208 15.00167,0.0478 2.70748,-0.10789 5.45477,0.29135 8.12299,-0.37143 0.73041,-0.18144 2.76737,-1.16625 2.11428,-0.79224 -25.62715,14.67619 -30.55319,19.73628 -22.82148,12.13742 2.75322,-7.94186 1.2877,-16.94848 0.53679,-25.16246 -1.22018,-10.02016 -2.16661,-20.06905 -2.70369,-30.14894 -0.36675,-8.19361 -0.37437,-16.3972 -0.38638,-24.59724 0.0315,-7.45509 3.8e-4,-14.90933 -0.0944,-22.3638 0.1505,-5.26452 0.72906,-10.19647 -1.27767,-15.17271 -2.45506,-4.98009 -7.57082,-7.16953 -12.47357,-9.09552 -6.69773,-2.58409 -13.6304,-4.53969 -20.60668,-6.22172 -8.81273,-2.05864 -17.79954,-2.93887 -26.73833,-4.19942 -8.04285,-1.28843 -16.16555,-1.7923 -24.29486,-2.0914 -8.78051,-0.20979 -17.5648,-0.21367 -26.34738,-0.20481 -9.4669,0.0302 -18.93377,-0.0257 -28.40066,-0.0221 -10.88582,-0.0372 -21.7716,-0.0376 -32.65744,-0.0381 -10.29035,-0.0134 -20.58059,0.032 -30.87075,0.0854 -7.23713,-0.0292 -14.42544,-0.0462 -21.61563,0.79577 -7.61248,1.40823 -15.05871,3.61115 -22.50148,5.72514 -6.80242,1.48403 -13.55905,3.14927 -20.36181,4.62789 -4.80096,0.96049 -9.54558,2.16027 -14.26308,3.48214 -3.8658,1.1063 -7.88067,1.33331 -11.87112,1.56232 0,0 23.83865,-17.58426 23.83865,-17.58426 l 0,0 c 3.89718,-0.34183 7.7673,-0.87601 11.52094,-2.02788 4.72064,-1.27891 9.50467,-2.33378 14.29552,-3.31194 6.65441,-1.48181 13.36252,-2.73249 19.94217,-4.52627 7.57437,-2.13746 15.1782,-4.37312 22.98869,-5.45317 7.16205,-0.61881 14.33226,-0.43461 21.51493,-0.35458 10.21168,0.0539 20.42346,0.0993 30.63535,0.0855 10.9245,-10e-4 21.84892,-0.002 32.77337,-0.0477 9.50729,-0.005 19.01447,-0.0787 28.52179,-0.0642 8.82899,0.009 17.66001,-0.0368 26.486,0.23842 8.16203,0.309 16.29522,1.01828 24.35281,2.40042 9.06367,1.19207 18.13029,2.31489 27.05742,4.35174 7.12597,1.78727 14.24566,3.68906 21.06707,6.45044 5.57509,2.44146 11.0369,5.24005 13.82532,10.97609 2.47846,5.82213 2.17018,10.10736 1.67956,16.27822 -0.10751,7.49119 -0.16195,14.98232 -0.13409,22.47439 0.002,8.17833 -0.006,16.35836 0.23088,24.53407 0.36082,10.07965 1.03159,20.14252 2.33553,30.14953 1.00241,8.69958 2.20303,17.59696 1.13186,26.33277 -4.77086,15.26893 -24.47952,18.9006 -38.4191,18.50511 -5.04438,0.0268 -10.08893,0.0482 -15.13334,0.0478 -5.29515,-0.0238 -10.59021,-0.0675 -15.88542,-0.0794 -8.05513,-0.0856 -16.11022,-0.15344 -24.1658,-0.0764 -6.08515,0.0417 -12.16941,0.17236 -18.25477,0.17257 -4.4237,-0.008 -8.84739,-0.0238 -13.27094,-0.0618 -5.98058,-0.047 -11.96129,-0.0496 -17.94166,-0.115 -10.96495,-0.10242 -21.93556,-0.0777 -32.88971,0.48768 -13.27132,0.79549 -26.47139,2.20093 -39.64319,4.01183 -14.54291,2.0265 -29.06429,4.18988 -43.6031,6.23774 -12.27836,1.52722 -24.5856,3.54869 -36.98347,3.54799 -7.40303,-0.89061 -11.71433,-2.62938 -10.34257,-10.98191 1.07852,-4.45625 2.19811,-8.90843 1.85527,-13.53784 -7.8e-4,-4.00417 -0.003,-8.00834 0.004,-12.0125 0.0118,-4.31378 0.0358,-8.62761 0.11523,-12.94077 0.13138,-7.50504 0.30025,-15.012 0.14256,-22.51816 -0.28779,-12.64431 -0.91368,-25.29811 -2.88586,-37.80944 -1.61645,-9.96703 -3.37994,-19.91174 -5.16951,-29.8479 0,0 26.40447,-14.00774 26.40447,-14.00774 z"
       inkscape:connector-curvature="0" />
    <path
       style="fill:#000000;fill-opacity:1;stroke:none;stroke-opacity:1"
       id="path4672"
       d="m 678.66313,738.17698 c -0.4353,7.84597 -0.43007,15.71252 -0.45482,23.56881 -0.1729,8.51927 -1.07302,16.97624 -2.28044,25.40133 -0.96622,5.91347 -2.84546,11.60945 -4.15572,17.44469 -0.96097,3.67168 -1.96204,7.31957 -2.61585,11.06067 0,0 -26.67968,13.06739 -26.67968,13.06739 l 0,0 c 0.55549,-3.83879 1.41476,-7.60681 2.67278,-11.28236 1.26476,-5.84944 3.19243,-11.51715 4.41292,-17.37838 1.46738,-8.33849 2.67281,-16.68667 2.85768,-25.17354 -0.0243,-7.70159 -0.0111,-15.41472 -0.45481,-23.10532 0,0 26.69794,-13.60329 26.69794,-13.60329 z"
       inkscape:connector-curvature="0" />
    <path
       style="fill:#000000;fill-opacity:1;stroke:none;stroke-opacity:1"
       id="path4674"
       d="m 646.3833,791.11426 c 8.36793,-0.69333 16.76015,-0.88659 25.15095,-1.0657 11.30328,0.23631 22.53003,-0.72478 33.72944,-2.12679 11.3351,-1.30102 22.64005,-2.90514 33.91116,-4.67829 12.93327,-1.99052 25.99915,-2.73598 39.06208,-3.17499 9.42494,-0.2551 18.85246,-0.41959 28.28017,-0.53063 4.69011,-0.0519 9.38053,-0.0601 14.07088,-0.063 5.31212,0.062 10.62448,0.0823 15.93692,0.0666 3.49093,-0.0154 1.76951,-0.007 5.16427,-0.0237 0,0 -23.948,17.39923 -23.948,17.39923 l 0,0 c -3.35108,-0.0163 -1.65138,-0.008 -5.09913,-0.0239 -5.36999,-0.0168 -10.73986,0.005 -16.10966,0.0528 -4.60059,-0.0191 -9.20103,-0.0587 -13.80117,-0.12744 -9.16759,-0.11706 -18.33783,-0.19575 -27.50357,0.092 -13.0115,0.48378 -26.02559,1.30185 -38.88303,3.4669 -11.35697,1.76132 -22.72343,3.50689 -34.15365,4.7268 -11.27132,1.25714 -22.57203,1.97071 -33.91937,1.93904 -8.60922,0.2671 -17.27935,0.51798 -25.77638,2.03698 0,0 23.88809,-17.96585 23.88809,-17.96585 z"
       inkscape:connector-curvature="0" />
    <path
       style="fill:#000000;fill-opacity:1;stroke:none;stroke-opacity:1"
       id="path4676"
       d="m 742.93876,734.03424 c 4.64755,-1.27401 9.11132,-3.01559 13.82551,-4.06013 4.79391,-0.86285 9.69309,-0.92625 14.55138,-1.00632 4.95372,-0.17415 9.60085,1.90536 14.37669,2.97963 4.94068,1.81881 9.85123,3.70545 14.92238,5.14701 7.36023,1.84862 15.01063,1.92871 22.55388,2.12362 6.05034,-0.0858 12.15097,0.42113 18.16175,-0.38579 0,0 -23.71927,17.54551 -23.71927,17.54551 l 0,0 c -5.97771,0.23211 -11.9591,-0.093 -17.93795,-0.18667 -7.82881,-0.22336 -15.79903,-0.23771 -23.37682,-2.46186 -5.04812,-1.50845 -9.94796,-3.42656 -14.99169,-4.93516 -4.59054,-1.19413 -9.11572,-2.81851 -13.9429,-2.34316 -4.74141,0.12827 -9.51756,0.31393 -14.13409,1.50966 -4.67966,1.27921 -9.2872,2.86389 -13.82192,4.57914 0,0 23.53305,-18.50548 23.53305,-18.50548 z"
       inkscape:connector-curvature="0" />
    <path
       style="fill:#000000;fill-opacity:1;stroke:none;stroke-opacity:1"
       id="path4678"
       d="m 744.93023,740.93974 c -3.77173,6.15635 -8.78863,11.31604 -13.88691,16.36368 -0.96385,0.93659 -1.92769,1.87318 -2.89154,2.80977 0,0 -26.96484,11.10916 -26.96484,11.10916 l 0,0 c 0.97924,-0.93395 1.95849,-1.8679 2.93773,-2.80185 4.8977,-4.74364 9.95697,-9.44014 13.46357,-15.36239 0,0 27.34199,-12.11837 27.34199,-12.11837 z"
       inkscape:connector-curvature="0" />
    <path
       style="fill:#000000;fill-opacity:1;stroke:none;stroke-opacity:1"
       id="path4680"
       d="m 707.77672,474.68589 c 10.04288,-1.12431 19.83005,-3.64685 29.81221,-5.21216 9.889,-3.66566 20.24477,-2.86612 30.57232,-2.4646 6.71419,0.2664 13.43169,0.42265 20.14974,0.5472 0,0 -48.04041,34.72318 -48.04041,34.72318 l 0,0 c -6.67612,-0.20499 -13.35058,-0.45889 -20.02737,-0.64147 -10.16954,-0.12145 -20.03854,0.54247 -29.88302,3.35336 -10.14747,1.78742 -20.22488,3.96471 -30.35045,5.86101 0,0 47.76698,-36.16652 47.76698,-36.16652 z"
       inkscape:connector-curvature="0" />
    <path
       style="fill:#cccccc;fill-opacity:1;stroke:none;stroke-opacity:1"
       d="m 524.247,968.84929 c -2.66635,-10.6236 -3.64477,-144.94135 -2.17427,-298.48389 l 2.67365,-279.16826 24.24366,-25.76022 c 42.1464,-44.78287 66.21809,-50.65886 222.96437,-54.42644 120.33895,-2.89248 146.07022,-1.39068 167.68532,9.78692 22.05019,11.4026 25.53316,17.51275 25.53316,44.79275 0,17.37397 -5.71256,58.19176 -12.69457,90.7062 -7.95045,37.0243 -15.37183,134.61865 -19.85848,261.14767 -3.94015,111.11678 -7.31713,205.66706 -7.5044,210.11173 -0.20979,4.97892 -28.10683,7.00279 -72.66915,5.27202 -109.99812,-4.27226 -231.04789,11.05536 -277.93807,35.19321 -21.52237,11.07916 -40.54497,20.14393 -42.27245,20.14393 -1.72747,0 -5.32242,-8.69204 -7.98877,-19.31562 z M 883.17122,857.60425 c 18.53031,-6.87259 18.86909,-8.74349 13.32856,-73.60603 -3.12677,-36.60481 -8.64428,-69.69773 -12.26113,-73.53981 -14.8058,-15.7278 -146.4585,-24.37476 -216.63353,-14.2285 -75.64154,10.93664 -101.76481,23.08133 -89.92068,41.80407 4.08298,6.45421 7.47928,39.63705 7.54734,73.73965 l 0.12375,62.00472 139.40105,-4.56114 c 76.67058,-2.50863 147.95717,-7.73446 158.41464,-11.61296 z M 768.00524,488.71503 c 10.3801,-7.53919 18.98717,-16.43503 19.12685,-19.76853 0.36616,-8.7384 -39.15132,-7.37071 -75.04854,2.59741 -21.84454,6.06591 -33.90128,6.04067 -41.28398,-0.0865 -12.62023,-10.47386 -56.37562,20.0273 -48.05155,33.49593 8.04126,13.01104 122.6218,0.20203 145.25722,-16.23837 z m -93.71545,-66.2574 c 8.6183,-4.61237 17.05092,-5.01233 19.57491,-0.92843 6.94459,11.23659 156.42311,4.37999 171.16075,-7.85116 11.26449,-9.34871 10.58657,-11.29177 -6.09232,-17.46169 -10.32197,-3.81835 -41.73638,-4.48266 -69.80981,-1.47626 -44.33872,4.74828 -52.5071,3.4794 -62.19328,-9.66117 -10.79526,-14.64517 -12.34635,-14.48337 -48.65978,5.07568 -47.77519,25.73256 -61.14078,40.4061 -36.80442,40.4061 9.72577,0 24.49654,-3.64638 32.82395,-8.10307 z"
       id="path4684"
       inkscape:connector-curvature="0" />
    <path
       style="fill:#cccccc;fill-opacity:1;stroke:none;stroke-opacity:1"
       d="M 434.80003,967.19276 C 376.89618,939.78341 309.88418,928.9693 231.31677,934.35549 c -48.36664,3.31577 -74.93303,9.41066 -94.95434,21.78451 l -27.7989,17.18066 0,-79.17991 c 0,-43.54895 -4.08868,-129.39617 -9.085967,-190.77159 -9.247135,-113.57108 -1.052732,-271.77682 17.570417,-339.2243 12.74886,-46.17259 45.44866,-57.09759 160.13733,-53.50188 85.3389,2.67554 98.99034,5.29387 147.88364,28.36385 29.62617,13.97891 56.90029,32.11494 60.60916,40.30229 8.01783,17.69942 4.30366,609.15925 -3.81919,608.18223 -3.07992,-0.37044 -24.25643,-9.50482 -47.05889,-20.29859 z M 177.73855,809.84253 c 14.0948,-15.57459 15.7917,-15.76767 25.22267,-2.87005 8.9117,12.18748 15.4572,12.75428 55.17494,4.77782 24.78506,-4.97756 60.79413,-6.894 80.02016,-4.25878 20.97707,2.87522 37.06095,1.3861 40.21896,-3.72368 10.78003,-17.44246 -78.44234,-20.9472 -130.4107,-5.12266 -13.6412,4.15379 -18.18275,2.2736 -18.18275,-7.52765 0,-7.1854 -2.72741,-13.46302 -6.06091,-13.95027 -56.41873,-8.24671 -68.40427,-3.38338 -76.86815,31.19049 -5.68391,23.21804 10.5128,23.99667 30.88578,1.48478 z M 415.24584,673.74972 c 2.0001,-0.41384 0.0234,-4.36529 -4.39207,-8.78103 -4.41575,-4.41575 -48.78165,-8.35061 -98.59089,-8.74415 -75.45821,-0.59618 -90.56227,-2.77084 -90.56227,-13.03902 0,-7.74684 -4.50176,-10.50183 -12.12183,-7.4183 -6.667,2.69787 -17.61789,7.12838 -24.33531,9.84559 -8.79244,3.55656 -10.81383,1.29298 -7.21662,-8.08122 5.86409,-15.28155 -5.45826,-17.22563 -19.35975,-3.32414 -12.01347,12.01347 -12.76242,38.78986 -1.08498,38.78986 4.73687,0 15.64652,-3.7645 24.24366,-8.36555 11.84992,-6.34188 15.63117,-5.73831 15.63117,2.49507 0,8.63457 21.94681,10.50344 107.07617,9.11796 58.8919,-0.95846 108.71262,-2.08125 110.71272,-2.49507 z M 217.91753,610.24411 c 4.58631,-3.26545 20.04164,-22.10891 34.34518,-41.87438 14.30355,-19.76546 26.00645,-30.44986 26.00645,-23.7431 0,6.70676 11.31663,20.56087 25.14808,30.78689 19.41896,14.35706 31.687,17.53167 53.85078,13.93498 41.10566,-6.67054 52.92028,-21.40705 17.16253,-21.40705 -44.24548,0 -71.78044,-16.25795 -71.85468,-42.42641 -0.0857,-30.19101 -18.16959,-28.52405 -43.83444,4.04061 -11.38453,14.44518 -20.73948,21.47322 -20.78876,15.61786 -0.0598,-7.08441 -5.69536,-8.8669 -16.84553,-5.32797 -10.81019,3.43101 -20.12979,0.81018 -26.26397,-7.38587 -6.10529,-8.15747 -13.4218,-10.23363 -20.44392,-5.80127 -14.12437,8.9153 1.51223,41.28305 19.94352,41.28305 9.66202,0 11.2774,5.47359 7.15479,24.24366 -5.24578,23.88392 0.0533,29.712 16.41997,18.059 z M 435.80742,430.63438 c 3.05035,-4.93558 -7.11166,-8.19001 -25.7415,-8.24384 -55.0347,-0.15902 -90.54538,-8.87315 -85.86473,-21.07075 4.42107,-11.52113 -22.0044,-16.23664 -32.4504,-5.79064 -2.95601,2.956 -14.47174,6.34447 -25.59053,7.52992 -13.77543,1.4687 -20.21598,-1.82306 -20.21598,-10.33237 0,-9.25575 -6.22355,-11.57433 -24.04642,-8.95849 -13.22552,1.9411 -25.23022,-0.0221 -26.67709,-4.36275 -1.44687,-4.34062 -12.94185,-1.13588 -25.54442,7.12163 -12.60256,8.25752 -18.78061,16.39138 -13.72901,18.07524 5.0516,1.68387 9.18473,8.21336 9.18473,14.50997 0,13.15903 36.70935,15.8865 44.48503,3.30519 3.14975,-5.09641 9.34741,-3.82857 16.56457,3.38858 13.92127,13.92128 201.33807,18.23805 209.62575,4.82831 z"
       id="path4686"
       inkscape:connector-curvature="0" />
    <path
       style="fill:#cccccc;fill-opacity:1;stroke:none;stroke-opacity:1"
       d="m 344.35268,974.65883 c -23.66532,-4.27491 -61.19649,-6.24584 -120.69575,-6.33827 -110.13845,-0.17111 -101.78293,-7.50447 11.26424,-9.88625 80.35578,-1.693 111.64716,2.02722 147.2142,17.50225 16.38139,7.12746 6.98892,6.80982 -37.78269,-1.27773 z"
       id="path4688"
       inkscape:connector-curvature="0" />
    <path
       style="fill:#cccccc;fill-opacity:1;stroke:none;stroke-opacity:1"
       d=""
       id="path4690"
       inkscape:connector-curvature="0"
       transform="translate(0,-10.629921)" />
    <path
       style="fill:#cccccc;fill-opacity:1;stroke:none;stroke-opacity:1"
       d="m 364.55573,1015.467 c -15.32147,-2.4077 -124.26703,-18.08743 -149.50258,-21.51677 -18.86625,-2.56379 -15.34998,-3.10003 23.27701,-3.54979 47.52588,-0.55338 109.54064,7.4372 141.71959,18.26056 10.36814,3.4872 19.60878,7.05 20.53475,7.9172 2.00061,1.8736 -21.68316,1.1431 -36.02877,-1.1112 z"
       id="path4694"
       inkscape:connector-curvature="0" />
    <path
       style="fill:#cccccc;fill-opacity:1;stroke:none;stroke-opacity:1"
       d="m 541.63273,1002.5453 c 5.31886,-5.90011 11.41595,-11.18296 20.30253,-17.59122 8.33307,-6.00911 28.79803,-13.31781 47.50385,-16.96515 25.78129,-5.02694 62.63077,-10.18018 84.99615,-11.88634 15.58204,-1.18869 167.69067,-1.75457 183.50572,-0.68269 12.72652,0.86256 20.6324,2.35139 30.06571,5.66197 l 6.07143,2.13074 -35.71428,0.0544 c -36.05374,0.0549 -43.26607,0.39369 -61.42858,2.88567 -20.78738,2.85213 -25.56482,3.01391 -86.42857,2.92664 -34.58848,-0.0496 -62.90561,0.21595 -67.97528,0.63743 -4.95124,0.41164 -14.32363,1.97577 -21.78571,3.63575 -7.39471,1.645 -17.46096,3.3285 -23.12206,3.86698 -8.28688,0.78825 -12.43736,1.65307 -23.92857,4.98595 -20.37482,5.90946 -24.5724,7.75963 -47.31953,20.85717 -5.02213,2.8917 -9.31511,5.2576 -9.53996,5.2576 -0.22485,0 1.93387,-2.5987 4.79715,-5.7749 z"
       id="path4698"
       inkscape:connector-curvature="0" />
    <path
       style="fill:#000000;fill-opacity:1;stroke:none;stroke-opacity:1"
       d="m 413.51402,3.1027886 c -1.64749,0.2592399 -5.95978,4.5459841 -15.96256,10.8873684 -15.50563,5.712393 -17.44897,2.385154 -17.06188,9.54401 -0.0132,0.0065 -0.0238,0.01317 -0.037,0.01972 -0.11608,0.05749 -0.0276,0.196611 0.0616,0.342618 0.0526,0.871615 0.11147,1.772914 0.20459,2.975108 -0.005,0.835219 -0.0186,1.669201 -0.0345,2.504317 -0.0228,1.200199 -0.0576,2.401113 -0.0863,3.601188 -0.40539,10.98783 -1.28604,21.954233 -2.93073,32.832183 -1.78969,12.834575 -3.28835,25.850824 -7.50802,38.168649 -3.52578,8.43195 -7.71319,16.67652 -14.47377,23.01704 l 30.8874,-12.79272 c 2.47161,18.22424 4.52967,36.49981 7.34533,54.67593 2.22891,15.39834 4.02691,30.85712 5.83929,46.31014 0.74205,6.1237 1.13017,12.27678 1.30886,18.43976 l 33.266,-17.1457 c -0.39333,-6.16498 -1.09003,-12.30157 -2.14938,-18.39047 -2.50364,-15.23235 -4.52041,-30.52654 -6.94849,-45.77032 -2.84772,-19.0432 -4.90007,-38.18561 -7.33548,-57.283782 -1.67525,-15.983418 -2.38155,-32.047899 -2.89623,-48.107033 -0.56739,-12.210982 -1.59361,-24.444497 -0.8627,-36.669998 0.10728,-1.5000733 0.17717,-2.5457403 0.23169,-3.5518903 0.10247,-0.213683 0.18577,-0.397764 0.0518,-0.327829 -0.0111,0.0058 -0.0209,0.01145 -0.0321,0.01725 0.11298,-2.3258189 -0.0168,-3.4309831 -0.87749,-3.2955421 z"
       id="path4721"
       inkscape:connector-curvature="0" />
    <path
       style="fill:#000000;fill-opacity:1;stroke:none;stroke-opacity:1"
       id="path4723"
       d="m 391.05359,213.81115 c 6.23616,-0.96698 12.53089,-1.34021 18.83087,-1.55137 6.55409,-0.21394 13.11154,-0.27662 19.66862,-0.30676 5.28962,0.21238 10.40006,0.0297 15.58038,-0.97847 5.07291,-1.00006 10.23661,-1.30201 15.39196,-1.4833 4.50885,0.18986 8.87264,-0.30938 13.30802,-1.01278 0,0 -29.93896,22.41248 -29.93896,22.41248 l 0,0 c -4.52932,0.58721 -9.06089,0.68241 -13.62278,0.8025 -5.07727,0.30814 -10.1257,0.87146 -15.12655,1.82328 -5.26974,0.71079 -10.57239,0.42686 -15.87822,0.45074 -6.45905,-0.001 -12.92124,3.4e-4 -19.37484,0.3008 -6.3672,0.39001 -12.75505,0.88729 -18.97989,2.36428 0,0 30.14139,-22.8214 30.14139,-22.8214 z"
       inkscape:connector-curvature="0" />
    <path
       style="fill:#000000;fill-opacity:1;stroke:none;stroke-opacity:1"
       id="path4727"
       d="m 549.00398,128.03989 c -3.57077,-2.77436 -7.49698,-4.63759 -11.85498,-5.76518 -4.04212,-0.6837 -8.27008,-1.31205 -12.33006,-0.54027 -0.62648,0.25231 -1.24923,0.51411 -1.87946,0.75693 -2.05709,0.79254 -1.97368,0.60164 -3.91057,1.72262 -0.65876,0.38126 -2.58216,1.61126 -1.92002,1.2359 22.98925,-13.03236 30.69311,-18.62112 21.23359,-11.88403 -3.63553,2.7576 -6.27398,6.25182 -7.82171,10.51752 -1.30415,4.1695 -1.2308,8.16135 0.23302,12.24172 2.23286,5.15445 6.81714,8.05676 11.78325,10.19644 5.3969,2.40211 11.12879,3.85907 16.5844,6.1262 5.15149,1.7342 10.17773,3.76812 15.22422,5.77664 5.0685,2.26849 9.72114,5.28079 13.84998,8.98067 3.84559,3.7317 4.35385,8.25422 3.27862,13.24276 -1.68927,4.66363 -4.62923,8.78099 -7.60516,12.70929 -9.00414,11.53203 -23.14738,17.66548 -36.56416,22.95739 -4.35754,1.58658 -9.02798,1.76601 -13.61326,1.97971 -4.33076,0.15075 -8.66499,0.12804 -12.99763,0.11939 -4.34703,0.002 -8.6937,-0.0455 -13.04069,-0.05 0,0 23.98079,-17.41926 23.98079,-17.41926 l 0,0 c 4.36989,0.005 8.73964,-0.0271 13.10952,0.002 4.27584,0.006 8.5556,0.0251 12.82597,-0.22479 4.47801,-0.3411 8.93881,-0.90222 13.08043,-2.76528 9.31319,-3.77836 23.06208,-12.7912 -19.53606,11.96354 -0.6781,0.39406 1.34749,-0.80951 1.96957,-1.28712 1.72106,-1.32136 2.16436,-1.99663 3.59484,-3.63448 2.98012,-3.63689 5.6584,-7.50655 7.95628,-11.60797 1.44503,-3.83425 1.65935,-7.35866 -1.5329,-10.39529 -3.9735,-3.46102 -8.50959,-6.09898 -13.38453,-8.10122 -4.96015,-2.09105 -10.00463,-3.95156 -15.03455,-5.86534 -5.57706,-2.11224 -11.38213,-3.63322 -16.76281,-6.23497 -5.43942,-2.79826 -10.42204,-6.33826 -13.02588,-12.08573 -1.83691,-4.6047 -2.45875,-9.04623 -1.23361,-13.92443 1.22717,-4.81959 3.50488,-8.85117 7.2038,-12.25058 10.03929,-8.33019 2.07125,-1.89641 29.31174,-17.71359 2.5926,-1.50539 5.57044,-2.36622 8.51604,-2.79347 4.36099,-0.0804 8.74315,0.29369 12.94584,1.52592 4.54522,1.5446 8.69002,3.82329 12.68977,6.47102 0,0 -25.32363,16.01698 -25.32363,16.01698 z"
       inkscape:connector-curvature="0" />
    <path
       style="fill:#000000;fill-opacity:1;stroke:none;stroke-opacity:1"
       id="path4729"
       d="m 647.05351,34.652185 c -0.51578,7.467896 -0.40656,14.931916 0.10082,22.393298 1.05931,8.296612 2.40012,16.536671 3.0581,24.879271 0.51157,7.90427 0.5256,15.828996 0.55149,23.746336 -0.11556,7.16886 0.88809,14.2921 1.49967,21.42249 0.52799,6.109 0.5364,12.247 0.61181,18.3738 0.0688,4.94512 0.10784,9.89055 0.12722,14.83609 -0.38311,4.84429 0.41137,9.53376 1.55919,14.21374 1.03377,5.32265 3.12589,10.19964 6.39787,14.50643 3.32586,3.80058 7.7005,5.32515 12.54626,5.99017 4.03131,0.19766 8.18135,0.67281 12.15691,-0.15976 0.62501,-0.25881 1.25003,-0.51762 1.87505,-0.77643 0,0 -23.52897,18.13922 -23.52897,18.13922 l 0,0 c -0.72556,0.13606 -1.45112,0.27212 -2.17668,0.40819 -4.22377,0.2084 -8.48813,0.11728 -12.66299,-0.61096 -5.32785,-1.25421 -9.98363,-3.6353 -13.52299,-7.94922 -3.48476,-4.59853 -6.02057,-9.77111 -7.09163,-15.48254 -1.2439,-4.87312 -2.38183,-9.7214 -2.0097,-14.80162 0.0302,-4.97519 0.0872,-9.95018 0.10378,-14.92545 -0.016,-6.07565 -0.11365,-12.15208 -0.47549,-18.21839 -0.47611,-7.23676 -1.47907,-14.45095 -1.40141,-21.71155 -0.0251,-7.85044 -0.0406,-15.70652 -0.48762,-23.54687 -0.58018,-8.369706 -1.6722,-16.676058 -2.87896,-24.976915 -0.57071,-7.379638 -0.79922,-14.751326 -1.04968,-22.146047 0,0 26.69795,-13.603283 26.69795,-13.603283 z"
       inkscape:connector-curvature="0" />
    <path
       style="fill:#000000;fill-opacity:1;stroke:none;stroke-opacity:1"
       id="path4731"
       d="m 620.98359,67.82489 c 5.08347,0.162606 10.17143,0.105761 15.25673,0.08597 5.29976,0.305531 10.7302,0.831817 15.94032,1.942485 4.40998,1.103372 8.90797,1.660265 13.43683,1.927643 2.02038,0.100269 4.04321,0.120357 6.06549,0.143895 0,0 -24.09037,17.42849 -24.09037,17.42849 l 0,0 c -2.05209,-0.0588 -4.10523,-0.11532 -6.15151,-0.29296 -4.55095,-0.43912 -9.03443,-1.25356 -13.48972,-2.28029 -5.17364,-0.82857 -10.41309,-1.50687 -15.66047,-1.46898 -5.16425,-0.0203 -10.33082,-0.0731 -15.49339,0.086 0,0 24.18609,-17.572224 24.18609,-17.572224 z"
       inkscape:connector-curvature="0" />
  </g>
</svg>
