<?xml version="1.0" encoding="UTF-8" standalone="no"?>
<!-- Created with Inkscape (http://www.inkscape.org/) -->

<svg
   xmlns:dc="http://purl.org/dc/elements/1.1/"
   xmlns:cc="http://creativecommons.org/ns#"
   xmlns:rdf="http://www.w3.org/1999/02/22-rdf-syntax-ns#"
   xmlns:svg="http://www.w3.org/2000/svg"
   xmlns="http://www.w3.org/2000/svg"
   xmlns:sodipodi="http://sodipodi.sourceforge.net/DTD/sodipodi-0.dtd"
   xmlns:inkscape="http://www.inkscape.org/namespaces/inkscape"
   width="300mm"
   height="300mm"
   viewBox="0 0 1062.9921 1062.9921"
   id="svg2"
   version="1.1"
   inkscape:version="0.91 r13725"
   sodipodi:docname="fight_stance.svg"
   inkscape:export-filename="/home/blue/fight_stance.png"
   inkscape:export-xdpi="8.4666672"
   inkscape:export-ydpi="8.4666672">
  <defs
     id="defs4" />
  <sodipodi:namedview
     id="base"
     pagecolor="#ffffff"
     bordercolor="#666666"
     borderopacity="1.0"
     inkscape:pageopacity="0.0"
     inkscape:pageshadow="2"
     inkscape:zoom="0.12374369"
     inkscape:cx="439.00722"
     inkscape:cy="-820.862"
     inkscape:document-units="px"
     inkscape:current-layer="layer1"
     showgrid="false"
     inkscape:window-width="1280"
     inkscape:window-height="1000"
     inkscape:window-x="0"
     inkscape:window-y="24"
     inkscape:window-maximized="1" />
  <metadata
     id="metadata7">
    <rdf:RDF>
      <cc:Work
         rdf:about="">
        <dc:format>image/svg+xml</dc:format>
        <dc:type
           rdf:resource="http://purl.org/dc/dcmitype/StillImage" />
        <dc:title></dc:title>
      </cc:Work>
    </rdf:RDF>
  </metadata>
  <g
     inkscape:label="Layer 1"
     inkscape:groupmode="layer"
     id="layer1"
     transform="translate(0,10.629921)">
    <path
       style="fill:#000000;fill-opacity:1;stroke:none;stroke-opacity:1"
       id="path4146"
       d="m 531.58481,178.52598 c 16.1446,15.38362 29.07404,33.06396 41.93715,50.63498 16.09875,22.18668 31.47282,44.83392 46.43068,67.65282 14.31851,23.26483 29.23111,46.19853 44.49609,68.97666 7.43152,10.78865 13.1249,22.27741 17.84772,34.16571 0.9389,2.36339 1.26291,5.00302 2.83583,7.08418 0.81871,1.08324 2.59938,1.21793 3.89904,1.82691 1.39172,3.40945 14.16514,-8.19249 10.39278,-6.48477 -26.22177,11.87056 -50.71811,26.65805 -77.24677,37.97885 -4.37743,1.868 6.9109,-6.07041 10.09753,-9.3237 8.93373,-9.12059 13.758,-15.67309 21.68587,-25.56979 21.12924,-27.59751 38.09777,-57.2675 53.56351,-87.59706 14.08508,-27.88072 27.74936,-55.92563 41.36993,-83.98685 7.71839,-17.36638 3.91974,-8.87219 11.39091,-25.48433 0,0 89.95842,-36.80275 89.95842,-36.80275 l 0,0 c -8.08694,16.69271 -4.07311,8.09028 -12.00137,25.82192 -13.36062,28.24122 -27.27737,56.27826 -41.42679,84.21425 -15.53239,30.71151 -32.35807,60.75928 -52.98603,89.085 -39.80871,52.89649 -32.15482,41.56756 -123.17752,87.48276 -7.43474,3.75035 -11.46996,0.6538 -17.74833,-1.874 -2.00903,-2.00211 -4.4918,-3.69745 -6.02714,-6.0063 -1.05728,-1.58997 -4.67815,-12.98735 -5.34272,-14.68145 -3.50196,-8.92731 -8.31475,-17.3828 -13.56924,-25.5854 -14.3111,-23.22577 -28.78437,-46.3688 -43.54371,-69.37263 -14.91753,-22.67799 -30.65385,-44.92413 -46.76703,-66.94305 -12.68641,-17.01431 -25.17001,-34.72525 -42.98553,-47.9417 0,0 86.91672,-47.27026 86.91672,-47.27026 z"
       inkscape:connector-curvature="0" />
    <path
       style="fill:#1a1a1a;fill-opacity:1;stroke:none;stroke-opacity:1"
       id="path4142"
       d="m 584.99206,215.62049 c -15.78345,10.67682 -29.90223,23.48968 -43.41939,36.73885 -12.80503,11.79153 -24.28088,24.66695 -34.19032,38.83637 -8.75502,11.58035 -13.7438,24.84082 -17.36595,38.62842 -2.76958,14.05684 -8.14395,27.41733 -12.11015,41.16617 -3.69676,13.49349 -5.98226,27.29393 -8.19651,41.0754 -1.48059,14.45118 -4.70443,28.37963 -9.19705,42.19123 -4.55306,13.60236 -7.1403,27.66911 -11.83083,41.22487 -4.20274,13.86948 -10.31036,27.04235 -15.43376,40.58377 -4.75019,13.13877 -7.30591,26.86627 -9.67716,40.56067 -1.53144,14.64051 -5.71965,28.64569 -11.07146,42.3446 0,0 -101.62865,30.88917 -101.62865,30.88917 l 0,0 c 6.20128,-12.54889 10.22805,-26.0948 11.79926,-39.94055 2.32336,-14.23009 4.74571,-28.4996 9.13296,-42.29284 4.69525,-13.7364 11.35994,-26.64565 15.43424,-40.58203 5.01045,-13.42248 8.03943,-27.16416 11.914,-40.938 4.38961,-13.38627 8.84332,-26.47 9.69071,-40.65169 2.1912,-14.12189 4.40878,-28.26267 7.83982,-42.16029 3.63162,-13.7843 9.08251,-27.01602 12.20148,-40.8739 3.35242,-14.85764 7.66591,-29.5407 16.45429,-42.33777 10.23883,-14.50939 20.37838,-29.00839 34.12935,-40.72715 13.27777,-13.24419 26.81669,-26.32027 41.66576,-37.89984 0,0 103.85936,-25.83546 103.85936,-25.83546 z"
       inkscape:connector-curvature="0" />
    <path
       style="fill:#000000;fill-opacity:1;stroke:none;stroke-opacity:1"
       id="path4148"
       d="m 461.26599,567.70484 c 14.27154,6.65091 27.60929,15.28462 40.99416,23.55844 22.09372,13.11552 42.58195,28.66043 64.18246,42.5346 21.69495,14.0653 43.09474,28.68423 64.04429,43.85163 14.37299,11.73519 28.96818,23.05389 44.22676,33.60646 14.28347,9.62482 26.59278,21.70395 39.71151,32.76487 12.70088,10.10559 20.58009,22.99515 24.79526,38.45541 1.82431,13.30865 3.85296,26.45857 7.29264,39.4627 4.35692,19.28694 10.96832,37.95062 16.98186,56.76826 8.43301,26.4704 18.50125,52.4872 30.82199,77.39353 7.21022,13.82511 14.04853,27.81262 21.82243,41.33262 0,0 -76.96335,44.28284 -76.96335,44.28284 l 0,0 c -7.5024,-13.8584 -13.85687,-28.2334 -20.90959,-42.32084 -12.67328,-25.17797 -22.89011,-51.52667 -32.04372,-78.17538 -6.33723,-18.78592 -13.75658,-37.26357 -18.41046,-56.55474 -3.51201,-12.99097 -6.80114,-25.96987 -7.64112,-39.45579 -3.07363,-13.92912 -9.91145,-25.06946 -21.29206,-33.97607 -13.00556,-10.83776 -25.30306,-22.5725 -39.39421,-32.05699 -15.1194,-10.74187 -29.56186,-22.32554 -43.92882,-34.04537 -20.41863,-15.32127 -41.01983,-30.47522 -62.64556,-44.06101 -21.72293,-13.87535 -42.84683,-28.71133 -65.18944,-41.61104 -13.651,-8.05698 -27.39867,-16.19405 -42.23647,-21.89263 0,0 75.78144,-49.8615 75.78144,-49.8615 z"
       inkscape:connector-curvature="0" />
    <path
       style="fill:#4d4d4d;fill-opacity:1;stroke:none;stroke-opacity:1"
       id="path4152"
       d="m 404.52728,620.52677 c 6.46911,20.27428 16.96312,39.59589 28.01484,58.59412 11.30167,19.00957 20.72069,38.6694 28.98654,58.58179 5.71665,17.97497 11.65856,35.95987 16.34013,54.12615 3.72161,13.3968 9.11467,26.42778 13.96881,39.58523 4.8277,15.62577 -4.47294,28.27222 -16.03146,40.45509 -15.68222,13.66792 -34.24185,25.15253 -51.77419,37.35809 -16.84648,11.80368 -33.08616,24.1077 -49.26465,36.45201 -14.09063,10.28148 -26.98704,21.43573 -35.53639,34.94336 -4.46707,9.64135 -7.12341,19.76249 -10.04993,29.74479 0,0 -104.72723,39.1147 -104.72723,39.1147 l 0,0 c 2.71653,-10.5215 6.34085,-20.8628 9.22974,-31.3458 7.13622,-14.9702 19.33252,-27.49274 34.41688,-38.36642 16.20765,-12.43792 32.43924,-24.86363 49.21029,-36.85089 17.1476,-12.13058 34.81616,-23.79909 52.06828,-35.83786 10.36199,-9.46096 22.31303,-19.47334 20.33662,-32.74969 -4.66023,-13.50602 -10.35165,-26.76672 -13.94436,-40.49683 -3.85192,-17.93727 -9.51298,-35.62373 -15.29826,-53.23069 -8.23138,-19.62442 -15.97424,-39.42535 -27.16322,-58.21491 -11.073,-18.7301 -21.87836,-37.56334 -30.81128,-56.97713 0,0 102.02884,-44.88511 102.02884,-44.88511 z"
       inkscape:connector-curvature="0" />
    <path
       style="fill:#666666;fill-opacity:1;stroke:none;stroke-opacity:1"
       id="path4144"
       d="m 449.18819,205.23734 c 0.0295,18.4835 -2.25754,36.70901 -5.92691,54.82412 -3.48653,16.50912 -8.28754,32.68793 -11.19163,49.31348 -2.04392,14.14641 -2.2826,28.44358 -2.41628,42.69894 1.81799,9.26022 -3.3844,27.6456 0.43436,35.0093 3.81379,1.65244 18.64307,-7.92898 17.27364,-7.19662 -73.683,39.40568 -95.65414,55.86171 -63.10141,32.42339 25.81095,-21.1197 49.63282,-44.34199 73.67179,-67.25715 25.50569,-24.46652 50.79085,-49.12264 77.31671,-72.58746 22.70626,-19.78785 45.45712,-39.51737 66.40041,-61.02315 10.77676,-11.39779 5.49915,-5.79206 15.83549,-16.81486 0,0 85.50759,-34.29691 85.50759,-34.29691 l 0,0 c -10.66127,11.17548 -5.22959,5.47329 -16.29388,17.10758 -21.1187,21.95369 -43.88736,42.23427 -67.1665,62.09577 -26.73118,23.29604 -52.33907,47.64504 -77.66752,72.32935 -23.68068,22.67489 -47.24631,45.4778 -71.71262,67.38595 -33.14454,28.81674 -10.18082,9.89789 -96.30119,56.56983 -9.18765,4.97914 -19.18435,2.95626 -25.98098,-4.31145 -1.06468,-2.21734 -2.6608,-4.26656 -3.19406,-6.65199 -0.71356,-3.1921 0.87116,-9.95269 1.08949,-13.11384 0.43523,-6.30158 -0.36814,-12.68153 0.0403,-18.98831 0.17181,-14.67346 0.50987,-29.36749 2.24218,-43.9632 2.235,-16.99498 7.39226,-33.2971 11.33151,-49.96681 3.99311,-17.29158 7.33206,-34.75417 5.4278,-52.5457 0,0 84.38176,-41.04026 84.38176,-41.04026 z"
       inkscape:connector-curvature="0" />
    <ellipse
       style="fill:#1a1a1a;fill-opacity:1;stroke:none;stroke-opacity:1"
       id="path4160"
       cx="535.7475"
       cy="-79.061028"
       rx="81.481331"
       ry="102.66647"
       transform="matrix(0.94405815,0.32977903,-0.32977903,0.94405815,0,0)" />
  </g>
</svg>
