<?xml version="1.0" encoding="UTF-8" standalone="no"?>
<!-- Created with Inkscape (http://www.inkscape.org/) -->

<svg
   xmlns:dc="http://purl.org/dc/elements/1.1/"
   xmlns:cc="http://creativecommons.org/ns#"
   xmlns:rdf="http://www.w3.org/1999/02/22-rdf-syntax-ns#"
   xmlns:svg="http://www.w3.org/2000/svg"
   xmlns="http://www.w3.org/2000/svg"
   xmlns:sodipodi="http://sodipodi.sourceforge.net/DTD/sodipodi-0.dtd"
   xmlns:inkscape="http://www.inkscape.org/namespaces/inkscape"
   width="52mm"
   height="52mm"
   viewBox="0 0 184.25197 184.25197"
   id="svg2"
   version="1.1"
   inkscape:version="0.91 r13725"
   sodipodi:docname="heart.svg">
  <defs
     id="defs4" />
  <sodipodi:namedview
     id="base"
     pagecolor="#ffffff"
     bordercolor="#666666"
     borderopacity="1.0"
     inkscape:pageopacity="0.0"
     inkscape:pageshadow="2"
     inkscape:zoom="1.4"
     inkscape:cx="-25.90433"
     inkscape:cy="11.164629"
     inkscape:document-units="px"
     inkscape:current-layer="layer1"
     showgrid="false"
     inkscape:window-width="1280"
     inkscape:window-height="1000"
     inkscape:window-x="0"
     inkscape:window-y="24"
     inkscape:window-maximized="1" />
  <metadata
     id="metadata7">
    <rdf:RDF>
      <cc:Work
         rdf:about="">
        <dc:format>image/svg+xml</dc:format>
        <dc:type
           rdf:resource="http://purl.org/dc/dcmitype/StillImage" />
        <dc:title></dc:title>
      </cc:Work>
    </rdf:RDF>
  </metadata>
  <g
     inkscape:label="Layer 1"
     inkscape:groupmode="layer"
     id="layer1"
     transform="translate(0,-868.11024)">
    <path
       style="fill:#ff0000;fill-opacity:1;stroke:none;stroke-opacity:1"
       d="m 57.048828,873.58524 c -0.625665,-0.0226 -1.25995,0.0175 -1.908203,0.1429 -2.547846,0.30645 -5.050724,0.87663 -7.40625,2.05773 -8.439266,2.35441 -11.583657,3.15893 -19.644531,9.47745 -2.98394,1.92251 -5.805921,4.28458 -8.816406,5.78848 -1.536979,1.35766 -2.911571,2.90966 -4.185547,4.57714 -1.161965,1.54873 -2.267794,3.16738 -2.962891,5.0454 -2.2960254,1.92576 -4.1034781,4.38047 -5.4101562,7.27902 -1.13964,2.81547 -2.079791,5.75608 -2.7988282,8.74098 -0.6123714,3.39026 -0.679335,6.81198 -0.5742187,10.26449 0.040909,3.16265 0.1073601,6.33127 0.5371093,9.46426 0.4115083,2.91813 1.0319948,5.78615 1.5566407,8.67941 0.7877988,3.18099 1.652343,6.35418 2.7382812,9.42249 1.1698918,3.24689 2.1327179,6.6398 3.6972659,9.67092 1.92037,2.93849 4.053923,5.69248 6.40625,8.20455 2.401518,2.70715 4.801361,5.41657 7.230468,8.09243 2.570728,2.8059 5.171759,5.58156 7.939454,8.14301 3.052422,2.81981 6.09746,5.64574 9.105468,8.52553 3.524478,3.24417 6.898492,6.67947 10.416016,9.93257 2.935043,2.7652 5.841129,5.5947 8.591797,8.5892 2.747544,3.0979 5.498413,6.1959 8.119141,9.4314 2.446494,3.1047 4.784032,6.3262 7.357421,9.2971 2.378592,2.722 4.786277,5.4541 6.677735,8.6421 1.577782,2.9711 2.913647,6.2181 2.248047,9.7632 l 15.980469,-8.7234 c 0.008,-1.4554 -0.16953,-2.8526 -0.48242,-4.2034 1.06563,-0.8584 2.08088,-1.7991 3.02734,-2.8888 l 1.38867,-0.6463 c 1.17094,-1.1456 2.3742,-2.2403 3.59571,-3.3174 2.84306,-2.7143 5.66335,-5.4656 8.76562,-7.8088 3.00967,-2.4219 6.05382,-4.7882 9.0918,-7.1648 2.45505,-1.9197 4.91862,-3.8261 7.28906,-5.8786 2.71998,-2.3321 5.52913,-4.5274 8.23828,-6.8767 2.80351,-2.3476 5.68714,-4.5669 8.45703,-6.96461 2.7505,-2.41673 5.56927,-4.72626 8.32813,-7.12733 2.4881,-2.65255 4.86262,-5.44193 7.2168,-8.24412 2.45265,-3.01052 4.83526,-6.09403 6.91992,-9.44448 1.96269,-3.08944 3.84691,-6.23397 5.38867,-9.62255 1.3791,-3.28424 2.36088,-6.6673 2.94141,-10.2469 0.72327,-3.41169 1.138,-6.85918 1.00585,-10.37661 -0.008,-3.24431 -0.0235,-6.49041 -0.043,-9.73467 -0.0158,-3.49509 0.0101,-6.99532 -0.37696,-10.47114 -0.39994,-3.56736 -1.08047,-7.06385 -1.96093,-10.52171 -1.08861,-3.75631 -2.4743,-7.38704 -4.47852,-10.6536 -1.91984,-3.40632 -4.28181,-6.34041 -6.92774,-9.05976 -2.37054,-2.59487 -4.75551,-5.21103 -7.5,-7.30979 -2.57205,-1.80429 -5.3679,-3.42362 -8.39453,-3.9286 -0.74621,-0.002 -1.49364,1.5e-4 -2.24023,0 -0.13139,-0.33781 -0.545,-0.71553 -0.74805,-0.79803 0.1454,-0.0907 -0.007,-0.0129 -0.0156,-0.011 -0.008,-0.003 -0.0226,-0.0159 -0.0293,-0.0176 -0.41567,-0.10364 -0.86212,0.17559 -1.27539,0.0154 -1.42833,0 -2.85684,-0.001 -4.28516,-0.004 -1.01043,-0.003 -2.02081,-0.006 -3.03125,-0.008 l 0.25977,-0.20006 c -0.24972,-0.0967 -0.50029,-0.1935 -0.75,-0.29019 -1.49645,-0.3138 -2.9703,-0.37512 -4.49219,-0.20447 -1.67631,0.13704 -3.34186,0.38016 -4.98828,0.76726 -1.8132,0.15744 -3.61078,0.47867 -5.31641,1.22233 -4.85085,2.11406 -9.43341,4.84259 -13.67773,8.33646 -1.35336,1.1313 -2.47379,2.51967 -3.48828,4.02314 -0.65652,0.57057 -1.30493,1.15288 -1.93164,1.77194 -1.46457,1.48908 -2.86022,3.06006 -4.25781,4.6277 -1.23101,1.28149 -2.15511,2.86752 -2.81641,4.59033 -0.12501,-0.34102 -0.23941,-0.6869 -0.367188,-1.02666 -0.789445,-1.87925 -1.607522,-3.74255 -2.373047,-5.63459 -0.808857,-1.93407 -1.540443,-3.93349 -2.742187,-5.61481 -1.293141,-1.73789 -2.724548,-3.32323 -4.21875,-4.84314 -1.529522,-1.54009 -3.11217,-3.01859 -4.871094,-4.221 -1.486392,-1.05283 -2.829018,-2.3278 -4.353516,-3.31523 -1.366976,-1.06374 -2.80695,-2.03551 -4.314453,-2.82279 -1.39134,-0.81611 -2.837538,-1.55249 -4.337891,-2.07094 -1.40568,-0.50166 -2.885126,-0.77859 -4.361328,-0.71228 -1.428564,-0.001 -2.856596,-0.002 -4.285156,-0.006 -0.395119,-9e-4 -0.7904,0.009 -1.185547,0.008 -0.132578,-0.0644 -0.263788,-0.13144 -0.396484,-0.19567 -1.821923,-0.66885 -3.617146,-1.31491 -5.494141,-1.3828 z m -29.177734,16.11233 c -2.509059,1.5915 -3.656842,2.23641 -3.939453,2.34132 0.03874,-0.0502 0.07825,-0.0995 0.117187,-0.14949 0.473643,-0.36693 2.041338,-1.35478 3.822266,-2.19183 z m 95.646486,0.42209 c 0.0977,4.9e-4 0.19526,0.003 0.29297,0.004 -0.47993,0.29893 -0.95191,0.60066 -1.42969,0.89916 0.0644,-0.0482 0.12667,-0.0998 0.19141,-0.1473 0.31671,-0.25011 0.63075,-0.50308 0.94531,-0.75626 z m -4.70117,0.54521 c -0.30817,0.20859 -0.35208,0.23085 -0.86329,0.5782 0.0826,-0.12903 0.16452,-0.25882 0.24805,-0.38693 0.20479,-0.0661 0.41006,-0.12643 0.61524,-0.19127 z m -40.935551,25.29299 c 0.442769,0.62577 0.88976,1.24623 1.306641,1.89505 0.144772,0.25251 0.248089,0.52464 0.376953,0.78484 -0.269931,-0.39238 -0.549198,-0.77776 -0.8125,-1.17616 -0.314701,-0.4859 -0.582226,-1.00117 -0.871094,-1.50373 z"
       id="path4156"
       inkscape:connector-curvature="0"
       inkscape:export-xdpi="25.998861"
       inkscape:export-ydpi="25.998861" />
  </g>
</svg>
