<?xml version="1.0" encoding="UTF-8" standalone="no"?>
<!-- Created with Inkscape (http://www.inkscape.org/) -->

<svg
   xmlns:dc="http://purl.org/dc/elements/1.1/"
   xmlns:cc="http://creativecommons.org/ns#"
   xmlns:rdf="http://www.w3.org/1999/02/22-rdf-syntax-ns#"
   xmlns:svg="http://www.w3.org/2000/svg"
   xmlns="http://www.w3.org/2000/svg"
   xmlns:sodipodi="http://sodipodi.sourceforge.net/DTD/sodipodi-0.dtd"
   xmlns:inkscape="http://www.inkscape.org/namespaces/inkscape"
   width="300mm"
   height="300mm"
   viewBox="0 0 1062.9921 1062.9921"
   id="svg2"
   version="1.1"
   inkscape:version="0.91 r13725"
   sodipodi:docname="mma_pictogram.svg"
   inkscape:export-filename="/home/blue/Pictures/mma_pictogram.png"
   inkscape:export-xdpi="8.4666672"
   inkscape:export-ydpi="8.4666672">
  <defs
     id="defs4" />
  <sodipodi:namedview
     id="base"
     pagecolor="#ffffff"
     bordercolor="#666666"
     borderopacity="1.0"
     inkscape:pageopacity="0.0"
     inkscape:pageshadow="2"
     inkscape:zoom="0.24748737"
     inkscape:cx="339.96225"
     inkscape:cy="824.17795"
     inkscape:document-units="px"
     inkscape:current-layer="layer1"
     showgrid="false"
     inkscape:window-width="1280"
     inkscape:window-height="1000"
     inkscape:window-x="0"
     inkscape:window-y="24"
     inkscape:window-maximized="1" />
  <metadata
     id="metadata7">
    <rdf:RDF>
      <cc:Work
         rdf:about="">
        <dc:format>image/svg+xml</dc:format>
        <dc:type
           rdf:resource="http://purl.org/dc/dcmitype/StillImage" />
        <dc:title></dc:title>
      </cc:Work>
    </rdf:RDF>
  </metadata>
  <g
     inkscape:label="Layer 1"
     inkscape:groupmode="layer"
     id="layer1"
     transform="translate(0,10.629921)">
    <path
       style="fill:#cccccc;fill-opacity:1;stroke:none;stroke-opacity:1"
       d=""
       id="path4690"
       inkscape:connector-curvature="0"
       transform="translate(0,-10.629921)" />
    <path
       style="fill:#000000;fill-opacity:1;stroke:none;stroke-opacity:1"
       id="path4843"
       d="m 646.25436,670.59332 c -4.48516,-8.85445 -11.43893,-14.42253 -18.50947,-19.73063 -6.66528,-4.78759 -14.15196,-6.12839 -21.71573,-6.79123 -8.17022,-1.01537 -13.85837,-0.44314 -21.00376,4.65103 14.19634,-9.88205 28.30193,-19.96271 42.58903,-29.64612 1.02605,-0.69542 -1.91926,1.66838 -2.76977,2.65771 -3.39154,3.94512 -4.68111,8.96779 -5.72571,14.36512 -1.58816,8.86738 -0.80634,16.60369 3.47377,24.03359 4.86495,6.52044 11.95404,6.41219 18.42628,8.48539 7.02583,1.90292 14.31357,3.93019 21.49673,2.57526 16.51961,-9.56391 40.82867,-26.37838 -36.94189,26.0913 -0.87914,0.59313 1.5581,-1.56774 2.22159,-2.49073 1.56708,-2.17997 2.55623,-4.55074 3.73597,-7.04045 2.40982,-6.084 1.37389,-3.0039 3.13148,-9.2283 0,0 48.15394,-28.13802 48.15394,-28.13802 l 0,0 c -1.22405,7.19069 -0.36361,3.76613 -2.51854,10.29707 -10.14034,29.24485 -35.53862,44.53026 -60.89631,49.37894 -7.57911,-0.26 -15.04101,-1.81699 -22.38479,-4.12274 -7.8403,-2.00664 -15.31113,-4.48319 -20.50482,-12.61154 -4.80455,-8.83661 -7.07442,-17.85065 -5.53609,-28.51511 4.18248,-35.87092 25.75204,-35.69867 55.88424,-56.82133 7.44944,-3.17923 14.98467,-3.11712 22.77591,-1.93298 8.11737,1.32892 15.95508,3.84953 22.9139,9.38696 7.57665,5.87707 14.44916,12.76772 20.08586,21.39847 0,0 -46.38182,33.74834 -46.38182,33.74834 z"
       inkscape:connector-curvature="0" />
    <path
       style="fill:#000000;fill-opacity:1;stroke:none;stroke-opacity:1"
       id="path4845"
       d="m 702.31876,646.40464 c 10.55405,2.76169 21.1068,5.85262 31.40844,9.84053 9.25377,3.42755 18.65952,5.94356 27.76577,9.96258 10.14551,3.52714 20.32627,6.9506 30.50934,10.34197 10.42709,2.48675 20.5914,6.2671 30.94666,9.14267 10.68342,3.19644 21.17059,7.24888 31.82133,10.57199 7.56148,2.69289 15.42847,4.30682 22.94631,7.16249 0,0 -44.10239,37.09407 -44.10239,37.09407 l 0,0 c -7.62805,-2.27338 -15.18656,-4.80562 -22.77081,-7.2896 -10.37659,-3.74864 -20.72033,-7.63388 -31.25649,-10.68232 -10.45763,-2.86953 -20.86974,-5.98811 -31.24547,-9.26864 -10.29538,-3.54535 -20.73708,-6.45768 -30.92774,-10.42869 -9.08715,-3.49403 -18.29248,-6.466 -27.35005,-10.07594 -10.47877,-3.75369 -21.14668,-6.86667 -31.98597,-8.57402 0,0 44.24107,-37.79709 44.24107,-37.79709 z"
       inkscape:connector-curvature="0" />
    <path
       style="fill:#000000;fill-opacity:1;stroke:none;stroke-opacity:1"
       id="path4849"
       d="m 754.3199,668.20619 c -2.8466,16.85557 -4.3457,33.84055 -7.00597,50.71378 -3.89672,18.02837 -6.72077,36.03081 -8.09014,54.31183 -1.60251,9.71041 -0.44359,20.24856 -3.70067,29.73343 -0.7812,2.27494 -1.93798,4.36893 -2.90697,6.5534 -9.38811,16.53308 -25.13659,21.35777 -39.9656,25.86921 -17.35432,5.29121 -34.94775,7.5839 -52.49438,9.74876 -29.8744,3.43001 -59.72335,5.35974 -89.59083,7.6766 0,0 52.75188,-14.18115 52.75188,-14.18115 l 0,0 c -91.64362,8.10735 -36.23341,3.33791 -15.32174,1.14066 17.60029,-1.94657 35.27636,-3.85232 52.72388,-8.81599 13.3448,-3.63853 28.63489,-6.90581 38.3182,-20.35679 0.86816,-1.60217 1.93419,-3.08705 2.60445,-4.80651 3.49623,-8.96914 2.15986,-19.40484 4.18701,-28.64212 1.85679,-18.44351 4.56607,-36.71406 8.80601,-54.86585 2.51513,-16.75516 4.0571,-33.60993 5.17949,-50.43661 0,0 54.50538,-3.64265 54.50538,-3.64265 z"
       inkscape:connector-curvature="0" />
    <path
       style="fill:#000000;fill-opacity:1;stroke:none;stroke-opacity:1"
       id="path4851"
       d="m 864.20542,725.35427 c 2.5967,20.2719 6.13481,40.42918 9.54657,60.58496 3.94916,23.85601 8.35031,47.63099 12.71093,71.41306 2.76503,13.0154 4.42655,26.31636 7.65011,39.21907 3.7743,9.40867 14.55544,11.39097 22.01463,13.47718 16.91548,5.62167 33.8856,10.90904 50.7822,16.64059 16.25877,5.91895 32.30174,12.81346 48.11324,20.57805 6.7586,3.03866 13.4405,6.30638 20.2279,9.2289 0,0 -37.52827,42.38531 -37.52827,42.38531 l 0,0 c -6.63956,-3.23071 -13.23363,-6.61007 -19.87803,-9.82405 -15.63443,-7.58313 -31.58481,-13.99941 -47.56148,-20.17087 -16.97777,-5.7494 -34.03265,-11.0612 -51.15871,-15.86641 -9.95578,-3.03062 -21.55657,-5.87232 -26.40691,-18.48376 -3.62277,-13.21686 -4.47481,-27.11253 -7.11796,-40.56233 -3.95169,-23.97083 -7.86039,-47.94912 -12.22246,-71.85084 -3.52682,-19.71987 -6.92164,-39.48907 -11.27245,-59.03822 0,0 42.10069,-37.73064 42.10069,-37.73064 z"
       inkscape:connector-curvature="0" />
    <path
       style="fill:#000000;fill-opacity:1;stroke:none;stroke-opacity:1"
       id="path4853"
       d="m 873.63837,689.7812 c 10.15781,14.07127 20.99853,27.36889 31.76426,40.73353 14.65705,19.4659 27.38598,40.84963 40.74726,61.61488 8.8362,13.37215 17.58853,27.38783 29.72006,36.46019 9.83574,5.39814 21.10597,4.61102 31.66475,4.8414 14.273,1.44751 28.5498,2.76428 42.8618,3.44863 6.3483,0.27705 12.7004,0.34086 19.0519,0.37829 0,0 -43.2235,38.38463 -43.2235,38.38463 l 0,0 c -6.2551,-0.18977 -12.5092,-0.4443 -18.7543,-0.93711 -14.14424,-1.11624 -28.25592,-2.80453 -42.41657,-3.57077 -11.57947,-0.24159 -23.84411,0.5579 -33.98467,-7.42548 -11.73685,-10.65246 -20.45745,-25.06044 -29.18131,-39.25623 -12.95126,-20.8397 -26.03885,-41.57815 -40.59508,-60.79679 -11.01752,-13.34221 -21.98501,-26.76915 -33.57248,-39.37493 0,0 45.91788,-34.50024 45.91788,-34.50024 z"
       inkscape:connector-curvature="0" />
    <path
       style="fill:#000000;fill-opacity:1;stroke:none;stroke-opacity:1"
       id="path4855"
       d="m 539.80963,808.24496 c 11.72166,-7.19576 23.33858,-14.67566 34.96064,-22.13598 10.48295,-7.3953 21.55052,-12.88705 32.7945,-17.78103 8.59042,-4.34309 17.46339,-7.27414 26.24105,-10.68205 7.13189,-2.92778 11.27101,-9.21654 14.80685,-16.76127 4.28495,-10.07648 8.8449,-20.04796 13.54168,-29.91403 3.43331,-7.3064 7.11269,-14.43588 11.04975,-21.42735 0,0 54.41,-11.86901 54.41,-11.86901 l 0,0 c -4.01396,6.82201 -7.97751,13.61713 -11.25853,20.92035 -4.72685,9.61016 -8.9115,19.60301 -13.07209,29.48969 -3.47912,8.60042 -7.40332,16.97952 -14.78144,21.92992 -8.60958,4.59115 -17.88463,6.00203 -26.47888,10.8269 -11.32181,5.02515 -22.88053,9.25173 -33.45395,16.89523 -11.23831,7.22729 -22.48957,14.42877 -33.62022,21.92737 0,0 -55.13936,8.58126 -55.13936,8.58126 z"
       inkscape:connector-curvature="0" />
    <path
       style="fill:#000000;fill-opacity:1;stroke:none;stroke-opacity:1"
       id="path4865"
       d="m 74.71368,450.29277 c -7.415435,-5.22718 -15.609154,-6.92427 -23.708235,-8.13259 -5.952046,-0.88033 -11.896393,-1.2575 -17.546141,2.21215 -1.416032,0.86962 -5.373874,4.35532 -4.038005,3.24653 15.783362,-13.1003 31.587214,-26.1476 47.380821,-39.2214 -6.881597,6.53186 -10.718613,16.16949 -11.886583,27.87435 0.338091,11.90668 4.071121,21.331 10.07254,28.99762 6.446841,6.47868 14.201822,7.20761 21.764432,7.76989 9.862641,1.505 14.615331,-0.49476 23.606231,-5.38598 17.75323,-14.82939 44.01938,-35.18532 -38.878406,32.58849 -1.337155,1.09321 2.514083,-2.57433 3.677823,-4.03216 2.724864,-3.41348 3.559602,-5.3368 5.808532,-9.43735 7.79387,-14.76069 0.85782,-23.25298 -7.441245,-32.80875 -8.053463,-8.34697 -16.813988,-14.97291 -24.970925,-23.12451 0,0 49.720621,-46.57414 49.720621,-46.57414 l 0,0 c 8.31912,8.09911 17.17582,14.99035 25.07955,23.98184 8.8069,10.96604 19.41922,26.35586 12.08732,44.0918 -0.78496,1.67836 -4.48642,9.68243 -5.36576,11.1973 -16.73907,28.83726 -43.048911,42.87261 -66.61099,57.51944 -8.243306,3.69663 -16.548934,3.92157 -25.106185,2.60064 -8.675518,-1.40921 -17.121141,-4.05593 -23.923292,-12.67568 -6.882133,-9.9742 -11.320232,-21.37695 -12.676236,-35.61932 -0.0599,-13.37295 3.093133,-25.76523 9.747335,-35.19366 30.514051,-25.92642 46.276894,-54.51562 77.948607,-48.2166 8.706201,1.89668 17.322761,4.68714 25.381251,10.04327 0,0 -50.12306,48.29882 -50.12306,48.29882 z"
       inkscape:connector-curvature="0" />
    <path
       style="fill:#000000;fill-opacity:1;stroke:none;stroke-opacity:1"
       id="path4885"
       d="m 157.28129,499.25287 c 12.19331,9.01978 23.58621,19.89638 34.97022,30.90037 13.96252,13.20084 26.9317,28.44357 40.85741,41.7041 12.25582,12.45295 21.12658,15.37582 35.22282,8.53756 13.73513,-6.47453 26.85102,-15.2053 40.68163,-21.30058 16.14422,-6.9995 32.32348,-13.80922 48.41417,-21.09332 13.40181,-7.00782 27.28938,-11.25594 40.9948,-16.56535 12.27353,-3.96041 24.23391,-9.7221 36.45101,-14.07259 11.24657,-2.70652 22.51522,-5.17105 33.79128,-7.72458 10.10968,-2.8567 20.53477,-4.54495 30.46896,-8.57412 8.61325,-2.50127 16.97026,-6.27401 25.52185,-9.12292 7.95288,-3.28762 16.30686,-5.09909 24.1737,-8.83784 8.34736,-3.44579 16.93195,-5.15775 25.41542,-7.7335 0,0 -47.20887,52.44239 -47.20887,52.44239 l 0,0 c -8.47071,2.61457 -17.05915,4.4594 -25.33193,8.31996 -8.12334,2.71723 -16.13872,5.99422 -24.27276,8.63939 -8.43341,3.24177 -16.92726,6.01266 -25.42244,8.88931 -10.16502,2.84043 -20.33665,5.72496 -30.57858,7.89789 -11.12672,2.5857 -22.3479,4.47554 -33.32935,8.19716 -12.16313,4.62936 -24.18126,10.08083 -36.46172,14.0426 -13.59288,4.5825 -26.95361,10.22994 -40.26755,16.32677 -16.15737,7.12152 -32.36624,13.98966 -48.47772,21.31972 -13.82921,6.90245 -27.17563,15.8469 -41.32938,21.29797 -15.72719,3.95964 -24.79388,-1.67033 -37.81781,-14.5934 -13.66849,-13.64636 -26.23162,-29.59721 -40.53395,-41.91493 -11.37182,-10.75701 -22.86962,-21.38991 -35.67495,-28.17606 0,0 49.74374,-48.806 49.74374,-48.806 z"
       inkscape:connector-curvature="0" />
    <path
       style="fill:#000000;fill-opacity:1;stroke:none;stroke-opacity:1"
       id="path4887"
       d="m 240.78956,619.45065 c -0.68107,18.87557 -2.33758,37.63485 -3.28458,56.48428 -0.83719,17.42868 -0.97957,34.89848 -1.13283,52.36095 -0.14377,18.67387 -0.0516,37.34903 -0.10725,56.02375 0.0126,11.36418 0.10772,22.72763 0.18701,34.09107 0,0 -52.68784,39.32034 -52.68784,39.32034 l 0,0 c 0.0727,-11.44893 0.15959,-22.89794 0.16064,-34.34752 -0.0745,-18.66046 -0.0292,-37.32052 -0.059,-55.98106 0.0303,-17.66627 0.17074,-35.35315 1.07767,-52.97671 0.97978,-18.37635 2.92555,-36.79565 2.57169,-55.22106 0,0 53.27444,-39.75404 53.27444,-39.75404 z"
       inkscape:connector-curvature="0" />
    <path
       style="fill:#000000;fill-opacity:1;stroke:none;stroke-opacity:1"
       id="path4889"
       d="m 124.36585,523.60978 c -1.52409,19.76548 -7.06809,38.39332 -12.35724,56.53398 -6.21391,21.3697 -13.872621,41.6821 -21.816781,61.74636 -4.939342,11.58654 -10.319392,22.77782 -15.76588,33.86504 0,0 -54.299331,34.32186 -54.299331,34.32186 l 0,0 c 5.672645,-10.87412 10.887547,-22.23129 16.349999,-33.3269 8.353499,-19.66163 16.371874,-39.66009 22.582618,-61.00853 5.039002,-16.78858 10.128003,-34.00104 11.910723,-52.28715 0,0 53.395892,-39.84466 53.395892,-39.84466 z"
       inkscape:connector-curvature="0" />
    <path
       style="fill:#000000;fill-opacity:1;stroke:none;stroke-opacity:1"
       id="path4891"
       d="m 176.49596,471.37868 c 11.34322,-2.34565 22.79599,-3.02048 34.23554,-3.36403 21.58433,-0.20258 43.16885,0.0432 64.75372,-0.075 9.7067,0.51444 19.36545,-0.97653 29.00868,-2.31247 0,0 -46.80657,50.61664 -46.80657,50.61664 l 0,0 c -9.51215,0.83174 -19.03566,1.61584 -28.57043,1.04243 -21.86174,-0.0655 -43.73126,0.0299 -65.57843,1.33519 -11.6583,0.90845 -23.40152,1.81836 -34.80949,5.7239 0,0 47.76698,-52.96674 47.76698,-52.96674 z"
       inkscape:connector-curvature="0" />
    <path
       style="fill:#000000;fill-opacity:1;stroke:none;stroke-opacity:1"
       id="path4901"
       d="m 246.36239,201.42874 c -0.8239,-10.05161 -1.11628,-20.12806 -0.92522,-30.21212 0.23015,-14.1172 2.43779,-28.05808 4.65854,-41.94175 1.67236,-9.73092 2.54273,-19.57949 2.88665,-29.455253 0.14962,-5.999353 0.0751,-12.001126 0.0237,-18.001271 -0.0696,-4.767914 -0.0346,-9.535634 -0.0195,-14.303604 -0.003,-4.959188 -0.0243,-9.918333 -0.036,-14.877506 -0.0931,-0.691798 0.29473,-7.709643 0.5045,-7.830511 28.89751,-16.650239 22.9369,-24.606238 30.20676,-12.686423 4.23428,10.410453 8.82161,20.608741 13.94752,30.562692 6.34119,11.868943 12.99018,23.57135 20.2414,34.843683 5.70346,8.199333 11.67052,16.193453 17.98711,23.873343 2.15284,2.11366 4.32329,4.91089 7.19206,6.03105 0.79065,0.30873 1.65143,0.55053 2.48998,0.46253 0.88742,-0.0931 1.67182,-0.65805 2.50773,-0.98707 -7.88298,4.55102 -15.76597,9.10203 -23.64895,13.65305 8.28616,-6.75732 11.65145,-17.7995 15.60266,-27.65783 3.97749,-9.61792 7.86136,-19.266934 11.23288,-29.143694 2.66678,-7.035624 4.05628,-14.470023 5.80625,-21.78836 3.36837,-15.687852 5.4221,-14.461729 29.40034,-24.589684 1.56859,-0.662546 1.67611,3.121796 2.27687,4.793403 0.72246,2.010207 1.11698,4.135957 1.67548,6.203936 6.39664,27.145081 12.73917,54.303109 19.35065,81.391089 5.01278,23.93682 13.09689,46.83836 22.52051,69.15919 0,0 -26.04393,15.4413 -26.04393,15.4413 l 0,0 c -8.2534,-23.10622 -15.08767,-46.76033 -20.51736,-70.79007 -6.75433,-26.7093 -13.14096,-53.595947 -21.74706,-79.719119 -0.72637,-1.797896 -1.42497,-3.608668 -2.17911,-5.393696 -0.1052,-0.249012 -0.61209,-0.553423 -0.39639,-0.702527 37.96315,-26.242841 26.68874,-24.696606 23.67971,-9.963381 -1.92741,7.448797 -3.53223,14.996599 -6.06808,22.255585 -3.48448,9.956606 -7.35694,19.745836 -11.45797,29.434665 -4.04459,10.071723 -7.36403,21.054703 -14.42229,29.257653 -5.01182,2.98899 -23.94788,23.3948 -36.20725,16.45544 -2.91958,-1.65262 -5.09866,-4.57777 -7.33347,-7.05229 -6.18718,-7.91566 -12.21905,-15.98923 -17.71304,-24.46417 -7.17455,-11.42956 -13.76898,-23.266927 -20.17587,-35.193948 -5.20259,-9.693818 -9.80213,-19.702025 -14.88837,-29.45101 -8.44028,-8.367443 -0.7316,-0.145376 25.92044,-16.955227 0.30646,-0.193285 -0.75135,-0.426828 -1.04971,-0.219808 -1.31952,0.915595 -0.70473,4.517509 -0.87682,5.758103 -0.0111,4.968699 -0.033,9.937402 -0.0253,14.906124 0.0264,4.760865 0.0837,9.521503 0.0503,14.282695 -0.0242,6.121958 -0.0962,12.244809 -0.37575,18.360664 -0.48539,10.103446 -1.31843,20.171237 -3.1943,30.109777 -2.53795,13.68876 -4.89619,27.50894 -4.93992,41.50719 -0.13565,9.69989 0.23221,19.47502 1.82738,29.04613 0,0 -27.74776,15.59103 -27.74776,15.59103 z"
       inkscape:connector-curvature="0" />
    <path
       style="fill:#000000;fill-opacity:1;stroke:none;stroke-opacity:1"
       id="path4909"
       d="m 484.24773,210.18358 c 1.61082,-12.70183 3.9472,-25.25361 5.75913,-37.92211 2.70946,-17.69663 4.1926,-35.62544 6.18512,-53.45592 1.85496,-15.62564 2.53859,-31.399868 3.71034,-47.113435 0.2584,-4.884966 0.75686,-9.747969 1.4405,-14.568512 0.0918,-0.647162 0.62351,-3.996899 0.71582,-4.063561 9.2125,-6.652732 18.75665,-12.57429 28.13497,-18.861436 3.79406,5.343959 5.47135,12.372907 7.88938,18.723054 4.98678,12.053182 10.27887,23.911358 15.46156,35.838038 4.83467,10.555949 9.61857,21.147672 14.84309,31.417642 2.08044,3.20461 3.35409,8.02894 6.79717,9.4996 0.802,0.34257 1.72036,0.50245 2.53853,0.22472 1.03847,-0.35252 3.72893,-2.66885 2.78317,-2.03122 -7.59741,5.12199 -15.15968,10.32356 -22.73951,15.48534 9.77275,-9.56567 16.04784,-23.17288 21.83584,-36.56602 5.3878,-12.402368 9.13409,-25.694923 12.94286,-38.917325 1.36647,-4.913763 2.67654,-9.885051 3.41011,-15.014339 0.0777,-0.543297 -0.21326,-1.379673 0.17932,-1.640308 9.34003,-6.200986 19.01011,-11.606912 28.51516,-17.410368 0.32306,1.070647 0.74506,2.10317 0.96916,3.211942 0.34686,1.716187 1.28065,10.186142 1.41244,11.309616 1.06622,9.089757 2.06717,18.189541 3.1125,27.283108 2.44713,18.549557 6.32396,36.702194 10.47621,54.752644 2.71076,12.89544 6.38468,25.45402 10.89565,37.54393 3.61151,8.38346 6.98876,16.91819 10.50051,25.36591 0.51722,1.11834 1.03443,2.23667 1.55165,3.35503 0,0 -26.81607,19.13301 -26.81607,19.13301 l 0,0 c -0.5277,-1.17863 -1.05539,-2.35726 -1.58309,-3.53587 -3.4204,-8.5754 -6.76509,-17.19592 -10.21288,-25.75536 -4.42068,-12.40079 -8.16497,-25.14702 -10.71802,-38.35023 -3.80749,-18.35371 -7.53444,-36.71701 -10.23371,-55.386344 -1.6864,-12.784386 -2.99024,-25.924324 -6.2219,-38.257689 9.11746,-6.229538 18.27959,-12.359766 27.35238,-18.688611 0.31587,-0.220345 -0.85266,-0.0329 -1.05186,0.342308 -0.43505,0.819457 -0.4344,1.886486 -0.63511,2.835243 -0.92138,4.355544 -1.81865,8.719005 -3.1867,12.906538 -4.07981,13.421167 -8.06564,26.934033 -13.37932,39.702204 -5.61029,13.604391 -11.72787,27.192871 -20.64387,37.948451 -10.05197,7.23893 -19.86524,15.01227 -30.1559,21.71682 -2.19396,1.42939 -5.10779,0.37183 -7.01965,-1.07771 -3.37621,-2.55983 -5.03847,-7.00464 -7.17415,-10.90554 -5.09476,-10.45786 -9.82363,-21.17441 -14.49813,-31.92759 -5.16064,-11.979621 -10.68441,-23.698564 -15.99769,-35.571697 -0.73341,-1.70152 -5.40977,-15.073924 -6.97479,-14.816969 8.90487,-6.342612 17.86958,-12.558025 26.71462,-19.027826 0.3257,-0.238232 -0.85201,-0.0457 -1.10887,0.298233 -0.44413,0.594696 -0.57155,1.462323 -0.77961,2.230403 -1.27138,4.693369 -1.74162,9.659539 -2.17903,14.551877 -1.53065,15.816645 -2.30108,31.72906 -4.13418,47.503879 -1.98587,17.83711 -3.57578,35.74936 -6.06561,53.49302 -1.50875,12.16139 -3.57148,24.24298 -4.56137,36.48463 0,0 -28.05617,17.7088 -28.05617,17.7088 z"
       inkscape:connector-curvature="0" />
    <path
       style="fill:#000000;fill-opacity:1;stroke:none;stroke-opacity:1"
       id="path4911"
       d="m 700.97696,212.85848 c 4.56223,-8.40204 8.10863,-17.43738 11.91857,-26.29434 6.4579,-14.8128 11.7098,-30.23911 16.66679,-45.76652 4.59024,-14.48643 9.05815,-29.00778 11.90374,-44.080829 1.69401,-9.773733 2.08994,-19.731869 2.17439,-29.666329 0.0556,-6.292179 -0.14546,-12.576151 0.30919,-18.851968 9.56897,-4.782659 18.79166,-10.590451 28.7069,-14.347979 0.91795,-0.347868 0.4546,2.142543 0.65671,3.22021 0.25303,1.349154 0.46173,2.70869 0.70855,4.059334 1.02881,5.629624 2.26872,11.178956 3.5562,16.737935 4.0641,15.834693 7.5611,31.847498 11.58598,47.693166 4.92661,18.12571 9.37595,36.4216 14.67016,54.41463 3.45328,10.74294 7.16491,21.39956 11.73547,31.59375 0,0 -26.58039,17.18898 -26.58039,17.18898 l 0,0 c -4.26205,-10.57423 -7.59286,-21.59259 -11.07301,-32.5231 -5.25169,-18.05277 -9.54321,-36.44643 -14.65103,-54.55392 -4.20375,-15.73893 -7.87731,-31.656943 -12.26478,-47.335204 -1.42243,-5.50618 -2.81594,-11.016239 -4.13066,-16.557156 -0.30492,-1.285074 -0.59893,-2.573494 -0.90588,-3.857935 -0.2108,-0.881998 -1.30941,-2.124767 -0.64733,-2.641278 8.69999,-6.787239 18.21323,-12.111393 27.31985,-18.167088 -3.15945,3.60341 -0.88004,13.391286 -1.54108,18.060751 -0.22267,10.2337 -0.54971,20.497967 -2.39523,30.555212 -2.96167,15.311269 -7.58026,30.049738 -12.25711,44.776918 -4.91522,15.45961 -9.89687,30.92755 -16.03948,45.82071 -3.5827,8.56691 -6.76271,17.35573 -10.7035,25.71902 0,0 -28.72302,14.80303 -28.72302,14.80303 z"
       inkscape:connector-curvature="0" />
    <path
       style="fill:#000000;fill-opacity:1;stroke:none;stroke-opacity:1"
       id="path4913"
       d="m 741.57608,147.70378 c 6.34967,0.23747 12.70596,0.224 19.05872,0.25273 6.90814,0.0409 13.8161,-0.0551 20.72394,-0.11512 3.1493,-0.0275 6.29867,-0.0399 9.44803,-0.0493 0,0 -25.26113,20.90651 -25.26113,20.90651 l 0,0 c -3.10965,-0.01 -6.21928,-0.0217 -9.32884,-0.0493 -6.81511,-0.0605 -13.63034,-0.15698 -20.44575,-0.1151 -6.55642,0.0293 -13.11581,0.0214 -19.66943,0.25271 0,0 25.47446,-21.08306 25.47446,-21.08306 z"
       inkscape:connector-curvature="0" />
  </g>
</svg>
