<?xml version="1.0" encoding="UTF-8" standalone="no"?>
<!-- Created with Inkscape (http://www.inkscape.org/) -->

<svg
   xmlns:dc="http://purl.org/dc/elements/1.1/"
   xmlns:cc="http://creativecommons.org/ns#"
   xmlns:rdf="http://www.w3.org/1999/02/22-rdf-syntax-ns#"
   xmlns:svg="http://www.w3.org/2000/svg"
   xmlns="http://www.w3.org/2000/svg"
   xmlns:sodipodi="http://sodipodi.sourceforge.net/DTD/sodipodi-0.dtd"
   xmlns:inkscape="http://www.inkscape.org/namespaces/inkscape"
   width="52mm"
   height="52mm"
   viewBox="0 0 184.25197 184.25197"
   id="svg2"
   version="1.1"
   inkscape:version="0.91 r13725"
   sodipodi:docname="red_x.svg">
  <defs
     id="defs4" />
  <sodipodi:namedview
     id="base"
     pagecolor="#ffffff"
     bordercolor="#666666"
     borderopacity="1.0"
     inkscape:pageopacity="0.0"
     inkscape:pageshadow="2"
     inkscape:zoom="0.5"
     inkscape:cx="201.09696"
     inkscape:cy="240.92611"
     inkscape:document-units="px"
     inkscape:current-layer="layer1"
     showgrid="false"
     borderlayer="false"
     inkscape:window-width="1309"
     inkscape:window-height="744"
     inkscape:window-x="57"
     inkscape:window-y="24"
     inkscape:window-maximized="1" />
  <metadata
     id="metadata7">
    <rdf:RDF>
      <cc:Work
         rdf:about="">
        <dc:format>image/svg+xml</dc:format>
        <dc:type
           rdf:resource="http://purl.org/dc/dcmitype/StillImage" />
        <dc:title></dc:title>
      </cc:Work>
    </rdf:RDF>
  </metadata>
  <g
     inkscape:label="Layer 1"
     inkscape:groupmode="layer"
     id="layer1"
     transform="translate(0,-868.11024)">
    <path
       style="opacity:0.97000002;fill:#ff0000;fill-opacity:1;stroke:none;stroke-width:1.60000002;stroke-miterlimit:4;stroke-dasharray:none;stroke-opacity:1"
       id="path4147"
       d="m 53.519688,896.13841 c 4.406585,9.01699 10.580403,16.93929 16.793537,24.75669 7.259832,9.01428 15.259529,17.36197 23.703314,25.26028 7.231541,6.88878 13.629741,14.55069 20.632301,21.66241 6.06107,5.77413 11.97952,11.66715 17.59891,17.87154 4.41838,4.37909 9.13237,8.40201 13.26667,13.05903 3.89441,4.17464 7.24058,8.81024 10.12964,13.72504 2.02374,3.624 4.08643,7.2231 6.42848,10.6552 0,0 -25.45691,14.8862 -25.45691,14.8862 l 0,0 c -2.23467,-3.5666 -4.34799,-7.1919 -6.3335,-10.9018 -2.69356,-4.7787 -5.87541,-9.2865 -9.66032,-13.27 -4.24875,-4.5464 -8.84746,-8.7078 -13.21318,-13.1398 -5.42247,-6.27402 -11.119024,-12.25384 -17.119117,-17.98335 -6.976688,-7.08079 -13.330712,-14.73138 -20.51286,-21.61358 -8.453325,-8.04799 -16.223806,-16.7386 -23.604487,-25.78086 -6.377614,-7.90447 -12.594863,-15.90962 -18.256448,-24.34706 0,0 25.60397,-14.83994 25.60397,-14.83994 z"
       inkscape:connector-curvature="0" />
    <path
       style="opacity:0.97000002;fill:#ff0000;fill-opacity:1;stroke:none;stroke-width:1.60000002;stroke-miterlimit:4;stroke-dasharray:none;stroke-opacity:1"
       id="path4167"
       d="m 155.20988,892.82761 c 0.076,7.66965 -3.06595,14.49972 -6.55423,21.14178 -5.35854,9.51175 -11.30809,18.6559 -17.9512,27.31575 -8.00368,9.79437 -15.46653,20.00147 -22.79883,30.3019 -4.17107,5.89633 -8.313051,11.80213 -12.701574,17.53909 -1.005999,0.80137 -1.098533,2.14802 -1.655766,3.1398 -0.383154,0.68194 -1.145052,1.06796 -1.677054,1.64139 -5.569467,5.21367 -11.283598,10.27038 -16.797364,15.54878 -2.68411,2.8447 -6.092365,4.8979 -8.784845,7.7208 0.0066,0.3351 -0.508797,0.3633 -0.591154,0.6424 -2.967346,10.0564 -17.16843,17.59 -27.539461,15.4877 -0.192328,-0.018 -0.449405,-0.2001 -0.576982,-0.055 -0.169688,0.1929 -0.275909,0.8936 -0.05104,0.7692 8.47662,-4.6881 16.752017,-9.7313 25.109702,-14.6283 0.190214,-0.1115 -0.515227,0.067 -0.604507,0.2683 -0.109251,0.2467 -0.109691,0.5283 -0.164537,0.7924 -8.690565,4.9403 -17.38113,9.8806 -26.071695,14.8209 -0.3817,0.2447 -0.803356,-0.2119 -1.170706,-0.078 -0.389411,0.1423 -0.64216,0.5305 -1.000982,0.7382 -1.345237,0.7785 -2.759369,1.4334 -4.10765,2.2066 -13.748358,8.4256 32.934546,-20.3941 17.358359,-9.6271 0,0 -27.419371,10.8051 -27.419371,10.8051 l 0,0 c 10.374364,-7.3924 21.66842,-13.369 32.826506,-19.5022 10.599122,-5.3716 29.019333,-9.1836 -18.272792,11.4138 1.332867,0.735 0.176922,-0.144 0.958166,-0.6173 8.558515,-5.1847 17.232371,-10.1766 25.848557,-15.2649 1.015726,0.3507 0.564075,0.3503 1.337457,0.2171 8.966712,-4.68 11.353751,-7.5099 -24.370128,14.0055 -0.204094,0.123 0.369163,0.408 0.605702,0.3795 0.407725,-0.049 -0.06842,-1.2404 0.547559,-1.1036 2.489549,-3.5483 6.246259,-5.6137 9.472326,-8.4327 5.387652,-5.0491 10.674893,-10.2125 16.228915,-15.0795 0.324191,-0.3639 0.674794,-0.7059 0.972574,-1.0916 0.144106,-0.1867 0.141247,-0.5005 0.34627,-0.617 0.180626,-0.1027 0.446358,0.1825 0.619628,0.068 0.705159,-0.4667 0.671041,-2.595 1.58344,-2.8672 1.472706,-2.12212 3.230256,-3.94893 4.860622,-5.95453 3.631381,-4.46715 1.819927,-2.33541 5.554222,-7.42782 1.15131,-1.57002 2.338625,-3.11332 3.507937,-4.66998 7.398829,-10.18507 14.560633,-20.5527 22.532996,-30.30792 6.70628,-8.44653 12.65697,-17.40287 17.9616,-26.79924 3.29163,-5.92326 6.82252,-12.38086 6.20956,-19.37875 0,0 26.41977,-13.46154 26.41977,-13.46154 z"
       inkscape:connector-curvature="0" />
  </g>
</svg>
