<?xml version="1.0" encoding="UTF-8" standalone="no"?>
<!-- Created with Inkscape (http://www.inkscape.org/) -->

<svg
   xmlns:dc="http://purl.org/dc/elements/1.1/"
   xmlns:cc="http://creativecommons.org/ns#"
   xmlns:rdf="http://www.w3.org/1999/02/22-rdf-syntax-ns#"
   xmlns:svg="http://www.w3.org/2000/svg"
   xmlns="http://www.w3.org/2000/svg"
   xmlns:sodipodi="http://sodipodi.sourceforge.net/DTD/sodipodi-0.dtd"
   xmlns:inkscape="http://www.inkscape.org/namespaces/inkscape"
   width="300mm"
   height="300mm"
   viewBox="0 0 1062.9921 1062.9921"
   id="svg2"
   version="1.1"
   inkscape:version="0.91 r13725"
   sodipodi:docname="resting.svg"
   inkscape:export-filename="/home/blue/Pictures/aim.png"
   inkscape:export-xdpi="8.4666672"
   inkscape:export-ydpi="8.4666672">
  <defs
     id="defs4" />
  <sodipodi:namedview
     id="base"
     pagecolor="#ffffff"
     bordercolor="#666666"
     borderopacity="1.0"
     inkscape:pageopacity="0.0"
     inkscape:pageshadow="2"
     inkscape:zoom="0.0875"
     inkscape:cx="1455.7077"
     inkscape:cy="-1642.2605"
     inkscape:document-units="px"
     inkscape:current-layer="layer1"
     showgrid="false"
     inkscape:window-width="1280"
     inkscape:window-height="1000"
     inkscape:window-x="0"
     inkscape:window-y="24"
     inkscape:window-maximized="1" />
  <metadata
     id="metadata7">
    <rdf:RDF>
      <cc:Work
         rdf:about="">
        <dc:format>image/svg+xml</dc:format>
        <dc:type
           rdf:resource="http://purl.org/dc/dcmitype/StillImage" />
        <dc:title></dc:title>
      </cc:Work>
    </rdf:RDF>
  </metadata>
  <g
     inkscape:label="Layer 1"
     inkscape:groupmode="layer"
     id="layer1"
     transform="translate(0,10.629921)">
    <path
       style="fill:#000000;fill-opacity:1;stroke:none;stroke-opacity:1"
       id="path4449"
       d="m 356.82235,243.46975 c 14.16948,12.46491 27.56381,26.29848 40.88661,40.24451 19.51318,19.91529 38.48787,40.74526 57.57068,61.3869 20.71388,23.83841 42.84256,45.18544 65.29408,66.02629 21.06777,20.25997 44.53927,35.70579 68.90246,49.36829 17.38369,9.83424 35.97655,17.20896 54.85138,23.47558 14.1592,0.75299 26.86891,4.9679 39.66203,9.64018 2.11149,0.76644 4.22309,1.53297 6.33464,2.29931 0,0 -77.06009,97.61663 -77.06009,97.61663 l 0,0 c -2.18413,-0.73983 -4.36825,-1.47965 -6.55232,-2.21927 -12.53315,-4.9287 -25.9386,-6.91639 -38.99507,-10.39169 -18.51723,-7.40077 -37.26317,-14.4892 -54.07278,-25.81939 -24.15647,-14.72444 -47.71199,-30.60665 -68.98296,-51.02293 -22.38584,-21.16799 -44.45983,-42.84554 -65.50593,-66.32013 -19.23129,-20.38164 -38.51796,-40.67024 -58.05197,-60.53717 -13.66323,-13.19208 -27.2304,-26.84968 -42.98238,-36.06545 0,0 78.70162,-97.68166 78.70162,-97.68166 z"
       inkscape:connector-curvature="0" />
    <path
       style="fill:#000000;fill-opacity:1;stroke:none;stroke-opacity:1"
       id="path4469"
       d="m 283.53846,386.46487 c -16.63894,5.20615 -31.96991,13.91789 -48.05103,20.74411 -15.80961,5.99058 -32.02631,10.53927 -48.27452,14.8273 -15.55519,3.79546 -31.08209,7.73781 -46.65266,11.45193 -15.18488,3.68812 -30.34827,7.48773 -45.517148,11.25839 -13.343669,3.31667 -26.69124,6.61319 -40.039277,9.9073 -8.523042,2.77663 -17.66616,3.47461 -26.131707,6.44361 -18.287345,6.41271 6.14437,-0.43549 -11.964223,4.35868 -18.6969515,-0.89744 -11.2157827,-22.31996 -6.56451,-33.82985 8.320386,-16.17844 11.909386,-33.72651 16.545682,-50.99637 5.344445,-16.33956 12.490679,-32.0708 18.451912,-48.21684 2.57079,-7.52772 5.053566,-15.06911 7.74233,-22.56037 0,0 80.316991,-60.29236 80.316991,-60.29236 l 0,0 c -2.98893,7.38711 -5.86088,14.80722 -7.79545,22.52003 -6.06685,16.02578 -12.1703,31.99664 -19.04101,47.72838 -5.43437,17.29967 -7.678978,35.40343 -15.64737,51.99095 -3.928792,8.08842 -2.907481,5.68814 -6.13546,13.38534 -3.202618,7.63672 -6.341873,5.1259 -1.158891,3.98555 12.578912,-4.30421 25.475321,-7.11882 38.313411,-10.29624 13.31455,-3.2783 26.62953,-6.55433 39.95032,-9.80024 15.11391,-3.67926 30.23533,-7.31932 45.34102,-11.04166 15.54437,-3.90036 31.1506,-7.4983 46.6269,-11.7349 15.88328,-4.30544 31.77154,-8.87273 46.97832,-15.55268 16.25782,-7.24168 32.36831,-14.85186 48.70187,-21.88432 0,0 -65.99542,77.60461 -65.99542,77.60461 z"
       inkscape:connector-curvature="0" />
    <ellipse
       style="fill:#000000;fill-opacity:1;stroke:none;stroke-opacity:1"
       id="path4503"
       cx="194.30772"
       cy="224.45908"
       rx="95.608948"
       ry="97.030502"
       transform="matrix(0.99442503,-0.10544599,0.09557155,0.99542256,0,0)" />
    <path
       style="fill:#000000;fill-opacity:1;stroke:none;stroke-opacity:1"
       id="path4521"
       d="m 606.74042,512.04135 c 13.89132,14.62364 28.27368,28.75115 42.53884,42.98195 19.73409,18.69254 39.63138,37.17559 59.06039,56.2181 19.92225,20.04566 40.93468,38.91166 62.26029,57.28245 15.67177,13.01569 32.3468,24.58038 48.45011,36.96796 13.48204,10.36617 26.5333,21.35371 39.31186,32.65811 11.13161,9.8904 20.63122,21.50093 29.66871,33.45733 10.07,14.13528 19.81541,28.52175 29.55421,42.91001 11.93752,17.35088 23.82712,34.73737 35.89735,51.9867 10.26805,14.49108 20.36816,29.11092 30.58241,43.64391 4.23974,6.02468 8.4659,12.05999 12.69005,18.0968 0,0 -42.40621,87.71413 -42.40621,87.71413 l 0,0 c -4.19532,-6.1121 -8.38865,-12.2254 -12.56828,-18.34926 -10.08432,-14.75728 -20.28191,-29.42778 -30.30174,-44.23358 -11.89796,-17.36687 -23.96632,-34.60262 -35.94966,-51.90441 -9.86319,-13.99541 -19.59295,-28.09658 -29.66391,-41.92842 -8.51295,-11.68017 -17.31642,-23.19519 -27.78925,-33.03381 -12.43374,-11.41609 -25.51831,-22.08103 -38.83514,-32.32578 -15.88428,-13.08151 -32.46092,-25.21798 -48.27529,-38.40913 -21.18456,-18.82905 -42.25971,-37.87592 -62.52572,-57.78646 -19.69096,-18.73129 -39.11146,-37.76306 -59.34308,-55.86342 -14.20613,-13.9121 -28.44405,-27.78904 -43.4737,-40.70858 0,0 41.1178,-89.37465 41.1178,-89.37465 z"
       inkscape:connector-curvature="0" />
    <path
       style="fill:#000000;fill-opacity:1;stroke:none;stroke-opacity:1"
       id="path4469-5"
       d="m 375.64094,310.32729 c 8.06064,-15.87896 19.15315,-29.87812 28.62386,-44.93522 8.63631,-14.91912 16.00052,-30.47987 23.12669,-46.11434 6.53232,-15.0176 13.19675,-29.98307 19.65583,-45.02924 6.36088,-14.6628 12.82203,-29.28607 19.25716,-43.91949 5.6605,-12.8727 11.30291,-25.75256 16.94318,-38.633266 4.23178,-8.116031 6.63608,-17.190467 11.03699,-25.217702 9.50601,-17.340634 -1.5843,6.103628 6.37204,-11.318527 2.73992,-18.931525 -18.75057,-14.87048 -30.41794,-12.053751 -16.74114,5.750328 -33.85868,6.525551 -50.91627,8.397993 -16.32215,2.734083 -32.41974,7.376753 -48.67877,10.761798 -7.5405,1.368705 -15.07694,2.646774 -22.60587,4.139882 0,0 -71.83144,70.975933 -71.83144,70.975933 l 0,0 c 7.4889,-1.81153 14.98631,-3.50021 22.57826,-4.19977 16.1667,-3.51057 32.28894,-7.06679 48.33427,-11.43253 17.23831,-2.66955 34.6187,-2.00427 51.67545,-7.3349 8.32551,-2.64281 5.88256,-2.0038 13.70759,-4.00551 7.76352,-1.98597 6.01376,-5.54538 3.95359,-0.52147 -6.43876,11.94494 -11.54353,24.44922 -16.9769,36.83638 -5.61903,12.8496 -11.23599,25.70005 -16.82588,38.56114 -6.33902,14.59295 -12.64273,29.19975 -19.0205,43.77749 -6.62846,14.98979 -12.98557,30.09053 -19.91581,44.95772 -7.07262,15.26497 -14.39137,30.49271 -23.5577,44.69486 -9.89354,15.16764 -20.10388,30.12778 -29.81606,45.40526 0,0 85.29854,-53.79259 85.29854,-53.79259 z"
       inkscape:connector-curvature="0" />
    <path
       style="fill:#000000;fill-opacity:1;stroke:none;stroke-opacity:1"
       id="path4550"
       d="m 644.67906,489.56693 c 31.10346,-6.32692 61.54553,-16.70284 91.90871,-26.89786 36.11239,-12.20696 71.86384,-25.89578 107.61008,-39.57984 17.8696,-6.91756 35.69755,-13.99234 53.57152,-20.89332 15.1466,-6.5917 23.63391,-3.78792 29.97289,14.6604 4.43039,24.92447 6.81617,50.30484 11.06297,75.33084 5.22956,28.43883 11.96259,56.42073 19.11178,84.22077 4.29833,16.41425 8.67277,32.79869 12.94637,49.22251 3.31932,12.80259 6.5699,25.63128 9.81953,38.46018 3.22474,12.7433 6.44545,25.4881 9.66688,38.23264 3.23492,12.79542 6.47074,25.5905 9.70571,38.38592 2.1578,8.53294 1.079,4.26693 3.2369,12.79986 0,0 -58.2425,68.55285 -58.2425,68.55285 l 0,0 c -2.15714,-8.52979 -1.07987,-4.27006 -3.23701,-12.79984 -3.23574,-12.79463 -6.47141,-25.58927 -9.70791,-38.3836 -3.22304,-12.74057 -6.44703,-25.4808 -9.67284,-38.22032 -3.25275,-12.84604 -6.50994,-25.69047 -9.72647,-38.54999 -4.16447,-16.7287 -8.24749,-33.48736 -12.14761,-50.31033 -6.59924,-28.36666 -13.36037,-56.6913 -18.95705,-85.3827 -4.59942,-24.09356 -7.83884,-48.46255 -11.80649,-72.67338 -0.0379,-0.1619 -1.40058,-7.094 -2.34671,-8.1038 -4.39441,-4.69014 -13.71596,2.41017 -18.19623,3.05728 -17.37634,6.30996 -34.79414,12.44836 -52.20212,18.62781 -35.57387,12.73728 -71.19283,25.28871 -106.7962,37.90334 -31.35554,10.78931 -62.90837,20.67624 -94.31601,31.18724 0,0 48.74127,-78.84647 48.74127,-78.84647 z"
       inkscape:connector-curvature="0" />
  </g>
</svg>
