<?xml version="1.0" encoding="UTF-8" standalone="no"?>
<!-- Created with Inkscape (http://www.inkscape.org/) -->

<svg
   xmlns:dc="http://purl.org/dc/elements/1.1/"
   xmlns:cc="http://creativecommons.org/ns#"
   xmlns:rdf="http://www.w3.org/1999/02/22-rdf-syntax-ns#"
   xmlns:svg="http://www.w3.org/2000/svg"
   xmlns="http://www.w3.org/2000/svg"
   xmlns:sodipodi="http://sodipodi.sourceforge.net/DTD/sodipodi-0.dtd"
   xmlns:inkscape="http://www.inkscape.org/namespaces/inkscape"
   width="300mm"
   height="300mm"
   viewBox="0 0 1062.9921 1062.9921"
   id="svg2"
   version="1.1"
   inkscape:version="0.91 r13725"
   sodipodi:docname="science.svg"
   inkscape:export-filename="/home/blue/Pictures/science.png"
   inkscape:export-xdpi="8.4666672"
   inkscape:export-ydpi="8.4666672">
  <defs
     id="defs4">
    <filter
       inkscape:collect="always"
       style="color-interpolation-filters:sRGB"
       id="filter6497"
       x="-0.6392123"
       width="2.2784246"
       y="-0.65950477"
       height="2.3190095">
      <feGaussianBlur
         inkscape:collect="always"
         stdDeviation="10.521426"
         id="feGaussianBlur6499" />
    </filter>
  </defs>
  <sodipodi:namedview
     id="base"
     pagecolor="#ffffff"
     bordercolor="#666666"
     borderopacity="1.0"
     inkscape:pageopacity="0.0"
     inkscape:pageshadow="2"
     inkscape:zoom="0.20567554"
     inkscape:cx="82.111069"
     inkscape:cy="1550.6506"
     inkscape:document-units="px"
     inkscape:current-layer="layer1"
     showgrid="false"
     inkscape:window-width="1280"
     inkscape:window-height="1000"
     inkscape:window-x="0"
     inkscape:window-y="24"
     inkscape:window-maximized="1" />
  <metadata
     id="metadata7">
    <rdf:RDF>
      <cc:Work
         rdf:about="">
        <dc:format>image/svg+xml</dc:format>
        <dc:type
           rdf:resource="http://purl.org/dc/dcmitype/StillImage" />
        <dc:title></dc:title>
      </cc:Work>
    </rdf:RDF>
  </metadata>
  <g
     inkscape:label="Layer 1"
     inkscape:groupmode="layer"
     id="layer1"
     transform="translate(0,10.629921)">
    <path
       style="fill:#372aff;fill-opacity:1;stroke:none;stroke-width:5.52299976;stroke-miterlimit:4;stroke-dasharray:none;stroke-opacity:1"
       id="path4186"
       d="m 992.84994,139.18388 c -0.4707,0.66201 -0.9365,1.32765 -1.4123,1.98613 -3.1238,4.32353 -0.888,1.05509 -4.034,5.87006 -0.7688,1.17673 -3.0767,4.70597 -2.3133,3.52565 18.07526,-27.95067 22.17166,-35.07815 14.7971,-22.47812 -4.211,7.23707 -6.9297,15.1629 -9.906,22.94749 -2.7371,6.33537 -5.1299,12.81613 -8.0013,19.09221 -8.3032,16.58766 -18.1124,32.62242 -29.8447,46.99279 -3.3405,4.35914 -7.7244,7.67266 -11.5112,11.57621 -3.603,3.68597 -7.9386,6.4623 -12.3587,9.04891 -4.5256,2.86621 -9.3185,4.85706 -14.3825,6.49608 -7.7039,1.61008 -15.6477,1.33793 -23.4685,1.10207 -8.0109,-0.24121 -15.9374,-0.74089 -23.8124,-2.27199 -6.8941,-1.50237 -13.6199,-3.66079 -20.3373,-5.79683 -7.5164,-2.21063 -14.3713,-6.12701 -21.165,-9.94133 -5.7395,-2.92445 -11.0048,-6.66558 -16.3367,-10.25887 -4.708,-3.82207 -9.1105,-8.01312 -13.6736,-12.01905 -4.7516,-4.52637 -9.9227,-8.49336 -15.3735,-12.12413 -6.9119,-4.2001 -13.913,-8.25187 -21.1368,-11.89229 -8.4031,-3.9125 -17.1033,-7.20697 -26.0284,-9.70759 -7.7297,-1.8002 -15.714,-2.14185 -23.6061,-1.55075 -5.833,1.02217 -11.6982,1.9495 -17.3678,3.70471 -4.7028,1.60403 -9.1435,3.85576 -13.5689,6.09074 -6.0537,2.76054 -11.7533,6.03284 -17.2654,9.73776 -6.7758,5.45988 -11.94504,12.56949 -17.17614,19.4475 -6.3297,7.39865 -12.1636,15.25008 -17.3832,23.47298 33.04974,-53.28861 13.5173,-20.66581 6.8401,-7.71155 -3.3673,7.01195 -6.2705,14.23544 -9.3519,21.37676 -3.1749,6.91079 -5.4448,14.11999 -7.3288,21.46914 -1.7735,7.29561 -3.9424,14.48364 -5.6324,21.79909 -1.778,7.68326 -3.0593,15.46416 -4.8003,23.15589 -1.6506,7.03421 -3.7733,13.94368 -5.9257,20.83683 -2.1132,6.68882 -4.2752,13.36217 -6.4282,20.03826 -5.11,17.6803 -16.7857,32.25787 -27.2199,47.25017 -0.5933,0.71068 -1.1551,1.44915 -1.7802,2.13227 -2.2845,2.49664 -1.5963,1.257 -3.6274,3.94655 -0.5469,0.72427 -2.0237,3.01385 -1.5302,2.25218 43.6822,-67.40146 2.2747,-3.27232 -2.9757,4.87288 -3.5173,4.92901 -7.8305,9.04062 -12.6845,12.61691 -4.3389,3.00934 -9.0421,5.43014 -13.7237,7.85064 -4.5399,2.14221 -8.7906,4.95862 -13.6125,6.40533 -5.185,1.53623 -10.6905,1.88046 -16.0793,1.90984 -6.2313,0.29607 -12.4864,-0.16852 -18.7081,-0.54704 -7.1894,-0.79552 -14.3314,-2.01381 -21.4027,-3.53214 -7.4587,-1.6939 -14.5513,-4.7148 -21.4413,-7.98214 -5.7492,-2.57528 -11.187,-5.78474 -16.3815,-9.33561 -4.8407,-3.4896 -9.8068,-6.75844 -14.9805,-9.73533 -7.0971,-3.39422 -13.5746,-7.86719 -20.3245,-11.8672 -5.9634,-3.96007 -12.0302,-7.74089 -18.1755,-11.41463 -5.729,-3.9979 -11.9977,-7.07632 -18.2693,-10.11005 -6.9161,-3.39824 -14.3571,-5.51734 -21.1806,-9.09435 -5.3749,-3.26912 -11.0957,-5.834 -16.9442,-8.11461 0,0 19.0486,-30.88469 19.0486,-30.88469 l 0,0 c 5.9846,2.3331 11.8595,4.93104 17.3277,8.33296 6.6819,3.69164 14.0755,5.79797 20.8975,9.22132 6.4153,3.02831 12.9728,5.82781 18.6886,10.1085 6.1038,3.727 12.1682,7.51238 18.0921,11.5218 6.6901,4.05546 13.1493,8.49041 20.3071,11.72552 5.3176,2.96 10.4677,6.1326 15.349,9.77298 4.9878,3.50443 10.2581,6.62407 15.7979,9.17728 6.6172,3.20653 13.4276,6.11138 20.6689,7.58666 6.93,1.4354 13.9344,2.53624 20.9869,3.15125 6.1684,0.31286 12.3456,0.64165 18.5202,0.26408 5.1027,-0.2611 10.2694,-0.63522 15.0709,-2.53579 4.49,-2.00946 8.8009,-4.39527 13.1867,-6.61956 4.5251,-2.40682 9.0575,-4.86277 13.0821,-8.06643 4.4957,-3.78945 8.4498,-8.12139 11.598,-13.11139 -5.974,9.27836 -24.0552,37.00875 -17.9219,27.83488 9.544,-14.27529 17.1202,-28.26741 27.9131,-41.01487 7.2626,-10.89511 7.0305,-10.582 -16.2328,25.59139 -0.548,0.85206 1.0638,-1.72693 1.5216,-2.63061 1.5029,-2.96829 2.7349,-6.12327 3.694,-9.30378 2.1522,-6.67522 4.3112,-13.34828 6.4507,-20.02759 2.1852,-6.87062 4.3709,-13.74632 6.1778,-20.7286 1.8981,-7.66096 3.2442,-15.41772 4.8418,-23.13923 1.6052,-7.35713 3.5956,-14.58861 5.5582,-21.85929 1.8495,-7.43392 3.633,-14.86392 6.9035,-21.84107 3.0489,-7.20778 6.1567,-14.38503 9.2314,-21.57987 8.9717,-18.29418 20.119,-35.41257 31.4632,-52.31177 5.4553,-8.03308 11.38284,-15.72341 17.56064,-23.21431 5.4509,-7.01208 10.9274,-14.23362 18.3981,-19.23213 5.7255,-3.6967 11.737,-6.83935 17.834,-9.87929 4.581,-2.22467 9.2173,-4.39463 14.1514,-5.72835 5.8827,-1.47519 11.9014,-2.51127 17.9368,-3.08682 8.2509,-0.27299 16.5033,0.29721 24.532,2.35251 9.0829,2.67789 17.9302,6.17951 26.5601,10.06666 7.4145,3.58443 14.5482,7.71415 21.661,11.86037 5.6772,3.59914 10.902,7.74156 15.7824,12.37316 4.5564,3.80656 8.9368,7.80333 13.4137,11.68914 5.2091,3.59597 10.3699,7.314 15.9598,10.299 6.5547,3.77593 13.2079,7.46936 20.5605,9.47317 6.5871,2.08117 13.1858,4.1809 19.9566,5.59107 7.652,1.41632 15.3831,1.94241 23.1567,2.20094 7.5519,0.0825 15.2725,0.17884 22.5568,-2.10644 4.8341,-1.79131 9.3466,-4.25889 13.7328,-6.96136 4.2058,-2.70796 8.1555,-5.7454 11.6319,-9.36291 3.9825,-3.59794 7.6751,-7.46683 10.9862,-11.70085 7.455,-10.19502 17.191,-26.17194 -14.0448,22.54993 -0.6169,0.96235 1.2488,-1.9169 1.8151,-2.90999 0.5828,-1.02213 1.0751,-2.09333 1.6296,-3.1311 0.5301,-0.99179 1.0828,-1.9713 1.6241,-2.95695 3.0008,-6.28131 5.5329,-12.7326 8.2789,-19.13123 3.3342,-7.72198 5.5521,-15.91707 9.6241,-23.32511 9.3766,-17.19919 20.3398,-33.65167 32.13786,-49.29446 0,0 -15.32326,33.4131 -15.32326,33.4131 z"
       inkscape:connector-curvature="0" />
    <path
       inkscape:connector-curvature="0"
       d="m 958.97354,73.220986 c -0.8124,-0.004 -1.6247,-0.0123 -2.4371,-0.009 -5.3339,0.0201 -1.3748,0.10741 -7.1211,-0.14116 -1.4043,-0.0606 -5.6174,-0.241 -4.2133,-0.17371 33.2479,1.59267 41.4273,2.41561 26.8901,1.06892 -8.3353,-0.79374 -16.361,-3.20156 -24.422,-5.31771 -6.7439,-1.46624 -13.4052,-3.29716 -20.1791,-4.61972 -18.3192,-2.91522 -37.0665,-4.28433 -55.5813,-3.12074 -5.4892,0.17546 -10.7363,1.80825 -16.1151,2.61178 -5.0949,0.78099 -9.8773,2.68733 -14.5547,4.77297 -4.9661,2.00838 -9.3765,4.74404 -13.6589,7.90503 -5.7967,5.32351 -10.2035,11.9385 -14.5681,18.43234 -4.4711,6.651474 -8.6829,13.385064 -12.0263,20.677534 -2.7954,6.47857 -4.9595,13.20267 -7.1369,19.90666 -2.5822,7.39707 -3.3927,15.2501 -4.2504,22.99398 -0.9669,6.3687 -0.9938,12.82765 -1.1796,19.25461 0.3637,6.0533 1.2051,12.07305 1.8025,18.1157 0.9107,6.4989 1.1223,13.01295 0.8977,19.55842 -0.6131,8.06464 -1.3987,16.1155 -2.6484,24.10763 -1.7156,9.10912 -4.1067,18.09967 -7.2739,26.81054 -3.0401,7.33123 -7.414,14.01968 -12.4922,20.08963 -4.2291,4.14544 -8.3997,8.37221 -13.1294,11.95773 -4.0435,2.8877 -8.4607,5.18518 -12.8554,7.47997 -5.7705,3.31204 -11.7506,6.03801 -17.9732,8.35962 -8.3851,2.32619 -17.1751,2.3856 -25.8128,2.63036 -9.701,0.83421 -19.4812,1.00155 -29.2054,0.45333 62.5656,4.18363 24.6715,1.05332 10.2527,-1.06614 -7.6608,-1.34834 -15.2232,-3.19703 -22.8226,-4.85295 -7.4665,-1.44578 -14.64834,-3.80084 -21.71914,-6.55109 -6.9628,-2.80886 -14.0686,-5.23379 -20.999,-8.12206 -7.2805,-3.03118 -14.351,-6.52273 -21.6169,-9.5889 -6.6788,-2.75646 -13.5313,-5.0566 -20.3878,-7.3231 -6.6676,-2.17924 -13.3509,-4.30984 -20.0313,-6.44946 -17.3471,-6.14705 -35.9974,-5.15014 -54.2614,-5.40394 -0.9233,0.0686 -1.8508,0.0944 -2.7701,0.20475 -3.3602,0.40271 -1.9517,0.56512 -5.321,0.64902 -0.9073,0.0228 -3.6285,-0.11105 -2.722,-0.0685 80.2304,3.76392 3.9849,0.0577 -5.6942,-0.4197 -6.0552,-0.0127 -11.9098,1.09747 -17.6444,2.95915 -4.9737,1.77332 -9.6813,4.1856 -14.376,6.58046 -4.3861,2.44174 -9.1515,4.25581 -13.1366,7.33206 -4.2693,3.31926 -7.7566,7.59329 -10.9198,11.95612 -3.8709,4.89212 -7.1375,10.24668 -10.4546,15.52396 -3.5419,6.30683 -6.7125,12.82134 -9.5981,19.45326 -2.9686,7.04899 -4.6454,14.57363 -6.0039,22.0771 -1.2563,6.17306 -1.8157,12.4625 -1.956,18.75322 0.016,5.96719 -0.2203,11.90796 -0.8149,17.84726 -1.376,7.7457 -1.5142,15.61632 -2.1956,23.4327 -0.2556,7.15401 -0.7171,14.28764 -1.3114,21.42261 -0.088,6.98535 -1.2383,13.87388 -2.4263,20.73868 -1.2673,7.60081 -3.88,14.88329 -4.948,22.51317 -0.4743,6.27303 -1.7226,12.41698 -3.2762,18.49915 0,0 36.1995,2.51094 36.1995,2.51094 l 0,0 c 1.5903,-6.22328 2.9015,-12.51169 3.3222,-18.93805 0.8924,-7.58148 3.4878,-14.81787 4.6798,-22.35701 1.2762,-6.97846 2.8212,-13.93912 2.6719,-21.07863 0.5276,-7.1322 0.9833,-14.26646 1.1758,-21.41706 0.6013,-7.80017 0.7599,-15.63369 2.3005,-23.33609 0.6923,-6.04644 1.1141,-12.08058 0.9991,-18.16878 0.057,-6.09561 0.5923,-12.19658 1.7447,-18.18674 1.2489,-7.24627 2.8556,-14.47384 5.8753,-21.21875 2.8707,-6.4688 6.0566,-12.80305 9.6654,-18.89335 3.3394,-5.19585 6.6709,-10.40792 10.5751,-15.20651 3.185,-3.99521 6.4991,-7.97653 10.8411,-10.77187 4.2491,-2.47857 8.6997,-4.59241 13.0626,-6.8611 4.5925,-2.27572 9.2291,-4.52879 14.1776,-5.93334 5.6991,-1.44621 11.5235,-2.1363 17.4134,-1.78774 -11.0215,-0.55002 -44.0937,-2.00965 -33.0644,-1.65007 17.1628,0.55968 32.9489,2.55357 49.5974,1.20795 13.0863,0.44462 12.6966,0.45092 -30.2569,-1.71569 -1.0117,-0.051 2.0234,0.14126 3.0246,0.2958 3.2881,0.50772 6.5701,1.34446 9.7139,2.41788 6.6792,2.13974 13.3606,4.27253 20.0358,6.42492 6.8574,2.22672 13.719,4.45594 20.4466,7.05515 7.3324,2.92055 14.4211,6.34543 21.6277,9.54536 6.9147,2.98161 13.9518,5.57678 21.0046,8.21756 7.1196,2.82758 14.1974,5.70675 21.7736,7.11335 7.6345,1.72123 15.2785,3.37673 22.9175,5.06929 20.09584,3.3661 40.50334,4.27887 60.84754,4.90402 9.7071,0.24606 19.4109,-0.0913 29.0984,-0.74826 8.8747,-0.34524 17.9347,-0.58912 26.3498,-3.749 6.34,-2.49981 12.3966,-5.55491 18.4194,-8.73935 4.477,-2.42716 8.9417,-4.9313 12.9002,-8.16441 4.6262,-3.92188 8.9747,-8.21004 12.9587,-12.78018 5.0287,-6.54699 9.3731,-13.58643 12.38,-21.30928 3.1151,-8.94242 5.4235,-18.17321 7.2918,-27.45197 1.4063,-8.11446 2.2058,-16.31848 2.9797,-24.51508 0.3823,-6.71098 0.059,-13.37085 -0.8618,-20.03592 -0.4393,-5.92087 -1.1355,-11.80964 -1.6859,-17.71208 0.1122,-6.32878 0.097,-12.68939 0.9273,-18.9717 0.7498,-7.52724 1.624,-15.08655 4.2789,-22.22985 2.146,-6.56622 4.2838,-13.15273 7.0822,-19.47738 3.3068,-7.04436 7.3833,-13.6345 11.7021,-20.103294 4.3325,-6.186 8.7522,-12.51711 14.8534,-17.1062 4.2722,-2.88541 8.9067,-5.11537 13.6585,-7.10586 4.6512,-1.84075 9.4209,-3.28139 14.3865,-3.99938 5.2444,-1.14072 10.5401,-1.88796 15.9105,-2.11247 12.6293,-0.11964 31.2869,1.27525 -26.5102,-1.72211 -1.1417,-0.0592 2.2855,0.10173 3.4226,0.22007 1.1703,0.12174 2.3277,0.34579 3.4942,0.49955 1.1149,0.14701 2.233,0.26849 3.3496,0.40278 6.8534,1.2204 13.572,2.92087 20.3723,4.41678 8.2187,1.78878 16.1715,4.7605 24.5648,5.76672 19.4417,2.3991 39.2007,3.07364 58.7881,2.5978 0,0 -36.0842,-7.01177 -36.0842,-7.01177 z"
       id="path4188"
       style="fill:#372aff;fill-opacity:1;stroke:none;stroke-width:5.52299976;stroke-miterlimit:4;stroke-dasharray:none;stroke-opacity:1" />
    <path
       style="fill:#008000;fill-opacity:1;stroke:none;stroke-width:5.52299976;stroke-miterlimit:4;stroke-dasharray:none;stroke-opacity:1"
       id="path4192"
       d="m 973.78214,144.79676 c -2.0112,-3.80148 -4.6092,-7.24224 -7.0252,-10.78729 -2.7377,-4.36619 -5.6511,-8.61616 -8.4836,-12.92091 -2.115,-3.12025 -3.7831,-6.51881 -5.8389,-9.67195 -1.5827,-2.10174 -3.1,-4.24339 -4.4748,-6.48689 -1.2714,-2.1365 -2.4126,-4.34654 -3.5547,-6.553774 -1.3278,-2.18939 -2.0423,-4.62773 -2.8353,-7.03877 -0.1373,-0.38584 -0.2743,-0.7717 -0.4114,-1.15755 0,0 10.8632,-14.67126 10.8632,-14.67126 l 0,0 c 0.1499,0.39596 0.3001,0.79179 0.4501,1.18775 0.8023,2.32463 1.318,4.75244 2.6153,6.87145 1.1218,2.17806 2.2392,4.35976 3.4576,6.48593 1.3273,2.25124 2.7826,4.416 4.3631,6.49846 2.1401,3.14986 3.5774,6.733804 5.7208,9.891994 2.7304,4.35595 5.7032,8.55072 8.4159,12.91784 2.4609,3.54008 4.9801,7.03964 7.4788,10.55144 0,0 -10.7408,14.88352 -10.7408,14.88352 z"
       inkscape:connector-curvature="0" />
    <path
       style="fill:#008000;fill-opacity:1;stroke:none;stroke-width:5.52299976;stroke-miterlimit:4;stroke-dasharray:none;stroke-opacity:1"
       id="path4196"
       d="m 878.37484,211.78206 c -4.3006,-5.64399 -8.1884,-11.55363 -11.844,-17.63071 -4.3132,-7.25693 -8.1384,-14.78852 -12.3485,-22.10239 -2.9542,-5.26456 -6.4961,-10.15005 -9.8211,-15.17676 -2.5242,-3.37399 -4.8837,-6.86635 -7.5125,-10.15985 -1.7641,-2.32334 -3.5464,-4.6186 -5.4049,-6.86706 -1.0961,-1.32084 -2.03,-2.75929 -2.9351,-4.21361 0,0 10.5765,-14.88284 10.5765,-14.88284 l 0,0 c 0.8381,1.40677 1.6977,2.80372 2.7194,4.08766 1.843,2.2964 3.6825,4.57263 5.3501,7.00391 2.622,3.39473 5.011,6.95023 7.5193,10.42996 3.2803,5.13695 6.8082,10.11672 9.7321,15.47417 4.1874,7.3454 7.7394,15.04469 12.1882,22.24695 3.6154,5.86727 7.3714,11.67478 12.1016,16.72426 0,0 -10.3211,15.06631 -10.3211,15.06631 z"
       inkscape:connector-curvature="0" />
    <path
       style="fill:#008000;fill-opacity:1;stroke:none;stroke-width:5.52299976;stroke-miterlimit:4;stroke-dasharray:none;stroke-opacity:1"
       id="path4198"
       d="m 776.03814,264.65041 c -2.5737,-5.83694 -5.4911,-11.51781 -8.351,-17.21835 -3.6223,-7.16399 -7.355,-14.27093 -11.1007,-21.37088 -2.7515,-5.13396 -5.3732,-10.33487 -8.0318,-15.51694 -2.4877,-4.81858 -4.9853,-9.63208 -7.4729,-14.45087 -2.2363,-4.10303 -4.2524,-8.29597 -5.9932,-12.63079 -0.2133,-0.53399 -0.4266,-1.06797 -0.6398,-1.60196 0,0 10.7598,-14.57934 10.7598,-14.57934 l 0,0 c 0.2037,0.54848 0.4076,1.09694 0.6113,1.64542 1.5972,4.37037 3.4352,8.60049 5.7319,12.65837 2.4743,4.8431 4.939,9.69094 7.4128,14.53428 2.672,5.19644 5.3798,10.37453 7.9584,15.61851 3.6062,7.21417 7.2247,14.42243 10.9543,21.57389 2.8984,5.51343 5.7426,11.06598 8.9257,16.42196 0,0 -10.7648,14.9167 -10.7648,14.9167 z"
       inkscape:connector-curvature="0" />
    <path
       style="fill:#008000;fill-opacity:1;stroke:none;stroke-width:5.52299976;stroke-miterlimit:4;stroke-dasharray:none;stroke-opacity:1"
       id="path4200"
       d="m 742.65414,310.89143 c -2.9113,-5.48928 -6.4586,-10.61627 -9.7035,-15.91329 -4.2987,-7.23784 -8.2529,-14.67301 -12.1446,-22.13535 -3.7142,-7.1217 -7.3978,-14.25913 -11.0753,-21.39988 -3.3067,-6.50882 -6.7118,-12.96709 -10.0385,-19.46534 -2.8618,-5.56612 -5.7556,-11.11556 -8.6462,-16.66672 -1.9442,-3.70802 -3.9083,-7.40547 -5.8683,-11.10512 -1.4152,-2.91745 -3.3317,-5.54951 -5.4213,-8.01446 -1.8614,-2.07046 -3.4376,-4.35699 -4.8718,-6.73609 -0.8152,-1.55578 -1.8661,-2.95956 -2.9927,-4.29882 0,0 10.2771,-15.00789 10.2771,-15.00789 l 0,0 c 1.2467,1.36297 2.4719,2.78619 3.3093,4.44611 1.3417,2.33212 2.7962,4.59894 4.5701,6.63218 2.1583,2.56858 4.2392,5.25118 5.7511,8.26032 1.8881,3.79274 3.7718,7.58752 5.6756,11.3723 2.8399,5.60722 5.6767,11.21586 8.5437,16.8093 3.3489,6.50513 6.6167,13.0521 9.9775,19.55134 3.657,7.16564 7.2958,14.34068 10.9972,21.48352 3.8864,7.40729 7.7486,14.83602 12.1022,21.98393 3.2425,5.23477 6.6827,10.3377 10.2991,15.32044 0,0 -10.7408,14.88353 -10.7408,14.88353 z"
       inkscape:connector-curvature="0" />
    <path
       style="fill:#008000;fill-opacity:1;stroke:none;stroke-width:5.52299976;stroke-miterlimit:4;stroke-dasharray:none;stroke-opacity:1"
       id="path4202"
       d="m 696.79934,322.0725 c -2.0381,-4.52055 -4.2889,-8.94237 -6.5087,-13.37555 -3.1489,-6.29065 -6.3937,-12.53211 -9.6571,-18.76383 -2.3872,-4.53617 -4.7501,-9.08505 -7.135,-13.62245 -1.8274,-3.44779 -3.5829,-6.93301 -5.3815,-10.39586 -1.6817,-3.11893 -3.1261,-6.37435 -4.9816,-9.39553 -1.8065,-2.72362 -3.931,-5.2114 -5.8896,-7.82369 -1.7392,-2.53615 -3.4267,-5.09501 -5.2486,-7.57399 -1.6504,-2.2092 -3.06914,-4.57323 -4.41364,-6.97671 -1.2397,-2.19915 -2.29,-4.4999 -3.584,-6.66756 -1.0867,-1.57925 -2.1981,-3.14012 -3.2655,-4.73259 0,0 10.49894,-14.88384 10.49894,-14.88384 l 0,0 c 1.0415,1.61126 2.1213,3.1962 3.2694,4.73401 1.4873,2.09554 2.4695,4.47976 3.7169,6.72238 1.2816,2.36669 2.611,4.71236 4.1858,6.89997 1.8045,2.49836 3.6181,4.9673 5.2144,7.60755 1.9389,2.68454 4.1856,5.11634 6.0002,7.8893 1.9637,3.02565 3.356,6.37484 5.0769,9.54061 1.7726,3.49059 3.5886,6.95918 5.3318,10.46458 2.3176,4.61919 4.6572,9.2272 6.9727,13.84751 3.1668,6.2883 6.3515,12.56765 9.633,18.7972 2.2596,4.29026 4.4894,8.60079 6.93,12.79179 0,0 -10.7648,14.9167 -10.7648,14.9167 z"
       inkscape:connector-curvature="0" />
    <path
       style="fill:#008000;fill-opacity:1;stroke:none;stroke-width:5.52299976;stroke-miterlimit:4;stroke-dasharray:none;stroke-opacity:1"
       id="path4204"
       d="m 635.117,310.53773 c -1.8943,-4.19582 -3.9921,-8.29633 -6.0605,-12.40814 -2.5971,-5.08968 -5.2143,-10.16876 -7.8873,-15.21901 -1.7319,-3.33379 -3.5073,-6.64457 -5.2576,-9.96874 -1.1999,-2.28279 -2.3815,-4.5753 -3.5617,-6.86835 -0.8817,-1.51687 -1.553,-3.0794 -2.006,-4.77012 0,0 11.0858,-14.49215 11.0858,-14.49215 l 0,0 c 0.1925,1.64188 0.733,3.04159 1.6051,4.45621 1.1804,2.30459 2.3607,4.60937 3.5216,6.924 1.701,3.39616 3.3769,6.80501 5.0963,10.19207 2.5578,5.13368 5.1702,10.23934 7.804,15.3344 2.0935,3.99292 4.1582,8.00492 6.425,11.90324 0,0 -10.7647,14.9167 -10.7647,14.9167 z"
       inkscape:connector-curvature="0" />
    <path
       style="fill:#008000;fill-opacity:1;stroke:none;stroke-width:5.52299976;stroke-miterlimit:4;stroke-dasharray:none;stroke-opacity:1"
       id="path4206"
       d="m 565.8096,368.25804 c -2.2148,-4.93199 -4.6903,-9.7409 -7.1302,-14.56372 -2.846,-5.50506 -5.7044,-11.00349 -8.5476,-16.50993 -2.5578,-4.89777 -5.06,-9.82416 -7.5915,-14.73544 -2.4469,-4.78034 -4.9285,-9.54295 -7.3716,-14.32518 -1.8767,-3.57351 -3.7678,-7.13899 -5.6328,-10.71857 -1.4301,-3.22355 -3.8494,-5.81039 -6.1861,-8.3943 -1.6033,-1.73182 -0.8436,-0.83606 -2.2808,-2.68599 0,0 10.382,-14.87772 10.382,-14.87772 l 0,0 c 1.2252,1.7822 0.5364,0.9081 2.0888,2.60437 2.4847,2.63565 5.0112,5.37273 6.6032,8.6553 1.8406,3.6357 3.6543,7.28446 5.4831,10.92602 2.4656,4.77552 4.8929,9.57083 7.3544,14.34855 2.5211,4.92475 5.0696,9.83538 7.5635,14.77413 2.8291,5.53705 5.6419,11.0822 8.4674,16.621 2.4498,4.69908 4.864,9.42132 7.5383,13.99833 0,0 -10.7408,14.88353 -10.7408,14.88353 z"
       inkscape:connector-curvature="0" />
    <path
       style="fill:#008000;fill-opacity:1;stroke:none;stroke-width:5.52299976;stroke-miterlimit:4;stroke-dasharray:none;stroke-opacity:1"
       id="path4208"
       d="m 542.8643,407.87292 c -3.5443,-6.06879 -7.219,-12.05791 -10.7681,-18.12473 -4.6917,-8.18298 -9.1083,-16.51998 -13.5183,-24.8569 -3.5597,-6.76768 -7.0709,-13.56067 -10.6069,-20.3407 -2.6229,-5.00558 -5.2327,-10.01797 -7.8286,-15.03763 -2.0646,-4.23897 -4.7445,-8.13153 -7.5022,-11.94068 -2.7067,-3.54836 -5.4758,-7.0138 -8.6445,-10.15882 -2.2705,-2.11712 -4.1905,-4.53353 -5.8614,-7.13941 -1.3098,-2.14131 -2.4435,-4.38311 -3.5864,-6.61598 -1.1517,-2.15185 -2.1207,-4.40593 -3.4131,-6.4784 0,0 10.5081,-14.92834 10.5081,-14.92834 l 0,0 c 1.4636,2.04348 2.4022,4.39496 3.5938,6.60241 1.1201,2.19681 2.226,4.40283 3.4523,6.54301 1.5325,2.55913 3.2799,4.9692 5.4156,7.06777 3.1758,3.27222 6.0261,6.7783 8.8201,10.38188 2.8328,3.87229 5.5816,7.83281 7.6873,12.15962 2.5811,5.06691 5.1461,10.14202 7.6941,15.22561 3.458,6.86266 6.9327,13.71686 10.4361,20.55652 4.304,8.37114 8.6457,16.72796 13.4124,24.8482 3.5089,5.89127 7.1863,11.68562 11.2132,17.23794 0,0 -10.5034,14.99862 -10.5034,14.99862 z"
       inkscape:connector-curvature="0" />
    <path
       style="fill:#008000;fill-opacity:1;stroke:none;stroke-width:5.52299976;stroke-miterlimit:4;stroke-dasharray:none;stroke-opacity:1"
       id="path4210"
       d="m 489.7861,410.26632 c -2.6651,-4.61066 -5.3169,-9.22813 -7.8811,-13.89692 -3.5481,-6.56183 -6.9715,-13.19013 -10.4312,-19.79873 -3.0715,-5.93839 -6.1285,-11.88422 -9.2155,-17.81457 -2.1882,-4.19642 -4.3959,-8.38231 -6.6214,-12.55923 -1.5368,-2.62303 -3.5717,-4.91152 -5.683,-7.0826 -1.9023,-1.98359 -3.7128,-3.99479 -5.8231,-5.76035 -1.2494,-1.01648 -2.4555,-2.08419 -3.6644,-3.14791 0,0 10.0285,-15.09686 10.0285,-15.09686 l 0,0 c 1.2278,1.02531 2.4229,2.09076 3.7016,3.05326 2.1612,1.81026 4.073,3.78609 5.9469,5.89211 2.2624,2.27625 4.4202,4.71357 6.0843,7.4671 2.1219,4.28996 4.2605,8.57118 6.4166,12.84396 3.025,5.98339 6.075,11.95401 9.1338,17.92016 3.3747,6.63112 6.7858,13.24565 10.3974,19.75169 2.572,4.56334 5.1175,9.19204 8.3754,13.31219 0,0 -10.7648,14.9167 -10.7648,14.9167 z"
       inkscape:connector-curvature="0" />
    <path
       style="fill:#008000;fill-opacity:1;stroke:none;stroke-width:5.52299976;stroke-miterlimit:4;stroke-dasharray:none;stroke-opacity:1"
       id="path4212"
       d="m 381.6564,460.03015 c -1.6602,-2.80566 -3.3473,-5.59654 -4.9332,-8.44818 -2.1168,-3.84599 -4.1303,-7.74771 -6.1665,-11.63668 -1.8251,-3.48459 -3.608,-6.99096 -5.4121,-10.48643 -1.7562,-3.4101 -3.5086,-6.82237 -5.2456,-10.24238 -1.7281,-3.3014 -3.4048,-6.6294 -5.1329,-9.93081 -1.564,-3.08536 -3.1554,-6.1567 -4.7651,-9.21843 -1.275,-2.12972 -2.7246,-4.14612 -4.0534,-6.24178 -1.1264,-1.75795 -2.051,-3.62983 -3.007,-5.48229 -1.1206,-2.08685 -2.0882,-4.25828 -3.3143,-6.28605 -0.9903,-1.44735 -2.0064,-2.87501 -2.9541,-4.3509 0,0 7.4515,-10.51449 7.4515,-10.51449 l 0,0 c 0.9199,1.50242 1.9029,2.96232 2.9149,4.40424 1.3107,2.01393 2.263,4.22945 3.4045,6.34129 0.9499,1.81819 1.9243,3.62455 2.9483,5.40208 1.2993,2.17067 2.7289,4.25573 4.0572,6.40791 1.555,3.10019 3.1282,6.19129 4.729,9.26825 1.6813,3.33659 3.4137,6.64733 5.0945,9.98427 1.7669,3.40062 3.5169,6.81012 5.26,10.223 1.7899,3.51051 3.5965,7.01247 5.3778,10.52743 1.987,3.89747 3.9936,7.7856 6.1336,11.602 1.6054,2.79741 3.2287,5.5982 5.2073,8.1539 0,0 -7.5949,10.5243 -7.5949,10.5243 z"
       inkscape:connector-curvature="0" />
    <path
       style="fill:#008000;fill-opacity:1;stroke:none;stroke-width:5.52299976;stroke-miterlimit:4;stroke-dasharray:none;stroke-opacity:1"
       id="path4214"
       d="m 959.90154,177.40724 c -2.2563,-1.45148 -4.0656,-3.39919 -5.8436,-5.38221 -2.7999,-3.44004 -5.3486,-7.07066 -7.904,-10.69279 -2.4389,-3.40127 -4.5219,-7.0316 -6.5665,-10.67703 -1.5874,-2.93729 -3.1288,-5.89885 -4.6772,-8.85683 -1.1579,-2.16821 -2.2594,-4.36563 -3.3844,-6.55091 -1.2037,-2.36913 -2.4143,-4.73478 -3.6206,-7.10266 -1.2299,-2.42637 -2.5004,-4.83171 -3.7371,-7.25461 -1.2288,-2.35765 -2.4189,-4.73534 -3.6386,-7.09769 -1.2397,-2.41176 -2.4738,-4.82636 -3.7229,-7.23328 -1.3727,-2.72527 -2.7627,-5.44192 -4.1474,-8.161204 -1.5406,-3.07297 -3.4774,-5.92409 -5.2353,-8.87437 -1.5765,-2.80825 -3.4559,-5.42913 -5.2033,-8.13127 -0.7497,-1.26776 -1.546,-2.49333 -2.4335,-3.66814 0,0 7.3537,-10.56677 7.3537,-10.56677 l 0,0 c 0.915,1.21726 1.765,2.45809 2.4651,3.81527 1.681,2.77208 3.5587,5.41896 5.1685,8.23281 1.7581,2.97357 3.7141,5.83277 5.3179,8.89257 1.397,2.69799 2.7893,5.39844 4.1987,8.09 1.2296,2.41947 2.4746,4.831014 3.7132,7.245884 1.2085,2.36585 2.4467,4.71656 3.6462,7.08712 1.2506,2.41933 2.4675,4.8558 3.7248,7.27177 1.2183,2.35335 2.4316,4.7094 3.6507,7.06246 1.1222,2.19781 2.2651,4.38518 3.3475,6.60312 1.498,2.99251 2.9995,5.98417 4.5789,8.93471 1.9519,3.66306 4.0087,7.27575 6.3843,10.68426 2.5251,3.56862 5.0242,7.16106 7.8475,10.50418 1.7341,1.88389 3.5456,3.72449 5.8398,4.92413 0,0 -7.1232,10.90186 -7.1232,10.90186 z"
       inkscape:connector-curvature="0" />
    <path
       style="fill:#008000;fill-opacity:1;stroke:none;stroke-width:5.52299976;stroke-miterlimit:4;stroke-dasharray:none;stroke-opacity:1"
       id="path4216"
       d="m 933.44414,210.2689 c -2.764,-3.88058 -5.424,-7.82782 -7.9377,-11.87498 -3.6905,-6.22047 -7.051,-12.62953 -10.4164,-19.02947 -3.0167,-5.72599 -5.9673,-11.48633 -8.9429,-17.23369 -2.4619,-4.71811 -4.9072,-9.44476 -7.3378,-14.17917 -2.2699,-4.38068 -4.5072,-8.77819 -6.7777,-13.15852 -2.0497,-3.98472 -4.11,-7.96389 -6.1794,-11.93835 -1.6059,-3.08822 -3.1616,-6.19348 -5.004,-9.14881 -1.8691,-3.15529 -4.1709,-6.01206 -6.3483,-8.95213 -1.7972,-2.63401 -3.8025,-5.114974 -5.6297,-7.727374 -1.1854,-1.83781 -2.5633,-3.53758 -3.7997,-5.34019 -0.831,-1.14061 -0.4032,-0.5707 -1.2845,-1.70924 0,0 7.3222,-10.55919 7.3222,-10.55919 l 0,0 c 0.9118,1.15989 0.4531,0.57932 1.3763,1.74141 1.1989,1.83911 2.5894,3.53886 3.7591,5.39346 1.7301,2.68342 3.6702,5.21413 5.4868,7.8375 2.1692,2.97393 4.5298,5.815744 6.455,8.960664 1.8918,2.98551 3.4899,6.11838 5.0314,9.29876 2.0314,4.01041 4.0716,8.01615 6.1231,12.01626 2.2404,4.40304 4.5141,8.78909 6.7536,13.19252 2.4392,4.75266 4.8612,9.51382 7.2616,14.28612 2.9367,5.79023 5.8875,11.57325 8.8453,17.35279 3.3084,6.37715 6.6224,12.76128 10.4074,18.87331 2.5001,3.92218 5.0849,7.83061 8.255,11.25209 0,0 -7.4187,10.64633 -7.4187,10.64633 z"
       inkscape:connector-curvature="0" />
    <path
       style="fill:#5f8dd3;fill-opacity:1;stroke:none;stroke-width:5.52299976;stroke-miterlimit:4;stroke-dasharray:none;stroke-opacity:1"
       d="m 206.72653,21.75478 c -2.44067,-0.003 -4.88163,-0.01174 -7.32226,0.0059 -2.62177,0.03181 -5.24624,0.08592 -7.85352,0.388672 -2.8278,0.3526 -5.61634,0.97305 -8.47265,1.03125 -2.84177,0.28353 -5.66888,0.732023 -8.39063,1.626953 l 0,-0.002 -14.16211,11.136718 c 2.61825,-1.15446 5.42515,-1.720061 8.24414,-2.107421 0.0425,-0.0025 0.0845,-0.0072 0.12696,-0.0098 l -2.09961,1.380859 c 2.92145,1.07209 5.61543,2.586102 8.18359,4.326172 0.17883,0.145009 0.36149,0.283901 0.54102,0.427735 l -2.43946,0.603515 c -0.51149,2.21348 -1.04005,4.423843 -1.57031,6.632813 -0.55427,2.38154 -1.10881,4.760358 -1.66016,7.142578 -0.59277,2.56386 -1.18173,5.129249 -1.77343,7.693359 -0.60529,2.59638 -1.24641,5.18521 -1.82813,7.78711 -0.64682,2.8291 -1.28348,5.660228 -1.94336,8.486328 -0.74115,3.09186 -1.44947,6.191112 -2.13867,9.294922 -0.87471,3.91439 -1.78022,7.821573 -2.7207,11.720703 -0.84041,3.548434 -1.67473,7.100134 -2.51563,10.648444 -0.78673,3.41991 -1.58461,6.83595 -2.3457,10.26172 -0.96392,4.28247 -1.96216,8.55836 -2.97266,12.83007 -0.99967,4.28736 -1.9974,8.57463 -3,12.86133 -1.00877,4.36602 -2.01259,8.73213 -3.04883,13.0918 -1.00676,4.33585 -2.01165,8.6716 -3,13.01172 -1.17895,4.90058 -2.30933,9.81404 -3.62109,14.68164 -1.53666,5.59056 -3.3038,11.10893 -4.89453,16.68359 -1.26265,5.42098 -2.54273,10.83955 -3.80859,16.25977 -1.22038,5.21323 -2.444,10.42634 -3.63477,15.64648 -1.24425,5.33189 -2.50866,10.65977 -3.74219,15.99414 -1.23155,5.3477 -2.48925,10.68809 -3.74023,16.03125 -1.23465,5.18461 -2.39624,10.38603 -3.64063,15.56836 -1.23535,5.37212 -2.4575,10.74899 -3.72656,16.11328 -1.31894,5.74607 -2.65408,11.48574 -4.00391,17.22461 -1.28626,5.50329 -2.61177,10.99834 -3.86328,16.50977 -1.29611,5.48298 -2.5332,10.98055 -3.86523,16.45508 -1.28849,5.62163 -2.55755,11.24699 -3.86914,16.86328 -1.55613,6.85048 -3.11713,13.69971 -4.5918,20.56836 -1.76576,8.25229 -3.45706,16.51993 -4.9414,24.82812 -1.49284,8.08749 -3.39733,16.08325 -5.30469,24.08203 -1.8707,8.08026 -3.72895,16.16208 -5.61719,24.23828 -1.95206,8.50319 -3.95098,16.99494 -5.94531,25.48828 -1.92848,8.20696 -3.83689,16.42 -5.74024,24.63282 -1.90507,8.19373 -3.86185,16.37381 -5.73828,24.57422 -1.92105,8.2945 -3.8646,16.58357 -5.79883,24.875 -1.90801,8.23238 -3.84205,16.46059 -5.77343,24.6875 -1.80025,7.71381 -3.63491,15.41953 -5.4375,23.13281 -1.65136,6.93391 -3.24491,13.88023 -4.91992,20.80859 -1.36757,5.7269 -2.73527,11.45384 -4.07422,17.1875 -1.16649,4.93456 -2.36566,9.86113 -3.53516,14.79492 -0.86076,3.75477 -1.73126,7.52512 -2.08203,11.36914 -0.13611,2.90698 -0.0819,5.85845 0.45898,8.72461 l 0.006,0.0312 c 0.0188,0.11483 0.0275,0.23128 0.0488,0.34571 0.0242,0.0584 0.0411,0.11912 0.0645,0.17773 0.0497,0.23462 0.0956,0.46984 0.15235,0.70313 0.27021,0.85444 0.55056,1.71789 0.85937,2.57226 0.15318,0.59424 0.30031,1.19017 0.47071,1.7793 0.60043,1.69972 1.06041,3.44647 1.60742,5.16406 0.48883,1.79117 1.34631,3.43704 1.95703,5.18164 0.77075,1.92068 1.77884,3.72788 2.8418,5.49024 1.31214,2.11645 2.94006,3.99055 4.5957,5.82226 1.63875,1.77781 3.32619,3.50591 5.00976,5.23828 1.85598,1.81805 3.87037,3.41118 6.00196,4.86329 1.90381,1.34981 3.76806,2.75731 5.67187,4.10742 1.79133,1.36734 3.82888,2.28236 5.88672,3.125 1.88726,0.89359 3.87594,1.48526 5.84961,2.1289 1.6671,0.57302 3.40611,0.79243 5.15039,0.91211 1.75271,0.095 3.50751,0.0686 5.26172,0.0606 1.8431,-0.004 3.6862,-10e-4 5.5293,0 1.68503,10e-4 3.36963,0.002 5.05468,0.002 0.61139,-0.0368 1.22038,-0.10261 1.82813,-0.17578 1.03229,0.23129 2.62429,0.0174 3.32617,-0.0215 2.01063,-0.26722 3.95878,-0.74857 5.87305,-1.42188 0.27321,-0.10566 0.54098,-0.22559 0.8125,-0.33594 1.90446,-0.63445 3.77124,-1.36253 5.69336,-1.9414 1.80277,-0.52876 3.52306,-1.27208 5.16601,-2.19531 4.97184,-3.39966 10.72757,-5.79916 15.4336,-9.6836 2.11548,-1.43108 3.92836,-3.19911 5.50195,-5.23242 1.2313,-1.50575 2.23718,-3.17695 3.35937,-4.76562 l -1.95898,0.87695 c 0.87466,-1.50645 1.63972,-3.08044 2.33398,-4.67188 1.38558,-3.60274 2.27146,-7.37088 3.16016,-11.11914 1.13326,-4.94224 2.2387,-9.89044 3.375,-14.83203 1.33506,-5.73458 2.64086,-11.47564 3.94727,-17.2168 1.56204,-6.95469 3.20529,-13.8906 4.79101,-20.83984 1.79479,-7.71509 3.55833,-15.4378 5.35547,-23.15234 1.90645,-8.23272 3.81041,-16.46607 5.74024,-24.69336 1.93244,-8.29185 3.85517,-16.58428 5.80078,-24.87305 1.94402,-8.18464 3.80726,-16.38876 5.72265,-24.58008 1.92536,-8.20769 3.84782,-16.41732 5.74805,-24.63086 1.96785,-8.49953 3.92935,-16.99862 5.93945,-25.48828 1.8785,-8.07847 3.78758,-16.15025 5.6836,-24.22461 1.82711,-8.01749 3.6525,-16.02768 5.89062,-23.9414 2.34335,-8.1079 4.48456,-16.27285 6.55078,-24.45508 1.71533,-6.81254 3.34429,-13.64625 4.97852,-20.47852 1.30769,-5.6172 2.65752,-11.22416 3.98828,-16.83594 1.22665,-5.49909 2.54794,-10.97796 3.81055,-16.46874 1.31519,-5.4966 2.55748,-11.00708 3.83789,-16.51172 1.32763,-5.74405 2.66886,-11.48582 4.02734,-17.22266 1.23438,-5.37237 2.51711,-10.73513 3.78516,-16.09961 1.17603,-5.19827 2.43338,-10.37625 3.61914,-15.57227 1.24124,-5.34543 2.47761,-10.69229 3.73828,-16.0332 1.25301,-5.32983 2.4745,-10.66766 3.7168,-16 1.24083,-5.20848 2.44893,-10.42525 3.66015,-15.64062 1.26198,-5.42113 2.5102,-10.8433 3.77539,-16.26368 1.03892,-5.70332 1.89581,-11.43719 2.99024,-17.13085 0.97641,-4.9458 2.13209,-9.85095 3.24218,-14.76758 1.03315,-4.32968 2.05166,-8.66405 3.06641,-12.99805 0.99884,-4.36838 2.03034,-8.7279 3.05664,-13.08984 0.99675,-4.28806 1.99838,-8.57591 2.99805,-12.86328 0.98304,-4.27811 1.97825,-8.5512 3.00781,-12.81836 0.83257,-3.4091 1.62856,-6.82701 2.43555,-10.24219 0.81519,-3.55431 1.63744,-7.10986 2.45312,-10.66406 0.88105,-3.91298 1.7954,-7.81727 2.74219,-11.71485 0.75463,-3.08855 1.49058,-6.18239 2.19336,-9.2832 0.65812,-2.8265 1.34055,-5.647287 2.01172,-8.470707 0.62905,-2.59086 1.19725,-5.194675 1.80273,-7.791015 0.60339,-2.56137 1.21214,-5.121974 1.81446,-7.683594 0.55914,-2.38041 1.1137,-4.761498 1.66992,-7.142578 0.50143,-2.21569 1.00514,-4.429195 1.52539,-6.640625 l -1.43945,-1.214844 13.48046,-7.632812 c -0.44359,-0.914875 -0.94607,-1.798019 -1.48242,-2.658204 l 1.53711,-1.117187 c -0.75694,8.84e-4 -1.51454,-5.68e-4 -2.27148,0 -0.60174,-0.869006 -1.24258,-1.711365 -1.94531,-2.507813 -2.26412,-2.56957 -4.7864,-4.895927 -7.18165,-7.341796 -2.38899,-2.354501 -4.77969,-4.722787 -7.43164,-6.785157 -2.58211,-1.89001 -5.37559,-3.431881 -8.28125,-4.769531 -2.81957,-1.14946 -5.47682,-2.703979 -8.42578,-3.511719 -2.6068,-0.96398 -5.11613,-2.176988 -7.80078,-2.923828 -2.86196,-0.59045 -5.69003,-1.274998 -8.57226,-1.767578 -2.76157,-0.69845 -5.50839,-1.49915 -8.38086,-1.53125 -2.46363,-0.281101 -4.84918,-0.921713 -7.29883,-1.220703 -2.46486,-0.26409 -4.8859,-0.892503 -7.35547,-0.970703 -2.43072,10e-6 -4.86031,5.1e-4 -7.29102,0 -2.42865,0 -4.85846,9.3e-5 -7.28711,-0.0039 z m 1.01172,10.513672 c 2.12456,0.04158 4.2159,0.51437 6.31836,0.802735 2.46021,0.20635 4.85112,0.832518 7.28711,1.205078 2.83066,0.20194 5.60588,0.639087 8.36328,1.304687 2.83559,0.65905 5.69337,1.196179 8.5293,1.855469 2.65276,0.6242 5.15991,1.706001 7.69531,2.681641 2.91034,0.87648 5.62808,2.242329 8.41016,3.443359 2.8196,1.22557 5.52753,2.698533 8.05664,4.445313 1.97979,1.46015 3.79357,3.121902 5.56445,4.826172 -2.13381,-0.33099 -4.27312,-0.501371 -6.43164,-0.767579 -2.8771,-0.48871 -5.72055,-1.091601 -8.62695,-1.394531 -2.53503,-0.45754 -5.05968,-0.704119 -7.62109,-0.980469 -2.55208,-0.44084 -5.05838,-0.931122 -7.66407,-0.919921 -2.74056,-0.293301 -5.41279,-0.882874 -8.11523,-1.376954 -2.4739,-0.4367 -4.83937,-1.24905 -7.30469,-1.71875 -2.65027,-0.75677 -5.34245,-1.34514 -7.92969,-2.3125 -2.65564,-0.70634 -5.1848,-1.759928 -7.79297,-2.611328 -2.82928,-1.20124 -5.32773,-2.998037 -7.94335,-4.591797 -1.99784,-1.172578 -3.89113,-2.492151 -5.73047,-3.888671 2.24351,0.0034 4.48694,0.0069 6.73047,0.0078 2.43086,8.5e-4 4.86209,-2e-5 7.29296,0 0.30502,-0.01342 0.60861,-0.01571 0.91211,-0.0098 z m -20.11914,16.056641 c 1.29495,0.808288 2.60512,1.589835 3.97071,2.279297 2.60888,1.07057 5.27461,2.003075 7.9707,2.828125 2.58473,0.93293 5.25682,1.567657 7.89062,2.335937 2.46451,0.58967 4.90186,1.297823 7.375,1.851563 2.74619,0.4628 5.46128,1.06732 8.21875,1.462891 2.54416,0.22902 5.06939,0.41999 7.58594,0.86914 2.53714,0.48786 5.12078,0.566288 7.66992,0.960938 2.88302,0.4378 5.7644,0.845486 8.63282,1.373046 2.63576,0.531301 5.3297,0.590214 7.97265,1.058594 2.43798,0.52862 4.91397,0.792463 7.40039,0.939453 2.06656,0.0038 4.09389,0.398183 6.12696,0.72461 -0.385,1.652715 -0.76987,3.305334 -1.15235,4.958984 -0.59427,2.5707 -1.18415,5.143904 -1.77734,7.714844 -0.60428,2.59219 -1.24543,5.173784 -1.82617,7.771484 -0.6496,2.84061 -1.28871,5.683845 -1.95118,8.521485 -0.74354,3.10127 -1.45116,6.210946 -2.14257,9.324216 -0.8759,3.91813 -1.78306,7.82953 -2.72461,11.73243 -0.83791,3.53775 -1.6694,7.07565 -2.50782,10.61328 -0.79027,3.43511 -1.59102,6.86759 -2.35546,10.30859 -0.96562,4.28885 -1.96447,8.57152 -2.97657,12.84961 -0.99902,4.28684 -1.99658,8.57356 -3,12.85938 -1.01056,4.36488 -2.01705,8.73019 -3.05859,13.08789 -1.01483,4.34796 -2.03187,8.69428 -3.00977,13.05078 -1.15844,4.94188 -2.24847,9.90192 -3.20703,14.88672 -1.0755,5.67735 -1.98569,11.38063 -2.94336,17.07812 -1.26166,5.41538 -2.53854,10.82546 -3.80273,16.24024 -1.22167,5.21742 -2.4469,10.4338 -3.63867,15.6582 -1.24318,5.32765 -2.50574,10.65229 -3.73828,15.98242 -1.23154,5.34739 -2.48946,10.68837 -3.74024,16.03125 -1.23384,5.1803 -2.39517,10.37665 -3.63867,15.55469 -1.23788,5.38254 -2.46092,10.7698 -3.73242,16.14453 -1.31979,5.74978 -2.65704,11.49574 -4.00782,17.23828 -1.28534,5.49931 -2.60888,10.98859 -3.85937,16.49609 -1.29391,5.47445 -2.52846,10.96301 -3.85547,16.42969 -1.28987,5.64469 -2.5592,11.29442 -3.87305,16.9336 -1.56495,6.87776 -3.13603,13.75378 -4.77929,20.61328 -1.99991,8.18842 -4.0933,16.35473 -6.47656,24.4414 -2.26004,7.92616 -4.19048,15.92467 -5.98829,23.96875 -1.87327,8.09132 -3.73418,16.18422 -5.625,24.27149 -1.95228,8.50193 -3.95359,16.99404 -5.94726,25.48633 -1.92861,8.20841 -3.83627,16.42062 -5.74024,24.63476 -1.90386,8.19166 -3.85827,16.37219 -5.73437,24.57031 -1.92104,8.29441 -3.86654,16.58171 -5.80078,24.87305 -1.90692,8.22726 -3.83777,16.45192 -5.76758,24.67383 -1.79722,7.69905 -3.63043,15.38736 -5.42969,23.08594 -1.64649,6.91213 -3.23582,13.83718 -4.90429,20.74414 -1.36191,5.70965 -2.72343,11.41952 -4.04493,17.13867 -1.14697,4.90588 -2.30868,9.81024 -3.50195,14.70508 -0.7526,3.05741 -1.49568,6.12711 -2.48828,9.11718 -0.0137,0.0234 -0.0273,0.0469 -0.041,0.0703 -1.34805,2.15497 -2.96012,4.13775 -4.17773,6.37695 -1.12588,2.19264 -2.12851,4.45021 -3.14844,6.69336 -0.8841,1.94866 -1.90213,3.87041 -3.32226,5.48633 -1.49478,1.72449 -2.89308,3.53787 -4.54493,5.11914 -1.04448,1.0517 -2.08168,2.11146 -3.10937,3.17969 -1.61317,-0.004 -3.22739,-0.01 -4.83789,-0.11133 -1.74667,-0.13618 -3.47369,-0.39529 -5.18946,-0.75196 -1.71751,0.002 -3.43678,0.005 -5.15429,0.008 -1.74785,10e-4 -3.49523,0.006 -5.24219,-0.0586 -1.94279,-0.0935 -3.88282,-0.26666 -5.79102,-0.66015 -1.72034,-0.34056 -3.50542,-0.2635 -5.19531,-0.79883 -1.73496,-0.53487 -3.5064,-0.98612 -5.14258,-1.79102 -1.73858,-0.62298 -3.45605,-1.28512 -5.11523,-2.09961 -1.73383,-0.95061 -3.44815,-1.94837 -5.0957,-3.04101 -1.74282,-1.50844 -3.26156,-3.26769 -4.67578,-5.08399 -1.33302,-1.88679 -2.44416,-3.91173 -3.48047,-5.97461 -1.06804,-2.09132 -2.28271,-4.11578 -3.13282,-6.30859 -0.7831,-1.97832 -1.40993,-3.99905 -2.03906,-6.03125 -0.49262,-1.8976 -0.96669,-3.80241 -1.78515,-5.59375 -0.50295,-1.38474 -1.06615,-2.75391 -1.51172,-4.1582 0.20031,-0.28602 0.40287,-0.56985 0.62304,-0.84571 0.4042,-0.50644 0.82372,-0.92717 1.24805,-1.28711 0.007,-0.1248 0.007,-0.25032 0.0156,-0.375 0.37635,-3.7324 1.22564,-7.39703 2.03125,-11.05468 1.09472,-4.91782 2.22019,-9.82713 3.36132,-14.73438 1.34429,-5.71383 2.65122,-11.43697 3.95508,-17.16015 1.55844,-6.93262 3.19494,-13.84592 4.77539,-20.77344 1.79128,-7.70045 3.54848,-15.40942 5.3418,-23.10938 1.90566,-8.22754 3.80973,-16.45552 5.73828,-24.67773 1.93241,-8.29176 3.85325,-16.58631 5.79883,-24.875 1.9433,-8.18245 3.80906,-16.38334 5.72461,-24.57227 1.9254,-8.20915 3.84729,-16.41986 5.74804,-24.63476 1.96797,-8.49829 3.92816,-16.99575 5.9375,-25.48438 1.88108,-8.08954 3.79281,-16.1724 5.69141,-24.25781 1.94539,-8.00968 3.75179,-16.03813 5.23047,-24.14648 1.43915,-8.30681 3.17205,-16.55469 5,-24.78321 1.56008,-6.8789 3.1917,-13.74288 4.83008,-20.60351 1.31579,-5.63872 2.67785,-11.26538 4.01758,-16.89844 1.22768,-5.48985 2.54583,-10.96118 3.80664,-16.44336 1.31437,-5.49259 2.55643,-10.99931 3.83593,-16.5 1.32838,-5.74777 2.6719,-11.49381 4.03125,-17.23437 1.23682,-5.38281 2.52061,-10.75396 3.79102,-16.12891 1.17493,-5.19404 2.4326,-10.37072 3.61719,-15.5625 1.2413,-5.34511 2.47577,-10.69062 3.73633,-16.03125 1.25201,-5.32558 2.47347,-10.65826 3.71484,-15.98633 1.24183,-5.21274 2.45018,-10.43265 3.66211,-15.65234 1.26107,-5.41551 2.50983,-10.83507 3.77344,-16.25 1.66102,-5.53349 3.36567,-11.04965 4.91211,-16.61719 1.34501,-4.89469 2.56027,-9.82492 3.70703,-14.76953 1.04977,-4.33974 2.06134,-8.68868 3.07422,-13.03711 0.99323,-4.36896 2.02267,-8.72814 3.04687,-13.08984 0.99562,-4.28764 1.99607,-8.57472 2.99609,-12.86133 0.98443,-4.28455 1.98281,-8.56426 3.01368,-12.83789 0.83631,-3.42426 1.63672,-6.85672 2.44726,-10.28711 0.8127,-3.54363 1.63017,-7.085401 2.44336,-10.628911 0.88175,-3.91683 1.79872,-7.827055 2.74609,-11.728515 0.75685,-3.098 1.49639,-6.20219 2.20118,-9.3125 0.66091,-2.83801 1.34382,-5.668937 2.01758,-8.503907 0.62806,-2.58667 1.19821,-5.187167 1.80273,-7.779297 0.60508,-2.568169 1.2124,-5.134694 1.81641,-7.703124 0.13522,-0.575325 0.26945,-1.151052 0.40429,-1.726563 z M 119.82028,713.45009 c -0.41889,0.39791 -0.84743,0.78505 -1.2871,1.15821 0.3487,-0.37073 0.69085,-0.74864 1.02734,-1.13086 0.0868,-0.007 0.17306,-0.0194 0.25976,-0.0273 z"
       id="path4226"
       inkscape:connector-curvature="0" />
    <path
       style="fill:#ff6600;fill-opacity:1;stroke:none;stroke-width:5.52299976;stroke-miterlimit:4;stroke-dasharray:none;stroke-opacity:1"
       d="M 83.44839,709.30482 C 62.75964,707.38848 54.14851,700.67802 46.6459,680.6255 l -3.50195,-9.35981 21.02211,-91.07406 c 17.60055,-76.25081 21.44758,-90.88635 23.63621,-89.92079 1.43775,0.63429 17.96424,1.51429 36.72554,1.95554 33.11608,0.77887 34.26116,0.69159 39.24206,-2.99095 2.82184,-2.08627 5.34122,-3.53172 5.59864,-3.21211 0.25741,0.31961 -1.72978,9.86364 -4.41599,21.20895 -2.68621,11.3453 -13.01082,55.25054 -22.94359,97.56718 -18.76385,79.9398 -21.65276,88.74161 -33.28301,101.40545 -4.60718,5.01662 -4.5977,5.01545 -25.27753,3.09992 z"
       id="path4311"
       inkscape:connector-curvature="0" />
    <path
       style="fill:#aa4400;fill-opacity:1;stroke:none;stroke-width:5.52299976;stroke-miterlimit:4;stroke-dasharray:none;stroke-opacity:1"
       id="path4313"
       d="m 98.55883,475.09434 c -0.47455,1.9084 -0.63684,3.87436 -0.75775,5.83141 -0.0505,1.76943 -0.26522,3.55411 0.16009,5.28833 0.63539,1.84445 2.05888,3.01909 3.65312,4.0222 1.76867,0.94636 3.76925,1.26223 5.69501,1.74817 1.94529,0.46534 3.95177,0.5196 5.94154,0.57217 2.52434,0.0502 5.04938,0.0363 7.57408,0.0441 2.931,-0.009 5.86202,0.005 8.79302,0.0114 3.0469,0.0937 6.08366,-0.22586 9.09061,-0.69304 3.03317,-0.64582 6.14069,-0.68495 9.20351,-1.08331 2.71441,-0.20376 5.3625,-0.72629 8.02706,-1.24242 1.8491,-0.27739 3.68251,-0.4076 5.50889,-0.80219 1.68755,-0.63164 3.41692,-1.10356 5.04603,-1.8837 -0.98608,0.94857 3.78802,-2.02424 2.52267,-1.30484 -17.8008,10.12032 -11.60169,7.50346 -8.49337,4.48964 0.97028,-1.26804 1.96994,-2.69897 1.43612,-4.32363 -0.94626,-1.8215 -2.64897,-2.43365 -4.54503,-2.78468 -2.55596,-0.68134 -5.20291,-0.86644 -7.83387,-0.99639 -2.75078,-0.27701 -5.45452,-0.82142 -8.17763,-1.27649 -2.66737,-0.40531 -5.36911,-0.47846 -8.06207,-0.52116 -2.5862,-0.0492 -5.1487,-0.48339 -7.73017,-0.67587 -2.57414,-0.45754 -5.16534,-0.76277 -7.77361,-0.92558 -2.46316,-0.12039 -4.93006,-0.12282 -7.39555,-0.12251 -2.46649,0.004 -4.933,-0.004 -7.39949,-7e-5 -2.58416,0.009 -5.16831,-0.006 -7.75248,3e-5 -2.27841,-0.0488 -4.53342,0.49033 -6.65448,1.28958 -3.79254,2.09601 -9.67687,5.41918 7.75747,-4.47282 0.37075,-0.21035 -0.72422,0.45008 -1.07876,0.68673 -0.93351,0.62311 -1.18499,0.83648 -2.07658,1.51539 -1.45575,1.24454 -2.0891,1.69543 -0.15054,2.66401 2.67823,1.01371 5.45883,1.69376 8.21185,2.46493 3.38542,0.87351 6.88075,1.18548 10.34129,1.62479 3.40955,0.67711 6.85107,1.11208 10.31789,1.33746 2.50623,0.14428 5.01742,0.13777 7.52671,0.12622 2.25999,-0.005 4.51981,5.9e-4 6.77976,0.014 2.82968,0.0554 5.63144,0.0456 8.44143,-0.29634 2.78203,-0.24897 5.51528,-0.79348 8.29543,-1.06892 2.83783,-0.23793 5.63872,-0.75841 8.47615,-1.03223 0.70411,-0.23965 1.47918,-0.21969 2.18407,-0.45708 0.26893,-0.0906 1.0034,-0.53023 0.75713,-0.38924 -18.79031,10.75774 -8.48438,7.56117 -10.56056,5.79942 -2.73434,-1.76745 -5.9889,-2.37429 -9.10001,-3.15076 -4.59153,-1.04265 -9.24886,-1.73131 -13.90362,-2.41824 -3.78793,-0.5558 -7.61293,-0.72315 -11.43538,-0.80412 -2.66288,-0.0204 -5.32579,-0.003 -7.98876,-0.0108 -3.74381,0.11487 -7.50913,0.33041 -11.23866,0.71583 -2.05362,0.14555 -4.07478,0.54454 -6.09886,0.89862 -1.29636,0.22678 -2.55874,0.28945 -3.68747,0.98259 3.56288,-2.09748 7.12577,-4.19495 10.68866,-6.29243 -0.0309,-0.19446 -0.25835,-0.47691 -0.0927,-0.58338 0.1973,-0.12683 0.44479,0.14989 0.67107,0.21162 1.34971,0.3682 2.75193,0.54866 4.12464,0.81061 4.04836,0.6524 8.1036,1.23791 12.18928,1.60041 3.87358,0.30782 7.76106,0.35191 11.64478,0.35336 2.30508,-0.01 4.61,-0.04 6.91505,-0.0556 1.73517,-0.0104 3.47038,-0.0113 5.20558,-0.012 1.86068,-0.10798 3.66532,0.0552 5.49877,0.33097 2.27224,0.33947 4.56755,0.44908 6.86126,0.51117 1.96288,-0.0486 3.87216,0.0311 5.80419,0.35317 1.91686,0.31882 3.85678,0.43436 5.79621,0.49701 0.2984,0.006 0.59681,0.0119 0.89521,0.0179 0,0 -10.25162,7.40174 -10.25162,7.40174 l 0,0 c -0.3006,-0.0119 -0.60119,-0.0237 -0.90178,-0.0356 -1.96016,-0.10969 -3.91267,-0.30393 -5.85247,-0.61165 -1.89516,-0.23346 -3.79914,-0.17612 -5.70475,-0.25968 -2.31467,-0.11228 -4.62669,-0.2789 -6.92216,-0.6073 -1.81728,-0.19507 -3.6362,-0.17354 -5.46246,-0.15748 -1.72889,9.5e-4 -3.45778,0.003 -5.18666,0.001 -2.25787,-0.005 -4.51576,-0.0205 -6.77321,-0.0674 -3.86489,-0.0815 -7.73179,-0.19222 -11.58469,-0.52559 -4.12331,-0.42267 -8.23539,-0.96409 -12.32849,-1.61641 -1.25704,-0.19498 -4.33606,-0.38086 -5.37105,-1.22017 -0.34819,-0.28236 -1.19503,-0.77359 -0.84142,-1.04914 3.39408,-2.64477 7.30226,-4.55362 10.9534,-6.83043 3.20383,-0.59257 6.44367,-1.03059 9.68347,-1.36326 3.82245,-0.33745 7.65524,-0.68822 11.49248,-0.75785 2.6498,-0.0162 5.29985,-0.0204 7.94816,0.0887 3.8081,0.14676 7.61434,0.41792 11.37977,1.02868 4.67929,0.74085 9.36764,1.44995 13.99234,2.49082 3.38418,0.82307 6.98274,1.46722 9.84254,3.58157 0.25137,0.31193 0.56653,0.58181 0.75411,0.93578 0.13509,0.25492 0.42674,0.68065 0.18931,0.84455 -6.40871,4.42391 -8.39593,6.6352 -14.26527,7.29792 -2.80709,0.28859 -5.58967,0.76891 -8.40349,0.99749 -2.7807,0.34801 -5.53621,0.87618 -8.33414,1.08507 -2.83763,0.24443 -5.68131,0.19876 -8.52746,0.20065 -2.28435,0.0189 -4.56862,0.0384 -6.85309,0.0313 -2.48986,-0.0312 -4.98016,-0.098 -7.4638,-0.28688 -3.44912,-0.31915 -6.86544,-0.84019 -10.27642,-1.43886 -3.51691,-0.44269 -7.06728,-0.75815 -10.49001,-1.73282 -2.8786,-0.76076 -5.7935,-1.45764 -8.54044,-2.62844 -2.0672,-1.2966 -3.05057,-2.99147 -0.90794,-4.87743 5.09655,-4.17492 10.88218,-7.61448 16.97361,-10.10667 2.2384,-0.63672 4.51212,-1.0826 6.85468,-0.94042 2.58618,0.006 5.1723,-0.0102 7.75847,-0.006 2.4735,-6.3e-4 4.94696,-0.0184 7.42049,-0.008 2.47588,0.0172 4.95406,0.0335 7.42519,0.20458 2.60784,0.20391 5.18314,0.62318 7.77809,0.9374 2.55616,0.21908 5.0991,0.62968 7.66967,0.63078 2.73851,0.0803 5.48508,0.17959 8.18839,0.6647 2.6774,0.49669 5.3634,0.95401 8.08088,1.16985 2.69748,0.19253 5.39518,0.46241 8.02606,1.11884 2.23871,0.61713 4.07973,1.70262 5.22625,3.80813 1.00532,2.37705 0.30019,3.4269 -0.84382,5.551 -3.63175,4.98833 -10.08001,7.02211 -15.57623,9.572 -1.70678,0.65426 -3.44003,1.26275 -5.22076,1.68167 -1.81251,0.32432 -3.66231,0.37154 -5.46654,0.75986 -2.64391,0.49516 -5.30616,0.8032 -7.98007,1.0928 -3.06385,0.31183 -6.13648,0.53965 -9.16974,1.10292 -3.05035,0.41238 -6.11684,0.66565 -9.19838,0.55034 -2.94821,0.009 -5.8964,0.0269 -8.84463,0.027 -2.55083,0.0127 -5.10212,0.0206 -7.65245,-0.0409 -2.06577,-0.084 -4.14243,-0.19129 -6.14132,-0.77002 -2.02313,-0.53649 -4.10279,-0.94769 -5.89064,-2.10508 -1.81954,-1.20896 -3.35249,-2.70671 -4.1606,-4.78492 -0.56592,-1.86087 -0.4381,-3.74291 -0.33017,-5.66953 0.11215,-1.98383 0.29339,-3.96138 0.56222,-5.93056 0,0 11.47037,-5.56205 11.47037,-5.56205 z"
       inkscape:connector-curvature="0" />
    <path
       style="fill:#afc6e9;fill-opacity:1;stroke:none;stroke-width:5.52299976;stroke-miterlimit:4;stroke-dasharray:none;stroke-opacity:1"
       d="m 167.77276,475.43293 c -4.71327,-1.78384 -40.57021,-5.17405 -54.72404,-5.17405 -6.39335,0 -14.32767,1.15334 -17.73851,2.57848 -3.39415,1.41817 -6.35601,2.57848 -6.58193,2.57848 -0.22591,0 1.41812,-7.54205 3.65341,-16.76011 2.23529,-9.21806 6.45669,-27.9765 9.38089,-41.68541 8.4641,-39.68049 49.59058,-216.07145 53.90634,-231.20363 2.15715,-7.56354 10.32842,-41.2674 18.15838,-74.89746 l 14.23628,-61.145585 11.08306,4.02294 c 10.14586,3.68275 51.49058,10.81785 62.74061,10.82752 2.83241,0.002 4.72721,0.93899 4.72721,2.33655 0,1.28288 -6.51446,30.48415 -14.47659,64.891735 -7.96212,34.40758 -15.66929,68.87738 -17.12703,76.59955 -5.25008,27.81152 -61.82312,266.44167 -63.56023,268.10278 -0.13193,0.12615 -1.78696,-0.35614 -3.67785,-1.07179 z"
       id="path4315"
       inkscape:connector-curvature="0" />
    <path
       style="fill:#e6e6e6;fill-opacity:1;stroke:none;stroke-width:5.52299976;stroke-miterlimit:4;stroke-dasharray:none;stroke-opacity:1"
       d="m 239.66927,48.233755 c -15.45809,-2.41822 -34.33383,-8.17502 -39.41431,-12.02074 -2.96901,-2.24742 -2.46878,-2.47213 5.61403,-2.52193 13.4867,-0.0831 34.27861,4.45906 46.4204,10.14089 5.98791,2.80208 10.8871,5.5221 10.8871,6.0445 0,1.3815 -7.54639,0.85414 -23.50722,-1.64272 z"
       id="path4317"
       inkscape:connector-curvature="0" />
    <path
       style="fill:#000000;fill-opacity:1;stroke:none;stroke-width:5.52299976;stroke-miterlimit:4;stroke-dasharray:none;stroke-opacity:1"
       id="path4364"
       d="m 609.84929,769.34843 c 1.64131,4.75711 3.07491,9.54066 4.31308,14.38567 1.42439,5.28653 1.96819,10.69496 2.99576,16.03932 0.73727,4.51564 1.47187,9.02228 2.32787,13.52397 0.62756,5.08125 1.5373,10.1314 2.14862,15.2138 1.13195,5.77615 1.69227,11.61128 2.49278,17.42274 0.75678,5.84704 2.10316,11.61404 2.93036,17.45237 1.29555,6.40814 2.03199,12.86045 2.43503,19.34966 0.35757,6.77863 0.39512,13.56509 0.42311,20.34924 0.0224,6.43124 0.65217,12.8728 1.49827,19.26162 1.09946,6.41076 1.67178,12.86626 1.99333,19.33586 0.25268,6.9813 0.19376,13.96768 0.19222,20.95145 -0.0116,6.75073 0.0423,13.50131 0.0757,20.25204 0.0542,5.65646 0.004,11.31326 0.0375,16.96976 -0.0203,5.66977 -0.0145,11.33927 -0.0102,17.00887 0.0729,4.3418 -0.13744,8.6844 0.58082,12.9914 0.70651,3.4232 1.01847,6.8873 1.71706,10.3104 0.12698,0.6263 0.25399,1.2523 0.38097,1.8785 0,0 -24.2322,11.0503 -24.2322,11.0503 l 0,0 c -0.12204,-0.6184 -0.24405,-1.2369 -0.36608,-1.8554 -0.76782,-3.4465 -1.22974,-6.9017 -1.78061,-10.379 -0.76995,-4.46 -0.57449,-8.9144 -0.48412,-13.4166 0.004,-5.6669 0.0102,-11.3333 -0.0102,-17.0002 0.0352,-5.6692 -0.0148,-11.33887 0.0468,-17.00817 0.0429,-6.7761 0.11448,-13.5522 0.10664,-20.32865 -0.0102,-6.93785 -0.0356,-13.87702 -0.27533,-20.81241 -0.27923,-6.41439 -0.77294,-12.82166 -1.88774,-19.17488 -0.95122,-6.46059 -1.52311,-13.00298 -1.62856,-19.51108 -8.2e-4,-6.75552 0.0131,-13.5141 -0.31005,-20.26526 -0.39867,-6.42354 -1.11801,-12.82355 -2.48427,-19.15513 -0.80205,-5.83774 -2.19594,-11.59006 -2.93062,-17.43551 -0.90711,-5.8087 -1.25782,-11.67986 -2.57071,-17.44555 -0.61349,-5.02821 -1.64619,-10.0002 -2.2476,-15.02783 -0.80746,-4.5184 -1.678,-9.01269 -2.23305,-13.5616 -0.96525,-5.31211 -1.49145,-10.6768 -2.8546,-15.93181 -1.28821,-4.67328 -2.37088,-9.39566 -4.58728,-13.83663 0,0 24.19736,-11.60126 24.19736,-11.60126 z"
       inkscape:connector-curvature="0" />
    <path
       style="fill:#000000;fill-opacity:1;stroke:none;stroke-width:5.52299976;stroke-miterlimit:4;stroke-dasharray:none;stroke-opacity:1"
       id="path4378"
       d="m 611.51178,770.57378 c 6.62833,0 13.111,0.17768 19.62899,1.45141 12.71096,3.06365 24.77678,8.33086 36.78362,13.41443 14.60822,6.42688 29.43465,12.3396 44.17396,18.45615 11.02581,4.56243 22.12153,8.94659 33.04051,13.76239 8.42997,3.17102 16.7529,6.56244 24.92283,10.35092 8.91756,4.32765 18.05284,8.18674 27.18359,12.03755 8.70436,3.65076 17.44974,7.19139 26.18925,10.75221 7.61492,3.136 15.0449,6.69232 22.55527,10.06616 7.50538,2.63898 14.64781,6.15113 21.96588,9.23832 5.81209,2.41916 11.43982,5.1719 16.99,8.13705 6.19966,3.26022 12.61351,6.10072 18.92959,9.13023 5.44133,2.22912 10.90136,4.4167 16.3652,6.59091 4.58201,1.56066 8.74747,4.0378 13.21087,5.86274 0.67086,0.31963 1.34181,0.63911 2.01268,0.95874 0,0 -22.88481,15.14232 -22.88481,15.14232 l 0,0 c -0.6552,-0.30118 -1.31041,-0.60236 -1.96561,-0.90354 -4.35497,-2.01802 -8.61366,-4.22986 -13.14873,-5.84312 -5.36826,-2.31572 -10.80507,-4.47293 -16.11693,-6.9165 -6.39751,-2.9897 -12.86946,-5.83179 -19.11274,-9.13894 -5.52579,-2.83134 -11.13236,-5.47163 -16.78399,-8.04189 -7.22097,-3.24584 -14.44249,-6.49067 -21.82447,-9.36051 -7.51672,-3.32851 -14.97458,-6.78763 -22.54207,-10.00063 -8.63643,-3.71497 -17.37239,-7.18964 -26.02202,-10.87323 -9.1573,-3.86868 -18.29801,-7.79359 -27.27286,-12.07126 -8.19904,-3.68867 -16.62732,-6.80666 -24.88787,-10.35237 -10.72379,-4.89383 -21.59176,-9.44986 -32.41672,-14.11297 -14.62571,-6.34669 -29.47908,-12.16032 -44.12699,-18.45804 -12.08621,-4.87232 -24.20367,-10.04873 -37.07436,-12.46629 -6.72073,-0.8184 -13.45106,-0.81259 -20.21289,-0.50792 0,0 22.44082,-16.30432 22.44082,-16.30432 z"
       inkscape:connector-curvature="0" />
    <path
       inkscape:connector-curvature="0"
       d="m 624.60032,1043.071 c 6.62832,0 13.111,-0.1777 19.62899,-1.4514 12.71096,-3.0635 24.77678,-8.3307 36.78362,-13.4143 14.60821,-6.427 29.43465,-12.3398 44.17395,-18.4563 11.02582,-4.5624 22.12154,-8.9466 33.0405,-13.76237 8.42999,-3.171 16.75293,-6.5624 24.92285,-10.3509 8.91755,-4.32766 18.05282,-8.18676 27.18359,-12.03757 8.70436,-3.65076 17.44972,-7.19138 26.18925,-10.7522 7.61492,-3.13601 15.0449,-6.69233 22.55529,-10.06617 7.50537,-2.63898 14.64779,-6.15113 21.96585,-9.23817 5.81212,-2.41931 11.43983,-5.17205 16.99001,-8.13705 6.19967,-3.26037 12.61352,-6.10072 18.92957,-9.13037 5.44135,-2.22913 10.90135,-4.41671 16.36528,-6.59091 4.58201,-1.56067 8.74737,-4.0378 13.21077,-5.86274 0.67096,-0.31963 1.34182,-0.63912 2.01278,-0.9586 0,0 -22.88489,-15.14247 -22.88489,-15.14247 l 0,0 c -0.65514,0.30118 -1.31035,0.60236 -1.96558,0.90354 -4.35494,2.01817 -8.61369,4.22986 -13.14877,5.84312 -5.36821,2.31587 -10.80504,4.47308 -16.1169,6.9165 -6.39751,2.98985 -12.86945,5.8318 -19.11276,9.13895 -5.52576,2.83134 -11.13236,5.47162 -16.78397,8.04188 -7.22097,3.24585 -14.44249,6.49067 -21.82447,9.36051 -7.51672,3.32851 -14.97459,6.78763 -22.54207,10.00064 -8.63644,3.71497 -17.37238,7.18963 -26.02204,10.87322 -9.15727,3.86869 -18.298,7.7936 -27.27284,12.07126 -8.19903,3.68867 -16.62732,6.80681 -24.88788,10.35238 -10.72378,4.89385 -21.59175,9.44985 -32.41673,14.11315 -14.62569,6.34647 -29.47907,12.16007 -44.12698,18.45787 -12.08622,4.8723 -24.20366,10.0488 -37.07436,12.4662 -6.72072,0.8184 -13.45105,0.8128 -20.21288,0.5081 0,0 22.44082,16.3042 22.44082,16.3042 z"
       id="path4380"
       style="fill:#000000;fill-opacity:1;stroke:none;stroke-width:5.52299976;stroke-miterlimit:4;stroke-dasharray:none;stroke-opacity:1" />
    <path
       style="fill:#000000;fill-opacity:1;stroke:none;stroke-width:5.52299976;stroke-miterlimit:4;stroke-dasharray:none;stroke-opacity:1"
       id="path4382"
       d="m 676.62553,936.11429 c -0.0769,1.67908 -0.0816,3.36164 -0.0779,5.04231 -0.0102,1.897 -0.004,3.79386 0.0172,5.69072 -9.2e-4,1.44109 0.0155,2.88219 0.0245,4.32328 -0.0116,1.29712 -0.003,2.59424 10e-4,3.89135 0.004,1.14181 0.006,2.28361 0.006,3.42542 -0.0623,1.10504 0.0373,2.18438 0.21961,3.2717 0.20169,1.14079 0.28065,2.29668 0.30462,3.45345 0.0222,1.25659 0.0276,2.51331 0.0308,3.77018 -0.0131,1.14762 0.0426,2.29698 -0.0437,3.44213 0,0 -7.33391,3.62736 -7.33391,3.62736 l 0,0 c 0.19014,-1.10636 0.0448,-2.24119 0.0955,-3.3596 0.004,-1.25092 0.015,-2.50198 -0.0131,-3.75275 -0.0404,-1.11826 -0.0782,-2.23987 -0.26682,-3.3455 -0.19087,-1.12873 -0.37656,-2.24046 -0.28377,-3.39215 6.8e-4,-1.14384 10e-4,-2.28768 0.006,-3.43166 0.004,-1.29784 0.0145,-2.59569 10e-4,-3.89353 0.009,-1.44952 0.0254,-2.8989 0.0246,-4.34856 0.0218,-1.90267 0.028,-3.80534 0.0171,-5.70816 0.004,-1.65422 2.8e-4,-3.31034 -0.0779,-4.96283 0,0 7.34634,-3.74316 7.34634,-3.74316 z"
       inkscape:connector-curvature="0" />
    <path
       style="fill:#000000;fill-opacity:1;stroke:none;stroke-width:5.52299976;stroke-miterlimit:4;stroke-dasharray:none;stroke-opacity:1"
       id="path4384"
       d="m 658.83502,951.90372 c 1.25543,0.0392 2.51195,0.0291 3.76785,0.0262 1.18397,0 2.36795,-0.0145 3.55192,-0.0145 1.14657,-0.0538 2.25532,-2.9e-4 3.37976,0.2127 1.21248,0.17449 2.41847,0.32719 3.62609,0.53277 1.49813,0.41319 3.02284,0.6949 4.56912,0.83844 1.51718,0.0145 3.00487,0.21139 4.50607,0.40012 1.37098,0.11768 2.72563,0.21314 4.0816,0.44385 1.33527,0.23696 2.69035,0.30132 4.04317,0.33968 1.19424,0.0247 2.3888,0.0189 3.58318,0.016 0.74792,0 0.37451,-7.3e-4 1.12025,0 0,0 -6.6193,4.81072 -6.6193,4.81072 l 0,0 c -0.74497,4.4e-4 -0.37196,2.9e-4 -1.11901,1.5e-4 -1.1935,0 -2.3874,-0.0145 -3.58002,-0.0581 -1.37125,-0.0683 -2.74181,-0.17129 -4.09377,-0.42235 -1.34441,-0.19904 -2.7049,-0.23739 -4.05022,-0.43498 -1.49851,-0.19381 -2.99752,-0.2868 -4.5045,-0.38283 -1.54965,-0.19236 -3.05906,-0.57199 -4.58907,-0.87463 -1.2217,-0.18349 -2.45598,-0.27226 -3.67049,-0.50675 -1.09516,-0.15401 -2.19784,-0.0959 -3.30128,-0.10461 -1.17795,-10e-4 -2.3559,0 -3.53383,-0.0145 -1.27926,0 -2.55904,-0.0145 -3.83786,0.0262 0,0 6.67034,-4.84631 6.67034,-4.84631 z"
       inkscape:connector-curvature="0" />
    <path
       style="fill:#000000;fill-opacity:1;stroke:none;stroke-width:5.52299976;stroke-miterlimit:4;stroke-dasharray:none;stroke-opacity:1"
       id="path4386"
       d="m 650.41443,848.83646 c 1.22554,-0.49093 2.54704,-0.6211 3.82159,-0.92199 1.47342,-0.3067 2.96903,-0.46695 4.46971,-0.55267 1.21941,-0.0973 2.45054,0.0465 3.65934,-0.14238 1.37913,-0.20427 2.7662,-0.33576 4.15802,-0.40898 1.16477,-0.0508 2.33091,-0.0508 3.49656,-0.0523 1.1076,-0.0436 2.19429,-0.32327 3.30211,-0.4395 1.225,-0.10605 2.45644,-0.0988 3.68507,-0.10751 1.18629,-0.0145 2.37261,-0.0145 3.55891,-0.0145 1.26243,-0.18189 2.52243,-0.48758 3.80093,-0.37571 0.97464,0.14805 1.96411,0.17289 2.92119,0.41073 0,0 -6.71027,4.6756 -6.71027,4.6756 l 0,0 c -0.93842,-0.13802 -1.8839,-0.248 -2.83114,-0.30031 -1.27491,0.061 -2.52394,0.3439 -3.79929,0.39722 -1.17917,0 -2.35836,-0.0145 -3.53753,8.7e-4 -1.21823,0.0145 -2.43895,0.0378 -3.64897,0.19396 -1.11615,0.15487 -2.22548,0.41435 -3.35959,0.36118 -1.1511,0 -2.30286,0.0145 -3.45239,0.077 -1.38321,0.0915 -2.75878,0.25062 -4.1327,0.43382 -1.22482,0.0654 -2.45231,0.0363 -3.67671,0.11769 -1.47338,0.10896 -2.94093,0.2942 -4.3797,0.6394 -1.32111,0.27111 -2.62723,0.57911 -3.91708,0.97458 0,0 6.57194,-4.97591 6.57194,-4.97591 z"
       inkscape:connector-curvature="0" />
    <path
       style="fill:#000000;fill-opacity:1;stroke:none;stroke-width:5.52299976;stroke-miterlimit:4;stroke-dasharray:none;stroke-opacity:1"
       id="path4392"
       d="m 533.12856,852.2177 c 3.5341,-0.0973 7.05006,-0.82188 10.58438,-1.16403 3.3622,-0.29493 6.73863,-0.33706 10.11139,-0.36249 3.15335,-0.0145 6.30673,0 9.4601,0 3.19666,0.0145 6.39337,-0.0145 9.58993,0.0203 3.54895,0.0145 7.09793,7.3e-4 10.6469,-0.0145 3.21029,-0.0145 6.42058,-0.0145 9.63087,-0.0145 3.51439,0.0189 7.02874,0.0218 10.54321,0.016 3.29259,-0.0145 6.58518,-0.0145 9.87779,-0.0145 3.14779,0 6.29558,0 9.44337,0 2.09373,0 1.04687,0 3.14078,0 0,0 -18.72586,13.60519 -18.72586,13.60519 l 0,0 c -2.094,0 -1.04708,0 -3.14088,0 -3.14632,0 -6.29265,1.4e-4 -9.43897,0 -3.27974,0 -6.55946,-0.0145 -9.83919,-0.0145 -3.52837,-0.0145 -7.05663,0 -10.58493,0.016 -3.20254,-8.7e-4 -6.40509,0 -9.60762,-0.0145 -3.54317,-0.0145 -7.08634,-0.0203 -10.62949,-0.0145 -3.21114,0.0262 -6.42237,0.0145 -9.63359,0.0145 -3.14559,0 -6.29129,-0.0145 -9.43678,0.0189 -3.31443,0.0508 -6.63212,0.13802 -9.93013,0.49746 -3.63829,0.41421 -7.25615,1.09909 -10.92782,1.11449 0,0 18.86654,-13.70733 18.86654,-13.70733 z"
       inkscape:connector-curvature="0" />
    <path
       style="fill:#000000;fill-opacity:1;stroke:none;stroke-width:5.52299976;stroke-miterlimit:4;stroke-dasharray:none;stroke-opacity:1"
       id="path4394"
       d="m 547.13722,955.59704 c 3.56593,-0.52971 7.15739,-0.82276 10.75571,-1.00669 3.73233,-0.13076 7.46878,-0.12494 11.20316,-0.13802 3.30103,-0.0145 6.60208,-0.0145 9.90313,-0.0145 3.56825,0.0363 7.1368,0.0203 10.70516,0.0145 3.72304,0.0349 7.44617,-0.0145 11.16923,0.016 4.0795,0.0305 8.15911,0 12.23862,0.0145 3.7637,0 7.52737,-0.0189 11.29105,-0.0305 1.63042,0 3.26084,-0.0145 4.89127,-0.0145 0,0 -18.71904,13.60011 -18.71904,13.60011 l 0,0 c -1.62306,0 -3.24613,0 -4.86919,-0.0145 -3.73632,-0.0145 -7.47262,-0.0305 -11.20894,-0.0305 -4.09074,0.016 -8.18158,-0.0189 -12.27234,0.0145 -3.73792,0.0203 -7.47594,-0.0189 -11.21385,0.016 -3.5784,-0.0145 -7.15693,-0.0247 -10.73526,0.0145 -3.28457,-0.0145 -6.56913,-0.016 -9.85372,-0.0203 -3.70665,0 -7.4154,0.0145 -11.11672,0.23696 -3.60965,0.24306 -7.22659,0.57911 -10.75648,1.40768 0,0 18.58821,-14.07403 18.58821,-14.07403 z"
       inkscape:connector-curvature="0" />
    <path
       style="fill:#000000;fill-opacity:1;stroke:none;stroke-width:5.52299976;stroke-miterlimit:4;stroke-dasharray:none;stroke-opacity:1"
       id="path4396"
       d="m 932.41149,900.94905 c 3.55082,0.11187 7.10487,0.0799 10.65708,0.0726 3.34873,-0.0145 6.69757,-0.016 10.0463,-0.0189 3.15056,0 6.30114,0 9.45161,0 3.14115,1.4e-4 6.2824,1.4e-4 9.42355,1.4e-4 3.1437,0 6.28732,0 9.43104,0 3.25263,-0.30132 6.36104,0.33082 9.54141,0.8707 3.2269,0.52042 6.498,0.62227 9.75942,0.69593 3.5692,-0.21895 7.0352,0.63853 10.5499,1.10257 3.1432,0.37847 6.3112,0.43499 9.4729,0.47349 3.1364,0.0233 6.273,0.0145 9.4095,0.0145 3.7434,0.0145 7.4867,0.0363 11.2301,0.0305 3.9438,0 7.8875,0 11.8313,-0.016 3.3203,-0.0145 6.6405,-0.0174 9.9608,-0.0203 0.5574,-0.0901 1.1148,-0.18088 1.6723,-0.2714 0,0 -18.535,13.76922 -18.535,13.76922 l 0,0 c -0.6198,0.0349 -1.2396,0.0697 -1.8595,0.10461 -3.3021,0 -6.6041,-0.0145 -9.9061,-0.0203 -3.9291,-0.0145 -7.858,-0.0203 -11.7871,-0.0145 -3.7772,0 -7.554,0.0291 -11.331,0.0465 -3.1456,0 -6.2916,0.0145 -9.4367,-0.0465 -3.21482,-0.0843 -6.43322,-0.22839 -9.61652,-0.71757 -3.43932,-0.52317 -6.86304,-1.0619 -10.3591,-0.9153 -3.35012,-0.10606 -6.69894,-0.29363 -9.99967,-0.92039 -3.09662,-0.51562 -6.1808,-0.68851 -9.3225,-0.55325 -3.1437,0 -6.28741,0 -9.43113,1.4e-4 -3.14133,0 -6.28266,0 -9.4239,0 -3.14846,0 -6.29693,0 -9.44531,0 -3.33172,0 -6.66346,-0.0145 -9.99518,-0.0189 -3.61824,-0.0145 -7.23803,-0.0378 -10.85509,0.0726 0,0 18.86659,-13.70733 18.86659,-13.70733 z"
       inkscape:connector-curvature="0" />
    <path
       style="fill:#000000;fill-opacity:1;stroke:none;stroke-width:5.52299976;stroke-miterlimit:4;stroke-dasharray:none;stroke-opacity:1"
       id="path4433"
       d="m 522.24605,862.68326 c 1.36665,-5.35961 1.78743,-10.87657 2.14658,-16.37566 0.46817,-9.79447 0.51958,-19.60202 0.56481,-29.40551 0.0783,-13.35631 0.18335,-26.71219 0.25873,-40.06851 0.13148,-16.08493 0.0679,-32.17002 -0.004,-48.25495 -0.0783,-9.91114 -0.30519,-19.81981 -0.54552,-29.7279 -0.11725,-3.665 -0.19474,-7.32984 -0.2176,-10.99629 -0.0189,-2.45083 -0.0296,-4.90167 -0.0353,-7.35265 0.0116,-2.34899 0.0955,-4.67807 -0.3278,-6.99524 -0.68319,-2.95091 -1.5857,-5.85649 -1.71705,-8.89486 0.16506,-1.45141 0.63942,-2.92723 2.00594,-3.71018 11.77157,-6.74535 11.03907,-8.29294 19.60871,-8.88731 6.05449,-0.23856 12.11618,-0.13947 18.17359,-0.10896 7.40183,0.0174 14.80349,0.0755 22.20535,0.0843 7.28345,0.032 14.56677,-0.0305 21.85013,-0.0523 5.32001,-0.0276 10.64,-0.0552 15.96006,-0.0697 4.21652,0.0145 8.43294,-0.045 12.6494,-0.0291 3.34835,-0.0145 6.69656,-0.0334 10.04492,-0.0407 2.78477,-0.0145 5.56952,0 8.35434,-0.0145 2.6531,0 5.30619,0 7.95932,-0.0145 2.37383,0.42467 4.74947,0.78789 7.15515,0.96455 -1.47456,1.83134 5.25076,-2.23421 4.0528,-1.57693 -4.21561,2.31281 -8.30363,4.85822 -12.56616,7.08343 -0.50007,0.26108 0.85452,-0.74183 1.22792,-1.16462 0.38387,-0.43484 0.69017,-0.9323 1.03525,-1.39852 2.07344,-3.64175 3.36201,-7.7057 4.46607,-11.7339 0.99579,-3.5755 1.90921,-7.17352 2.90179,-10.74959 2.36515,-6.03505 12.35598,-14.28789 16.50474,-8.10945 1.35549,2.01847 2.00825,4.57376 2.73396,6.84793 2.16806,7.3031 4.13789,14.6604 6.37221,21.94418 1.69043,5.5742 3.20031,11.19548 5.15102,16.6857 1.05361,3.06932 1.99792,6.18324 2.67365,9.35876 0.44514,2.45491 0.90815,4.92826 1.71454,7.29279 0.62104,0.94814 1.64349,5.27564 3.49159,4.58422 0.33375,-0.12494 0.52444,-0.48249 0.78667,-0.72381 -21.39181,12.47704 -13.58642,9.20011 -10.01924,3.36555 1.64183,-2.68547 2.88029,-5.60979 4.20877,-8.45493 2.7342,-5.55052 4.8834,-11.35326 7.1583,-17.09933 1.76097,-4.11814 3.19219,-8.36733 4.95143,-12.48474 1.34309,-2.9435 2.93099,-5.76511 4.27268,-8.70846 1.02844,-2.40042 1.80317,-4.8777 2.49576,-7.38984 0.58623,-2.23988 1.35767,-4.42644 1.91631,-6.67286 0.47462,-2.35683 0.39756,-4.74723 1.55247,-6.90299 5.06373,-2.71293 9.91665,-5.86288 15.19118,-8.13908 0.52752,-0.22766 1.00197,0.58042 1.42619,0.9679 2.78141,2.54047 4.20181,6.49778 5.58229,9.88092 2.44423,7.17293 4.24929,14.53357 6.60524,21.73497 2.32897,6.39769 4.81573,12.74307 7.5869,18.96263 2.20079,4.57695 4.10457,9.28408 6.18832,13.91392 1.69426,2.96282 3.0078,6.37821 5.47019,8.80827 0.27363,0.048 0.56011,0.23972 0.82091,0.14384 0.33916,-0.12495 1.1161,-0.90194 0.79488,-0.73661 -4.30282,2.21359 -8.36848,4.89412 -12.77249,6.89892 -0.6682,0.30409 0.96194,-1.11274 1.38303,-1.71423 1.28462,-1.83467 1.9035,-3.19412 2.95474,-5.20648 3.285,-6.76831 6.30534,-13.66577 9.32031,-20.5583 2.62849,-5.80346 5.49977,-11.48881 8.52227,-17.09526 2.1282,-4.07194 4.19496,-8.17453 6.25191,-12.28265 1.23625,-2.47873 2.53719,-4.91111 3.26717,-7.59382 0.48708,-2.12728 0.50991,-4.31762 0.5345,-6.48863 0.0449,-1.4411 -0.13686,-2.89469 -0.44694,-4.30208 -0.0479,-0.2172 -0.29513,-0.83699 -0.19388,-0.63882 0.1309,0.25629 0.18929,0.54352 0.28394,0.8152 4.72545,-2.60149 9.26113,-5.58233 14.17639,-7.80449 0.41103,-0.18582 0.0442,0.90194 0.10141,1.34942 0.0912,0.7119 0.20963,1.42061 0.34358,2.12569 0.55738,2.9342 1.23027,5.85561 1.86035,8.775 1.71364,7.23235 3.69113,14.39918 5.71138,21.55075 1.72695,6.42703 3.97053,12.6864 6.31933,18.90625 1.4498,3.69492 3.19044,7.2665 4.77355,10.90592 1.31172,2.7568 2.58277,5.52974 3.907,8.2803 1.36348,2.47234 2.74218,4.9255 3.93549,7.48747 0.51087,-0.13947 0.37837,1.71569 1.04452,1.70407 0.2259,0 0.51091,-0.70392 0.30848,-0.60352 -4.53028,2.24612 -8.81241,4.9855 -13.40672,7.09752 -0.54798,0.25193 0.77481,-0.92896 1.09705,-1.43877 0.46437,-0.73471 0.83766,-1.52303 1.25651,-2.28462 3.39011,-6.97825 5.89771,-14.32422 8.62945,-21.57051 2.52171,-6.62317 5.0419,-13.24547 7.83499,-19.75981 1.79193,-4.4507 3.6903,-8.85738 5.75219,-13.18953 1.24407,-2.78209 2.40462,-5.60703 3.41657,-8.4821 0.69836,-2.30759 1.33205,-4.63478 2.07771,-6.92755 0.71197,-2.20181 1.39036,-4.40537 1.99507,-6.63871 2.18188,-7.67082 1.31494,-4.9945 15.38511,-11.66082 0.3564,-0.16897 2.14377,2.63971 2.15495,2.65612 2.8398,5.15084 5.17805,10.55622 7.46264,15.96987 2.32908,5.00831 4.58343,10.04902 6.8646,15.07898 1.47391,3.31746 3.06759,6.57783 4.61923,9.85854 1.34593,2.3641 2.59001,4.74418 3.57988,7.28161 1.32276,2.57011 1.5274,5.55008 3.19985,7.92682 0.57003,0.50574 1.13102,1.11289 1.88737,1.36017 1.95994,0.64071 5.26516,-0.37237 7.21365,-0.72048 6.12949,-1.02252 12.28554,-1.85675 18.45088,-2.64275 6.5364,-0.90644 13.04613,-1.96485 19.53321,-3.17306 4.9192,-0.67863 9.79899,-1.53378 14.67166,-2.48163 3.90277,-0.9262 7.73772,-2.08602 11.5807,-3.22754 2.97821,-0.86953 6.06316,-1.11507 9.09372,-1.73326 2.61938,-0.45402 5.24156,-0.61311 7.85114,-1.12234 2.82545,-0.53305 5.71135,-0.60976 8.57825,-0.66846 3.10966,-0.13802 6.24056,0.14703 9.33196,-0.24655 2.6689,-0.42278 5.3527,-0.70798 8.0502,-0.85414 2.2758,-0.0988 4.5543,-0.0973 6.8318,-0.0988 1.4804,10e-4 0.7404,2.9e-4 2.2201,0 0,0 -13.2422,9.61984 -13.2422,9.61984 l 0,0 c -1.4777,-1.5e-4 -0.7389,-5.8e-4 -2.2166,0 -2.2517,0.0145 -4.5049,0.0218 -6.753,0.16315 -2.66256,0.1912 -5.30596,0.54003 -7.95796,0.83714 -3.1194,0.16084 -6.24613,0.0189 -9.36755,0.16171 -2.84908,0.1293 -5.69819,0.31977 -8.49729,0.90324 -2.60073,0.43121 -5.24322,0.55732 -7.82335,1.12742 -2.97588,0.54497 -6.00779,0.81884 -8.89579,1.78005 -3.8293,1.13236 -7.67437,2.22216 -11.5866,3.03532 -4.82193,0.92766 -9.67882,1.60687 -14.53166,2.3487 -6.47714,1.11682 -12.96772,2.14515 -19.47983,3.0391 -6.23041,0.83351 -12.45111,1.71787 -18.63358,2.86083 -4.04166,0.67326 -7.43357,1.47422 -10.34591,-2.03517 -1.65912,-2.53873 -2.13367,-5.50068 -3.39559,-8.2357 -0.96515,-2.51025 -2.23784,-4.84762 -3.51819,-7.20576 -1.47089,-3.33534 -2.97883,-6.65368 -4.41239,-10.00572 -2.15121,-5.10391 -4.42084,-10.14985 -6.64847,-15.22136 -2.24292,-5.26924 -4.49602,-10.57989 -7.67612,-15.36867 -0.29394,-0.31978 -0.52046,-0.71844 -0.88181,-0.95947 -0.10839,-0.0727 -0.48115,0.19279 -0.37047,0.12349 4.49609,-2.78935 9.02359,-5.52771 13.53538,-8.29149 -0.1609,0.18931 -0.3819,0.34084 -0.48268,0.56792 -0.31478,0.70915 -0.21391,1.55878 -0.5987,2.24933 -0.72201,2.20239 -1.17608,4.49574 -1.98297,6.67459 -0.74318,2.31078 -1.48436,4.62083 -2.11249,6.96634 -0.96456,2.98243 -2.25251,5.85431 -3.4742,8.7381 -2.16991,4.34798 -4.26378,8.72967 -6.04664,13.25461 -2.93681,6.51522 -5.61881,13.13519 -8.15091,19.81821 -2.75379,7.16611 -5.20817,14.44524 -8.17448,21.53114 -0.0464,0.10461 -1.79238,4.03359 -1.80213,4.03998 -5.01925,3.33287 -11.7915,12.27829 -16.1494,8.11787 -0.28091,-0.2682 -0.99074,-1.78818 -1.10666,-2.0218 -1.14967,-2.57448 -2.49989,-5.03548 -3.84837,-7.5084 -1.30495,-2.78761 -2.68071,-5.54165 -3.9675,-8.33769 -1.47821,-3.72238 -3.08355,-7.39231 -4.51695,-11.13213 -2.21804,-6.32431 -4.29681,-12.69845 -6.11279,-19.15091 -2.03773,-7.16479 -3.95954,-14.35864 -5.88491,-21.55366 -0.84813,-3.597 -1.75029,-7.1661 -2.68705,-10.74029 -0.12669,-0.48351 -0.76913,-1.14529 -0.37446,-1.45213 4.44176,-3.4523 9.41702,-6.15709 14.12554,-9.23571 1.13928,1.7616 1.16607,4.16391 1.29821,6.21331 -0.007,2.28158 -0.003,4.5774 -0.38723,6.83384 -0.6128,2.88466 -1.87476,5.45739 -3.28376,8.03564 -2.21216,4.12235 -4.25535,8.33289 -6.51117,12.43287 -3.06516,5.59963 -6.016,11.26274 -8.72149,17.04644 -3.08019,6.85185 -6.13525,13.71474 -9.20309,20.57036 -4.85659,10.62101 -3.92844,8.33842 -18.92663,16.48288 -0.88914,0.48293 -1.97219,-0.49281 -2.56705,-0.8922 -2.34922,-2.78514 -3.8568,-6.16348 -5.52039,-9.37925 -2.07867,-4.64495 -3.84208,-9.41746 -5.95492,-14.04802 -2.81379,-6.26649 -5.18999,-12.722 -7.51851,-19.18215 -2.38848,-7.13792 -4.0842,-14.48781 -6.68128,-21.5586 -1.1123,-2.62053 -2.20591,-5.33738 -4.13255,-7.49866 -0.37732,-0.42322 -0.80564,-0.81971 -1.3006,-1.09633 -0.27752,-0.15517 -1.20626,0.0189 -0.94085,-0.15648 4.25018,-2.80213 8.7306,-5.2383 13.09592,-7.85752 -0.32915,0.10606 -0.74122,0.077 -0.98743,0.31978 -1.05444,1.04083 -0.49506,4.28972 -0.9911,5.67357 -0.47295,2.31035 -1.29859,4.50402 -1.88583,6.78386 -0.82663,2.53539 -1.39203,5.15301 -2.48975,7.60297 -1.26196,3.01644 -2.87067,5.85446 -4.36946,8.75655 -1.86094,4.12599 -3.3956,8.38419 -5.19319,12.53836 -2.34226,5.78007 -4.55333,11.62014 -7.27192,17.23851 -1.29035,2.85037 -2.47249,5.76568 -3.92301,8.54036 -0.0808,0.15444 -2.02918,3.73023 -2.41196,3.9839 -4.90566,3.25194 -10.1037,6.03969 -15.15555,9.05962 -0.47129,-0.045 -0.96453,0.0145 -1.4139,-0.13512 -2.40036,-0.79602 -3.04961,-3.85735 -4.1366,-5.79126 -0.91003,-2.41567 -1.46684,-4.95499 -1.83769,-7.50723 -0.56275,-3.15112 -1.50534,-6.20983 -2.36263,-9.2899 -1.75802,-5.60108 -3.2313,-11.27567 -4.78924,-16.93544 -2.17431,-7.2601 -4.11261,-14.59386 -6.54739,-21.77319 -0.70817,-1.85676 -1.05286,-2.98694 -1.97819,-4.67255 -0.23522,-0.42845 -0.47306,-0.86721 -0.80661,-1.22447 -0.0835,-0.0901 -0.47006,0.0334 -0.36607,-0.0305 16.83794,-10.47267 17.36602,-10.87628 12.46579,-7.42123 -1.1632,3.54426 -1.98761,7.19778 -3.05905,10.77124 -1.10204,4.13121 -2.39481,8.25415 -4.1799,12.14172 -3.80121,6.90052 -7.86189,6.7394 -17.13652,12.15814 -1.43748,0.8399 -3.08696,0.97749 -4.70641,0.8983 -2.36882,-0.21981 -4.69899,-0.7228 -7.07417,-0.85573 -2.64846,-0.0145 -5.29687,-0.0145 -7.94529,-0.0145 -2.77248,-0.0145 -5.54491,4.4e-4 -8.31736,-0.0145 -3.31086,-0.0145 -6.62159,-0.0276 -9.93244,-0.0407 -4.19009,0.0174 -8.38013,-0.0349 -12.57029,-0.0276 -5.25697,-0.0145 -10.51386,-0.0407 -15.77079,-0.0683 -7.22893,-0.0218 -14.45775,-0.0872 -21.68681,-0.0683 -7.43755,-0.0145 -14.87514,0.0232 -22.31268,-0.0145 -6.11395,0.0145 -12.24519,-0.0683 -18.34213,0.44835 -0.741,0.10751 -1.48901,0.17638 -2.22303,0.32486 -0.61681,0.12495 -2.3505,0.8354 -1.82232,0.49325 4.06724,-2.63448 8.37766,-4.87494 12.50566,-7.41323 0.89412,-0.54962 -4.73884,2.23261 -2.68267,2.22593 -0.14817,2.93725 0.91319,5.74084 1.54415,8.5838 0.62123,2.40783 0.67002,4.79038 0.57115,7.27027 -0.006,2.46304 -0.0164,4.92594 -0.0354,7.38883 -0.0232,3.74025 -0.10199,7.47919 -0.21773,11.21799 -0.23902,10.09333 -0.46577,20.18724 -0.54499,30.28348 -0.0712,16.0845 -0.13367,32.16914 0.006,48.25364 0.0831,13.2674 0.20773,26.53451 0.27101,39.80191 0.0116,9.75191 0.10243,19.50614 -0.11216,29.2563 -0.16619,5.41061 -0.42011,10.8234 -1.38072,16.16252 0,0 -14.72926,7.24354 -14.72926,7.24354 z"
       inkscape:connector-curvature="0" />
    <path
       style="fill:#000000;fill-opacity:1;stroke:none;stroke-width:5.52299976;stroke-miterlimit:4;stroke-dasharray:none;stroke-opacity:1"
       id="path4435"
       d="m 1027.0046,661.42105 c -0.364,6.43735 -0.3762,12.89038 -0.445,19.3363 -0.085,11.89619 -0.2568,23.79151 -0.3409,35.68784 -0.089,15.73567 -0.088,31.47148 -0.1161,47.20729 -0.018,16.53765 -0.012,33.07545 -0.026,49.61324 0.091,14.115 0.086,28.23102 0.3098,42.34471 0.1251,8.29367 0.2471,16.58676 0.2907,24.8813 0.051,6.30571 0.028,12.61172 0.053,18.91772 0.024,3.96879 0.073,7.93743 0.1373,11.90578 0,0 -14.3859,7.32998 -14.3859,7.32998 l 0,0 c 0.064,-4.01498 0.1132,-8.03026 0.1373,-12.04583 0.025,-6.32387 0,-12.6479 0.053,-18.97177 0.044,-8.39319 0.1663,-16.78507 0.2907,-25.17739 0.2219,-14.21888 0.2196,-28.44023 0.3098,-42.66042 -0.014,-16.52893 -0.01,-33.05801 -0.026,-49.58679 -0.028,-15.69644 -0.027,-31.39289 -0.1161,-47.08904 -0.084,-11.78054 -0.2558,-23.56006 -0.341,-35.34045 -0.068,-6.29468 -0.074,-12.5972 -0.445,-18.88286 0,0 14.66,-7.46961 14.66,-7.46961 z"
       inkscape:connector-curvature="0" />
    <path
       style="fill:#000000;fill-opacity:1;stroke:none;stroke-width:5.52299976;stroke-miterlimit:4;stroke-dasharray:none;stroke-opacity:1"
       id="path4437"
       d="m 1012.1231,900.44346 c -1.6718,-2.10288 -3.9513,-3.31965 -6.4864,-4.0471 -0.4963,-0.4501 -3.8316,1.50865 -3.5383,1.34579 4.2805,-2.37892 8.4664,-4.93058 12.8028,-7.20591 0.4722,-0.24786 -0.8056,0.7026 -1.1628,1.09836 -0.3583,0.39707 -0.6512,0.84848 -0.9768,1.27271 -1.9335,3.28144 -2.8892,7.02779 -3.7523,10.70702 -0.7239,3.27824 -0.8664,6.63232 -0.9765,9.97463 0.014,2.63012 -0.1342,5.27506 0.1007,7.89776 0.3722,2.28347 1.6691,3.67081 3.7882,4.42063 2.1782,0.39532 4.3625,0.52042 6.5472,0.89467 2.4828,0.40753 4.9967,0.53524 7.5077,0.60599 2.3041,0.0494 4.6089,0.0276 6.9133,0.0436 1.3915,-0.14703 2.7266,-0.55223 3.9905,-1.14849 0.5476,-0.25817 2.1336,-1.145 1.6081,-0.84455 -13.2534,7.58017 -15.7533,9.44753 -10.3471,5.60239 3.6682,-2.85619 4.9219,-7.07385 5.9876,-11.39321 1.0698,-4.95266 1.7419,-10.01488 1.254,-15.07302 -0.5577,-3.58392 -1.9367,-6.9595 -4.6417,-9.4253 -2.1119,-1.69753 -4.6782,-2.24947 -7.3045,-2.52057 -0.2118,-0.0145 -2.1089,-0.13367 -2.3326,-0.10025 -1.3018,0.19483 -2.5362,1.06698 -3.6214,1.7369 4.2076,-2.40159 8.4152,-4.80331 12.6229,-7.20504 -2.9679,2.02064 -5.5485,4.55589 -8.0239,7.1414 -2.1952,2.38429 -3.1225,5.41482 -4.0515,8.43503 -0.717,2.32182 -1.1298,4.58902 -0.2517,6.9043 1.121,2.03967 3.1051,2.59946 5.1085,3.39636 2.2053,0.64855 4.3572,1.43455 6.6203,1.8694 1.375,0.0625 2.9774,0.66657 4.3329,0.14804 0.3523,-0.13511 1.2922,-0.77873 0.9622,-0.59582 -4.352,2.4119 -8.6864,4.85576 -13.0296,7.28364 2.5631,-2.53888 2.62,-6.4433 2.862,-9.83181 0.5214,-4.29873 -0.074,-8.2434 -2.0085,-12.09233 -1.3779,-2.39795 -3.4406,-3.40682 -6.0683,-3.78412 -0.4066,0.1017 -0.821,0.17695 -1.2198,0.30597 -0.9881,0.31977 -3.671,1.94437 -2.7586,1.44821 4.0916,-2.22506 8.0239,-4.75028 12.2056,-6.80114 0.7399,-0.36292 -1.2451,1.08587 -1.7981,1.6968 -0.5964,0.65902 -1.0936,1.40143 -1.6405,2.10215 -3.7378,5.22246 -5.6434,11.30952 -6.8716,17.53692 -0.5319,3.59206 -1.4137,7.9678 1.2456,10.93091 1.7446,1.13628 3.9444,1.18292 5.9393,0.85327 5.2037,-1.86824 13.4033,-6.30877 -10.3655,6.19224 -0.5128,0.26965 0.92,-0.71422 1.3091,-1.1434 1.2235,-1.34956 1.3823,-2.01527 2.1791,-3.6817 2.1027,-5.39782 2.7176,-11.19155 3.0926,-16.92687 -0.076,-3.06249 0.8926,-6.57668 -0.7595,-9.3499 -0.2537,-0.2358 -0.4475,-0.56022 -0.7609,-0.70769 -0.8052,-0.37891 -1.4137,0.0959 -2.0506,0.53175 -0.4583,0.31367 -1.7961,1.29464 -1.305,1.03545 12.3056,-6.49589 15.4278,-10.45131 10.846,-5.19267 -2.9602,4.24831 -3.8901,9.28844 -4.4753,14.32348 -0.1819,3.19775 -0.1306,6.83529 2.7369,8.81888 2.1397,1.02848 3.9805,0.64391 5.945,-0.49993 -32.42562,16.69543 -13.7511,9.76832 -11.4562,5.83528 0.6296,-1.07904 0.6892,-1.85996 0.9686,-3.09721 0,0 14.5081,-7.0939 14.5081,-7.0939 l 0,0 c -0.1308,1.17638 -0.205,2.40783 -0.5514,3.5524 -1.8663,6.16638 -16.3899,8.89021 -16.2785,10.94165 -2.4651,0.77598 -4.8282,0.55805 -6.9898,-0.96092 -2.9349,-2.72673 -3.4251,-6.52016 -3.2174,-10.39393 0.5706,-5.21403 1.4382,-10.43344 4.0605,-15.06488 4.4057,-6.89078 0.9397,-2.08181 16.496,-11.35572 2.128,-1.26879 4.207,-0.75854 5.6568,1.15677 0.2497,0.43164 0.5606,0.83321 0.749,1.29479 1.1564,2.83207 0.07,6.16944 0.1478,9.08809 -0.4848,5.84429 -1.0911,11.7217 -2.8105,17.35474 -0.6261,1.76857 -0.7979,2.59612 -1.7908,4.1565 -3.9558,6.21636 -11.8903,9.55679 -19.0139,10.89168 -2.5155,0.0262 -4.9695,-0.31281 -6.8263,-2.18337 -2.66552,-3.64944 -2.24342,-8.1478 -1.4629,-12.4012 1.2653,-6.33259 2.9341,-12.61637 6.4934,-18.10006 4.8204,-7.45246 8.1368,-7.38868 18.4775,-13.49186 1.452,-0.85705 3.1274,-1.09256 4.7751,-0.94117 2.9456,0.79312 5.2035,2.39229 6.6763,5.13892 1.9991,4.09838 2.8083,8.28786 2.3492,12.85784 -0.1744,3.71541 -0.2662,7.61765 -2.0954,10.95648 -10.7872,6.39259 -11.7221,10.47339 -20.8484,8.58366 -2.2902,-0.56764 -4.5371,-1.31368 -6.7646,-2.08704 -2.4066,-0.94741 -4.534,-2.1793 -5.7871,-4.55734 -1.0511,-2.64973 -1.0935,-5.15592 -0.2174,-7.88207 0.9496,-3.19122 1.8763,-6.43532 3.8864,-9.15304 2.3604,-2.71642 5.015,-5.18687 7.782,-7.48457 5.065,-2.96224 10.1039,-5.96981 15.195,-8.88702 0.7421,-0.42525 1.9576,-0.85675 2.8048,-1.00058 1.2738,-0.21634 2.5503,-0.0145 3.8152,0.13656 2.8771,0.51127 5.6009,1.4472 7.8253,3.42716 2.7482,2.92287 4.3509,6.55009 4.9925,10.5103 0.5283,5.22668 -0.1014,10.42822 -1.0792,15.57658 -1.0147,4.50388 -1.9324,9.04233 -5.434,12.36183 -6.2245,4.98376 -2.1706,1.87202 -17.2365,10.41078 -1.8628,1.0558 -4.0628,1.45447 -6.1718,1.52754 -2.3214,0.0174 -4.6438,0.0145 -6.9637,-0.0872 -2.5455,-0.1293 -5.0846,-0.35595 -7.6009,-0.77307 -2.2913,-0.32863 -4.6663,-0.31498 -6.83312,-1.222 -2.4143,-1.27024 -4.0207,-3.18162 -4.6224,-5.89688 -0.3672,-2.69433 -0.083,-5.43007 -0.124,-8.14286 0.067,-3.45171 0.2939,-6.91476 0.9506,-10.30937 0.8052,-3.82684 1.8518,-7.63436 3.4121,-11.22671 4.10752,-6.76017 6.50182,-5.78443 16.95962,-11.79855 1.2792,-0.73573 2.9157,-0.62314 4.287,-0.35479 2.6704,1.02717 4.9972,2.56169 7.018,4.60136 0,0 -14.0394,8.60342 -14.0394,8.60342 z"
       inkscape:connector-curvature="0" />
    <path
       style="fill:#000000;fill-opacity:1;stroke:none;stroke-width:5.52299976;stroke-miterlimit:4;stroke-dasharray:none;stroke-opacity:1"
       id="path4439"
       d="m 528.95164,842.67109 c -1.46546,2.46507 -0.79558,5.29525 -0.28982,7.94062 0.80185,3.14312 1.65972,6.26256 2.16279,9.47063 0.29198,3.17843 1.98955,5.68505 3.90332,8.12223 1.74006,1.64232 3.45768,4.69304 5.75995,5.61633 0.35467,0.14239 0.75883,0.0901 1.13824,0.13657 0.39184,-0.0828 0.81163,-0.0799 1.1755,-0.24713 0.37987,-0.17449 1.36937,-0.9538 1.00271,-0.75316 -4.31851,2.36395 -8.51047,4.95804 -12.86853,7.24819 -0.47666,0.25047 0.8314,-0.69331 1.17823,-1.1052 0.85823,-1.01918 1.32579,-2.11609 1.92683,-3.29349 1.40477,-2.98346 2.11432,-6.18542 2.46648,-9.44419 0.19637,-2.30468 0.17344,-4.61996 0.1635,-6.9306 0.0253,-2.20515 -0.83886,-3.62416 -2.90633,-4.30759 -2.01791,-0.36801 -4.14341,-0.58202 -6.16369,-0.17202 -5.04293,2.2762 -12.40589,6.72051 10.81651,-6.31472 0.40015,-0.22461 -0.77805,0.48772 -1.15212,0.75345 -1.06268,0.75506 -1.20033,0.9294 -2.14923,1.78877 -1.7493,1.87695 -3.05503,4.15751 -3.10528,6.75668 0.15795,2.61123 1.70643,4.61996 3.30685,6.55895 1.30501,1.39112 3.05213,3.42411 5.14936,3.58102 0.36498,0.0276 0.72102,-0.1264 1.08153,-0.18931 5.04119,-2.37398 8.06583,-3.8264 -12.06084,6.77659 -0.36275,0.1912 0.658,-0.50748 0.89963,-0.83874 0.86407,-1.18452 0.87259,-2.64305 0.89624,-4.03009 -0.31423,-3.74534 -2.08983,-7.07007 -4.12504,-10.14854 -1.27774,-1.63941 -3.14135,-4.54078 -5.65357,-3.9855 -0.42527,0.0944 -0.79135,0.36409 -1.18702,0.54613 -4.96821,4.2059 0.65584,-0.66512 11.91891,-6.40247 0.38784,-0.19759 -0.54883,0.68096 -0.76203,1.06044 -0.7267,1.29363 -0.94488,2.73662 -1.18273,4.17437 -0.24712,2.66818 0.7671,5.05901 2.16902,7.25792 1.6316,2.65482 3.90316,4.05669 6.79066,5.02008 3.53642,1.0218 6.60981,1.38283 10.09598,0.0828 5.82523,-3.66993 -3.34488,2.13498 -11.55739,6.43154 -0.43092,0.22548 0.72286,-0.65873 1.01696,-1.04621 1.07307,-1.4132 1.42376,-3.08835 1.81165,-4.77324 0.67995,-3.65671 0.71016,-7.27913 -0.23834,-10.87351 -1.04271,-3.24454 -3.15533,-5.76308 -5.96186,-7.6239 -2.06927,-1.51752 -4.44204,-2.1437 -6.94695,-2.41815 -3.36096,-0.40317 -6.58036,0.94102 -9.67575,2.11828 -2.85178,1.14035 -5.75447,2.13629 -8.61684,3.247 0,0 12.64738,-9.9062 12.64738,-9.9062 l 0,0 c 2.87373,-1.05667 5.73865,-2.13469 8.6061,-3.20807 3.38738,-1.1604 6.78814,-2.35872 10.41277,-1.66556 2.65693,0.50327 5.12281,1.45708 7.2895,3.11959 2.92535,2.26225 5.28362,5.04884 6.43532,8.62259 1.07923,3.81551 1.24162,7.61155 0.57015,11.53545 -1.62025,10.14592 -6.49306,11.94398 -18.65659,16.34659 -3.60788,0.7491 -7.14948,0.22462 -10.62989,-0.9445 -3.15958,-1.20951 -5.64036,-2.93479 -7.46216,-5.85708 -1.60991,-2.51417 -2.76232,-5.24774 -2.68866,-8.29323 1.21332,-9.75713 4.95662,-11.63002 17.58702,-15.85698 0.51112,-0.0145 1.0269,-0.11042 1.53337,-0.0407 2.89044,0.40041 4.71663,2.99944 6.28298,5.17931 2.14784,3.34609 3.98968,6.92042 4.63344,10.88979 0.56332,9.26767 -6.19229,14.11645 -17.4312,15.06023 -2.90844,-0.54773 -5.099,-2.29814 -6.94444,-4.57971 -1.81743,-2.20283 -3.54295,-4.52044 -3.86793,-7.4513 -0.27577,-2.97866 0.82715,-5.59338 2.57458,-7.99162 0.90818,-1.01802 1.93787,-2.20109 3.12996,-2.905 4.62484,-2.73124 11.08788,-8.20373 17.53061,-9.32854 2.25725,-0.0697 4.56816,0.016 6.69181,0.86373 2.36153,1.27823 3.63012,3.22375 3.82646,5.94439 0.0102,2.37208 0.0356,4.7481 -0.14296,7.11539 -0.33612,3.44125 -1.04987,6.82207 -2.4063,10.01982 -0.40399,0.93782 -1.14139,2.726 -1.65845,3.63637 -3.22909,5.6852 -10.37875,7.16218 -16.04161,10.30632 -0.40532,0.22505 -0.90318,0.2448 -1.36658,0.25832 -0.49311,0.0145 -0.97968,-0.11769 -1.46951,-0.17566 -3.20693,-1.4068 -5.07979,-4.08486 -7.33303,-6.665 -2.07244,-2.65337 -4.00146,-5.3695 -4.42571,-8.80857 -0.38767,-3.20196 -1.11142,-6.33622 -2.03661,-9.42603 -0.60062,-2.83323 -1.41652,-5.94627 -0.45882,-8.77979 0,0 15.04151,-6.80521 15.04151,-6.80521 z"
       inkscape:connector-curvature="0" />
    <path
       style="fill:#000000;fill-opacity:1;stroke:none;stroke-width:5.52299976;stroke-miterlimit:4;stroke-dasharray:none;stroke-opacity:1"
       id="path4441"
       d="m 519.82658,867.90659 c -2.45471,-0.53146 -4.96819,-0.69258 -7.47079,-0.80997 -2.35791,-0.0886 -4.7179,-0.0828 -7.07706,-0.0814 -2.32876,-0.032 -4.65799,0.1511 -6.96314,-0.20994 -2.8567,-0.24263 -5.62929,-0.86256 -8.43238,-1.42046 -2.49761,-0.2653 -4.94177,-0.77598 -7.41729,-1.1867 -2.59104,-0.40579 -5.21618,-0.47 -7.83317,-0.51301 -2.38089,-0.0232 -4.76195,-0.0145 -7.14288,0 -2.22888,0.0145 -4.45776,0.0145 -6.68665,0.0145 -1.47995,4.4e-4 -0.73994,2.9e-4 -2.22003,5.8e-4 0,0 13.24106,-9.62071 13.24106,-9.62071 l 0,0 c 1.47996,-5.8e-4 0.74002,-1.5e-4 2.2198,-8.7e-4 2.22696,0 4.45393,0 6.68089,-0.0145 2.3763,5.8e-4 4.75304,4.3e-4 7.12862,0.0668 2.66609,0.0915 5.34032,0.21052 7.96782,0.70783 2.48198,0.444 4.98127,0.75186 7.4568,1.22782 2.74482,0.59669 5.50414,1.0696 8.30894,1.28869 2.30954,0.077 4.62018,0.0305 6.93081,0.0465 2.36564,0.0145 4.73269,0.0334 7.09443,0.18321 2.59271,0.18465 5.17657,0.4636 7.74062,0.89699 0,0 -13.5264,9.42531 -13.5264,9.42531 z"
       inkscape:connector-curvature="0" />
    <path
       style="fill:#000000;fill-opacity:1;stroke:none;stroke-width:5.52299976;stroke-miterlimit:4;stroke-dasharray:none;stroke-opacity:1"
       id="path4443"
       d="m 533.14002,970.42569 c -2.83684,-0.0915 -5.67585,-0.0465 -8.51369,-0.0567 -2.70146,4.3e-4 -5.40289,0.016 -8.10434,0.0232 -2.27314,0.0145 -4.54627,0.0145 -6.81941,0.0145 -2.21881,4.4e-4 -4.43761,2.9e-4 -6.65642,1.5e-4 -2.48548,-0.0145 -4.97097,-0.016 -7.45653,-0.0145 -2.32904,0.0145 -4.65809,0.0145 -6.98714,0.0145 -2.44291,2.9e-4 -4.88568,-0.016 -7.32861,-0.0145 -2.58646,0.0145 -5.17281,-0.0145 -7.75928,0 -2.37851,0.0145 -4.75705,0.0145 -7.13558,0.0145 -2.49253,-0.0145 -4.98502,-0.0145 -7.47759,-0.0145 -2.327,0.0145 -4.654,0.0145 -6.981,0.0145 -1.49008,5.8e-4 -0.74571,2.9e-4 -2.23312,7.2e-4 0,0 13.24039,-9.61969 13.24039,-9.61969 l 0,0 c 1.48614,4.3e-4 0.74247,1.4e-4 2.23095,7.2e-4 2.31792,0 4.63584,0 6.95376,0.0145 2.50102,0.0145 5.00196,0 7.50294,-0.0145 2.36608,0 4.73219,0.0145 7.09828,0.0145 2.58819,0.0145 5.17624,-0.0145 7.7644,0 2.45425,0 4.90834,-0.0145 7.36257,-0.0145 2.31989,0 4.63978,0 6.95967,0.0145 2.49578,0.0145 4.99148,0 7.4872,-0.0145 2.21868,-1.4e-4 4.43737,-2.9e-4 6.65606,0 2.26588,7.3e-4 4.53177,0 6.79765,0.0145 2.67971,0.0145 5.35939,0.0233 8.0391,0.0233 2.89021,-0.0145 5.78143,0.0334 8.67073,-0.0567 0,0 -13.31099,9.67113 -13.31099,9.67113 z"
       inkscape:connector-curvature="0" />
    <path
       style="fill:#000000;fill-opacity:1;stroke:none;stroke-width:5.52299976;stroke-miterlimit:4;stroke-dasharray:none;stroke-opacity:1"
       id="path4445"
       d="m 539.80936,964.86791 c -2.92374,-0.0378 -5.86069,-0.19876 -8.77141,0.11187 -3.64198,0.26529 -7.2333,0.83801 -10.83704,1.40041 -3.45207,0.49993 -6.87275,1.13396 -10.34742,1.49136 -2.8957,0.57795 -5.80802,1.03212 -8.75122,1.27024 -2.31813,0.1556 -4.64265,0.15633 -6.96483,0.15967 -2.21854,0 -4.43708,-0.0145 -6.6556,-0.0145 -2.26064,-0.0145 -4.52132,0.0145 -6.78189,-0.0145 -2.72672,-0.0145 -5.45333,-0.0174 -8.18008,-0.0145 -2.4178,0.0145 -4.83561,0.0145 -7.25344,0.0174 -2.22936,0 -4.45873,0 -6.68811,0 -0.36981,0 -0.73962,0 -1.10942,0 0,0 13.24144,-9.62057 13.24144,-9.62057 l 0,0 c 0.36981,0 0.73962,0 1.10944,0 2.22737,1.5e-4 4.45474,0 6.68209,0 2.40161,0 4.80321,0.0145 7.20481,0.0174 2.73495,0.0145 5.46979,5.8e-4 8.20474,-0.0145 2.27101,-0.0189 4.54212,-0.0145 6.8132,-0.0145 2.21644,0 4.4329,0.0145 6.64934,0 2.28353,-0.016 4.57003,-0.0407 6.84581,-0.24859 2.90394,-0.29696 5.7711,-0.82101 8.65902,-1.23609 3.4444,-0.39344 6.84252,-1.06117 10.27676,-1.5274 3.62769,-0.54438 7.26079,-1.01874 10.91881,-1.31353 3.01371,-0.15894 6.03003,-0.0538 9.046,-0.15386 0,0 -13.311,9.67113 -13.311,9.67113 z"
       inkscape:connector-curvature="0" />
    <path
       style="fill:#000000;fill-opacity:1;stroke:none;stroke-width:5.52299976;stroke-miterlimit:4;stroke-dasharray:none;stroke-opacity:1"
       id="path4449"
       d="m 1050.7087,905.95547 c 2.2013,0.061 4.4042,0.0567 6.6062,0.0538 2.242,-0.0145 4.484,-0.0145 6.7259,-0.0145 1.9624,-0.0145 3.9248,-0.0145 5.8872,-0.0145 1.8418,-0.0145 3.6836,1.5e-4 5.5255,0 1.7187,0 3.4374,-0.0145 5.1562,-0.0145 1.7229,-0.0145 3.4458,0 5.1687,0.016 1.9117,0.0145 3.8232,-0.0145 5.7349,-0.0145 1.9814,0.0145 3.9627,0.016 5.9441,0.0145 1.7251,-0.0145 3.4503,-0.0145 5.1754,-0.0145 1.5727,-0.061 3.1146,-0.46114 4.6872,-0.6275 1.5786,-0.14238 3.1645,-0.15371 4.7481,-0.16388 0.7872,0 1.5742,0 2.3612,0 0,0 -9.3624,6.80289 -9.3624,6.80289 l 0,0 c -0.7847,0 -1.5692,0 -2.3538,0.0145 -1.5596,0.0261 -3.1225,0.0639 -4.6713,0.26602 -1.5837,0.22141 -3.158,0.59146 -4.7675,0.51155 -1.7122,0 -3.4244,-0.0145 -5.1366,-0.0145 -1.9898,-0.0145 -3.9798,0 -5.9696,0.0145 -1.9007,-0.0145 -3.8015,-0.016 -5.7022,-0.0145 -1.7379,0.0145 -3.4758,0.0218 -5.2137,0.016 -1.709,0 -3.4179,-0.0145 -5.1269,-0.0145 -1.8402,0 -3.6804,0.0145 -5.5207,0 -1.9537,0 -3.9073,0.0145 -5.8609,-0.0145 -2.232,0 -4.4639,0 -6.6958,-0.0145 -2.2505,0 -4.5017,-0.0145 -6.7515,0.0523 0,0 9.4123,-6.83834 9.4123,-6.83834 z"
       inkscape:connector-curvature="0" />
    <path
       style="fill:#000000;fill-opacity:1;stroke:none;stroke-width:5.52299976;stroke-miterlimit:4;stroke-dasharray:none;stroke-opacity:1"
       id="path4451"
       d="m 1056.9131,902.80392 c 1.959,0.0494 3.9194,0.0552 5.879,0.0567 2.4277,-0.0247 4.8275,0.46143 7.2082,0.88538 2.4882,0.42177 5.0077,0.57577 7.5267,0.64914 1.8191,0.0378 3.6387,0.0232 5.4581,0.016 1.5773,-0.0145 3.1547,-0.0145 4.732,-0.0145 1.5685,-0.001 3.137,-8.7e-4 4.7056,-8.7e-4 1.5715,1.5e-4 3.1432,1.5e-4 4.7149,1.5e-4 1.6858,-0.0145 3.3715,0.0145 5.0573,0.0145 1.7106,0 3.4214,-0.0145 5.132,-0.0145 0,0 -9.3572,6.79852 -9.3572,6.79852 l 0,0 c -1.7028,0 -3.4054,-0.0145 -5.1081,-0.0145 -1.6957,2.9e-4 -3.3912,0.016 -5.0868,0.0145 -1.5717,0 -3.1434,0 -4.7151,1.5e-4 -1.5685,1.4e-4 -3.137,4.3e-4 -4.7054,0 -1.575,0 -3.15,0.0145 -4.725,0.0145 -1.8068,-0.0145 -3.6142,-0.016 -5.4192,-0.10461 -2.5342,-0.13802 -5.061,-0.36728 -7.5636,-0.80358 -2.3565,-0.39125 -4.734,-0.75418 -7.1302,-0.70159 -2.0121,0 -4.0249,0.0145 -6.0365,0.0581 0,0 9.4333,-6.85374 9.4333,-6.85374 z"
       inkscape:connector-curvature="0" />
    <path
       style="fill:#000000;fill-opacity:1;stroke:none;stroke-width:5.52299976;stroke-miterlimit:4;stroke-dasharray:none;stroke-opacity:1"
       id="path4453"
       d="m 1020.7215,658.14281 c -0.5605,2.03416 -0.1716,4.12773 0.1477,6.16581 0.2657,2.23465 0.669,4.44779 1.0134,6.67111 0.066,0.31498 0.1319,0.62996 0.1978,0.94494 0,0 -10.1454,5.44126 -10.1454,5.44126 l 0,0 c -0.074,-0.3404 -0.1482,-0.68095 -0.2223,-1.0215 -0.2914,-2.23146 -0.7504,-4.43487 -0.9844,-6.67388 -0.316,-2.12699 -0.7792,-4.2858 -0.4962,-6.44141 0,0 10.4894,-5.08633 10.4894,-5.08633 z"
       inkscape:connector-curvature="0" />
    <path
       style="fill:#000000;fill-opacity:1;stroke:none;stroke-width:5.52299976;stroke-miterlimit:4;stroke-dasharray:none;stroke-opacity:1"
       id="path4455"
       d="m 731.48852,505.479 c -0.35118,4.58871 0.19616,9.18022 0.61625,13.74523 0.64407,8.60015 2.00248,17.12308 2.96843,25.68959 0.96822,8.03211 2.2635,16.01837 3.34294,24.03521 0.61862,4.48343 1.13617,8.98055 1.43882,13.49665 0.11288,1.68742 0.14695,3.37821 0.15215,5.06889 0.0189,0.6882 -0.18678,1.30773 -0.43178,1.9369 0,0 -8.16537,3.67083 -8.16537,3.67083 l 0,0 c 0.34895,-0.48332 0.59582,-0.93946 0.63022,-1.55411 0.0247,-1.70996 0.0672,-3.41986 0.0559,-5.13014 -0.0605,-4.58271 -0.34292,-9.16001 -0.85942,-13.71478 -0.9829,-8.06353 -2.19968,-16.09655 -3.11161,-24.16916 -0.98537,-8.53005 -2.37982,-17.00386 -3.2541,-25.5463 -0.54826,-4.47776 -1.24513,-8.94755 -1.3622,-13.46294 0,0 7.97974,-4.06587 7.97974,-4.06587 z"
       inkscape:connector-curvature="0" />
    <path
       style="fill:#000000;fill-opacity:1;stroke:none;stroke-width:5.52299976;stroke-miterlimit:4;stroke-dasharray:none;stroke-opacity:1"
       id="path4457"
       d="m 732.11695,504.28061 c 1.60473,0.0517 3.21079,0.0472 4.81617,0.0421 1.92747,0.0208 3.85503,0.002 5.78253,0.003 1.70865,0.009 3.41729,-0.007 5.1259,-0.016 1.38629,-0.10076 2.65756,0.48237 3.97269,0.80625 1.68229,0.49838 3.14147,1.48603 4.5899,2.44216 1.903,1.15034 3.14648,2.96361 4.33223,4.78787 0.91259,1.55098 1.67442,3.19741 2.30546,4.88235 0.50161,1.36597 0.57859,2.81081 0.63411,4.24874 0.0367,1.46991 0.0241,2.94092 0.007,4.4111 0.13932,1.89374 -0.28989,3.71359 -0.72301,5.54058 -0.58811,2.33992 -1.63357,4.51667 -2.78555,6.62321 -0.9419,1.86152 -2.17282,3.5418 -3.50419,5.13878 -3.10334,3.62853 -7.61083,5.41442 -11.70218,7.74905 -1.26948,0.54283 -2.65943,0.44734 -3.98821,0.68044 -1.37833,0.20404 -2.74396,0.35903 -4.10132,0.66975 -1.2648,0.18394 -2.46574,0.60362 -3.72495,0.82134 -0.30773,0.0998 -0.75599,0.21928 -1.04164,0.40097 -0.0916,0.0583 -0.32588,0.28392 -0.23349,0.22695 2.52803,-1.55888 5.04292,-3.13922 7.54679,-4.73662 0.24424,-0.15582 -0.4578,-0.22449 0.33231,-0.0317 1.39985,0.35481 2.79213,0.7603 4.16542,1.21188 2.06279,0.4967 3.91908,1.42129 5.67857,2.58088 1.76769,1.23795 3.6469,2.25812 5.59813,3.17056 2.02132,0.95933 4.09725,1.78446 6.07304,2.83776 1.88774,1.01769 3.62301,2.28194 5.45047,3.40028 2.25111,1.30514 4.37467,2.82667 6.45213,4.39104 1.6148,1.09052 3.15046,2.28717 4.73353,3.4212 1.4889,0.95371 2.87309,2.04849 4.20287,3.21031 1.29695,1.16272 2.52986,2.39404 3.76356,3.62288 0.81155,0.81068 1.62124,1.62322 2.4313,2.43538 0,0 -7.57137,4.63837 -7.57137,4.63837 l 0,0 c -0.80928,-0.81144 -1.61816,-1.6233 -2.42924,-2.43295 -1.22019,-1.21415 -2.43965,-2.43104 -3.72816,-3.57343 -1.32142,-1.13913 -2.70574,-2.19496 -4.17634,-3.13646 -1.55865,-1.14955 -3.05984,-2.37433 -4.63386,-3.50387 -2.05554,-1.55975 -4.17634,-3.04505 -6.43602,-4.29669 -1.82184,-1.10335 -3.55562,-2.34985 -5.44456,-3.33899 -1.97055,-1.02546 -4.02215,-1.8774 -6.03397,-2.81724 -1.97244,-0.93996 -3.87693,-1.99821 -5.65956,-3.2669 -1.74004,-1.08691 -3.60333,-1.84555 -5.59486,-2.34993 -1.44493,-0.42062 -2.9119,-0.76916 -4.34352,-1.22851 -4.06394,-2.3985 4.75085,-5.55819 8.03082,-6.23359 1.23582,-0.27769 2.45631,-0.61785 3.70793,-0.82445 1.36676,-0.2702 2.75921,-0.37118 4.13101,-0.61613 1.30242,-0.14715 2.61872,-0.25263 3.79349,-0.89817 -13.61694,7.94274 -5.83188,3.97663 -3.39928,1.26502 1.3689,-1.54412 2.67392,-3.1578 3.62102,-5.00318 1.19169,-2.02205 2.24364,-4.13083 2.89143,-6.39645 0.41119,-1.74816 0.83217,-3.50487 0.7214,-5.31412 -0.007,-1.45806 0.007,-2.91619 -0.0114,-4.37422 -0.0328,-1.34944 -0.0862,-2.71096 -0.49103,-4.01029 -0.55798,-1.64438 -1.29123,-3.23043 -2.13985,-4.7446 -1.10846,-1.74998 -2.31152,-3.40519 -4.1529,-4.45514 -1.41216,-0.89129 -2.84377,-1.78244 -4.49208,-2.16541 -1.26274,-0.34096 -2.50797,-0.73224 -3.83821,-0.62504 -1.69388,-0.009 -3.38779,-0.0247 -5.08171,-0.016 -1.9304,8.9e-4 -3.86087,-0.0176 -5.79124,0.003 -1.64404,-0.005 -3.28865,-0.008 -4.9321,0.0421 0,0 7.29412,-5.29949 7.29412,-5.29949 z"
       inkscape:connector-curvature="0" />
    <path
       style="fill:#000000;fill-opacity:1;stroke:none;stroke-width:5.52299976;stroke-miterlimit:4;stroke-dasharray:none;stroke-opacity:1"
       id="path4459"
       d="m 799.42051,570.07496 c -0.25577,-2.14813 -0.31933,-4.31341 -0.38775,-6.47387 -0.07,-2.54222 -0.079,-5.08555 -0.0854,-7.62855 0.0382,-2.15632 -0.10124,-4.31828 0.0231,-6.47178 0.15454,-1.51777 0.33792,-3.0314 0.43628,-4.55423 0.4699,-4.19974 1.44855,-2.90723 8.34151,-6.02048 0.11804,-0.0533 0.85337,1.0846 0.887,1.13418 0.8241,1.43711 1.00629,3.09856 1.14365,4.71849 0.12165,1.62685 0.0927,3.25919 0.0919,4.88907 4.1e-4,1.68028 -0.0164,3.36044 -0.01,5.04074 0.008,1.53642 0.0121,3.07299 10e-4,4.6094 -0.0835,1.70844 0.0274,3.39983 0.24636,5.09247 0.14645,1.53345 0.35744,3.05205 0.58465,4.57499 0.34895,1.70202 0.61674,3.41836 0.99033,5.11508 0.32342,1.54977 0.48951,3.1235 0.58123,4.70196 0.18712,1.26489 0.37695,2.53074 0.57951,3.79366 0.29608,1.36948 0.49256,2.75374 0.60351,4.14959 0.0282,0.19981 0.0564,0.39962 0.0846,0.59942 0,0 -7.89823,4.18525 -7.89823,4.18525 l 0,0 c -0.0404,-0.22416 -0.0807,-0.44831 -0.12113,-0.67247 -0.08,-1.36615 -0.22831,-2.72748 -0.54361,-4.06198 -0.2788,-1.28787 -0.37924,-2.61064 -0.63914,-3.90415 -0.0533,-1.53901 -0.15795,-3.07996 -0.47618,-4.59049 -0.36149,-1.71649 -0.62465,-3.4491 -1.02391,-5.15811 -0.23952,-1.53027 -0.49698,-3.05064 -0.59076,-4.59943 -0.20767,-1.72742 -0.38731,-3.44261 -0.3042,-5.18687 -0.0107,-1.53791 -0.006,-3.07601 0.005,-4.6139 0.011,-1.68103 0.002,-3.36204 0.0134,-5.04305 0.005,-1.60885 0.004,-3.21867 -0.0621,-4.8264 -0.0982,-1.45063 -0.20364,-2.97017 -0.95914,-4.25057 -0.10426,-0.12601 -0.18477,-0.27623 -0.31278,-0.37802 -0.0559,-0.0444 -0.27157,-9.4e-4 -0.21072,-0.0383 2.48753,-1.52566 5.02884,-2.96189 7.53624,-4.45466 0.0874,-0.0521 -0.21507,0.0499 -0.27531,0.13189 -0.12466,0.16969 -0.248,0.91061 -0.27776,1.05725 -0.0957,1.54119 -0.28373,3.07172 -0.49968,4.60046 -0.21304,2.14065 -0.0733,4.29859 -0.12776,6.44659 -2.5e-4,2.53717 -0.004,5.07476 0.0594,7.61131 0.0683,2.0801 0.11488,4.18206 0.54561,6.22545 0,0 -7.94923,4.25002 -7.94923,4.25002 z"
       inkscape:connector-curvature="0" />
    <path
       style="fill:#000000;fill-opacity:1;stroke:none;stroke-width:5.52299976;stroke-miterlimit:4;stroke-dasharray:none;stroke-opacity:1"
       id="path4461"
       d="m 799.56969,592.24809 c 3.49891,-2.53839 7.15288,-5.1074 11.44335,-5.75713 1.4541,-0.0123 2.81725,-0.30799 4.21505,-0.6732 1.42783,-0.3167 2.84718,-0.67679 4.24847,-1.09781 3.33098,-1.70735 -8.33007,4.24833 -7.02831,5.38183 2.32044,2.02052 5.00251,-3.58368 7.50455,-5.37442 0.0421,-0.0302 0.17086,-0.11731 0.12796,-0.0883 -7.67754,5.20155 -4.54536,4.99861 -7.86349,5.16579 -1.20893,-0.038 -2.41851,-0.0456 -3.62795,-0.0466 -1.43869,0.005 -2.87735,0.0152 -4.31604,0.0206 -1.38454,-0.11707 -2.68591,0.24882 -3.99743,0.62997 -0.90997,0.22967 -0.45569,0.12617 -1.36266,0.31136 0,0 7.10657,-5.40542 7.10657,-5.40542 l 0,0 c 0.87819,-0.21308 0.43578,-0.10068 1.32707,-0.3378 1.36398,-0.35086 2.74364,-0.53016 4.15525,-0.45171 1.42838,10e-4 2.85676,0.004 4.28514,0.002 1.27237,-0.004 2.55647,-0.0659 3.82095,0.0973 3.21687,1.03107 0.68744,0.10422 -6.79097,5.44454 -0.0585,0.0418 -0.26794,0.003 -0.21153,-0.0416 2.33097,-1.83923 5.82766,-8.07426 7.09312,-5.38823 1.77999,3.77815 -4.42325,4.96385 -7.33826,5.54226 -1.39911,0.33103 -2.78022,0.73585 -4.18768,1.03378 -1.41729,0.34666 -2.84234,0.47128 -4.28505,0.6578 -0.66582,0.15167 -1.30838,0.31878 -1.93609,0.59503 -0.21069,0.0927 -0.81821,0.42123 -0.61996,0.30423 5.12191,-3.02258 9.59409,-5.52494 6.61578,-3.85631 0,0 -8.37784,3.33174 -8.37784,3.33174 z"
       inkscape:connector-curvature="0" />
    <ellipse
       style="fill:#ff0000;fill-opacity:1;stroke:none;stroke-width:5.52299976;stroke-miterlimit:4;stroke-dasharray:none;stroke-opacity:1;filter:url(#filter6497)"
       id="path5465"
       cx="67.764496"
       cy="1023.4938"
       rx="19.751984"
       ry="19.14423"
       transform="matrix(2.6344942,0,0,2.6344942,-47.157786,-1780.7683)" />
    <rect
       style="fill:#ff0000;fill-opacity:1;stroke:none;stroke-width:5.52299976;stroke-miterlimit:4;stroke-dasharray:none;stroke-opacity:1"
       id="rect6255"
       width="9.7566109"
       height="292.46246"
       x="740.12091"
       y="289.44083"
       ry="0.28236037"
       transform="matrix(0.72767966,0.68591714,-0.71284551,0.70132109,0,0)" />
    <rect
       style="fill:#b3b3b3;fill-opacity:1;stroke:#000000;stroke-width:5.52299976;stroke-miterlimit:4;stroke-dasharray:none;stroke-opacity:1"
       id="rect6511"
       width="166.52441"
       height="34.034187"
       x="-265.48462"
       y="726.1778"
       ry="0.28235999"
       transform="matrix(0.71212063,-0.70205713,0.70205713,0.71212063,0,0)" />
  </g>
</svg>
