<?xml version="1.0" encoding="UTF-8" standalone="no"?>
<!-- Created with Inkscape (http://www.inkscape.org/) -->

<svg
   xmlns:dc="http://purl.org/dc/elements/1.1/"
   xmlns:cc="http://creativecommons.org/ns#"
   xmlns:rdf="http://www.w3.org/1999/02/22-rdf-syntax-ns#"
   xmlns:svg="http://www.w3.org/2000/svg"
   xmlns="http://www.w3.org/2000/svg"
   xmlns:sodipodi="http://sodipodi.sourceforge.net/DTD/sodipodi-0.dtd"
   xmlns:inkscape="http://www.inkscape.org/namespaces/inkscape"
   width="52mm"
   height="52mm"
   viewBox="0 0 184.25197 184.25197"
   id="svg4228"
   version="1.1"
   inkscape:version="0.91 r13725"
   sodipodi:docname="sleep_early.svg"
   inkscape:export-filename="/home/blue/arms_training.png"
   inkscape:export-xdpi="27.206306"
   inkscape:export-ydpi="27.206306">
  <defs
     id="defs4230" />
  <sodipodi:namedview
     id="base"
     pagecolor="#ffffff"
     bordercolor="#666666"
     borderopacity="1.0"
     inkscape:pageopacity="0.0"
     inkscape:pageshadow="2"
     inkscape:zoom="2.8284271"
     inkscape:cx="91.880825"
     inkscape:cy="82.675142"
     inkscape:document-units="px"
     inkscape:current-layer="layer1"
     showgrid="false"
     inkscape:window-width="1280"
     inkscape:window-height="1000"
     inkscape:window-x="0"
     inkscape:window-y="24"
     inkscape:window-maximized="1" />
  <metadata
     id="metadata4233">
    <rdf:RDF>
      <cc:Work
         rdf:about="">
        <dc:format>image/svg+xml</dc:format>
        <dc:type
           rdf:resource="http://purl.org/dc/dcmitype/StillImage" />
        <dc:title></dc:title>
      </cc:Work>
    </rdf:RDF>
  </metadata>
  <g
     inkscape:label="Layer 1"
     inkscape:groupmode="layer"
     id="layer1"
     transform="translate(0,-868.11024)">
    <circle
       r="75.478218"
       cy="960.93365"
       cx="92.857147"
       id="circle4931"
       style="fill:#cccccc;fill-opacity:1;stroke:none;stroke-opacity:1" />
    <path
       style="fill:#333333;fill-opacity:1;stroke:none;stroke-opacity:1"
       d="M 92.857422 17.109375 A 75.714279 75.714279 0 0 0 23.080078 63.447266 L 92.429688 92.833984 L 67.017578 163.89062 A 75.714279 75.714279 0 0 0 92.857422 168.53711 A 75.714279 75.714279 0 0 0 168.57227 92.824219 A 75.714279 75.714279 0 0 0 92.857422 17.109375 z "
       transform="translate(0,868.11024)"
       id="path4929" />
    <text
       xml:space="preserve"
       style="font-style:normal;font-weight:normal;font-size:56.5061264px;line-height:125%;font-family:sans-serif;letter-spacing:0px;word-spacing:0px;fill:#000000;fill-opacity:1;stroke:none;stroke-width:1px;stroke-linecap:butt;stroke-linejoin:miter;stroke-opacity:1"
       x="0.49396697"
       y="932.97107"
       id="text4958"
       sodipodi:linespacing="125%"><tspan
         sodipodi:role="line"
         id="tspan4960"
         x="0.49396697"
         y="932.97107"
         style="font-size:17.65816498px">10</tspan></text>
    <text
       xml:space="preserve"
       style="font-style:normal;font-weight:normal;font-size:65.54393005px;line-height:125%;font-family:sans-serif;letter-spacing:0px;word-spacing:0px;fill:#000000;fill-opacity:1;stroke:none;stroke-width:1px;stroke-linecap:butt;stroke-linejoin:miter;stroke-opacity:1"
       x="79.15284"
       y="883.87457"
       id="text4958-3"
       sodipodi:linespacing="125%"><tspan
         sodipodi:role="line"
         x="79.15284"
         y="883.87457"
         style="font-size:20.4824791px"
         id="tspan4988">12</tspan></text>
    <text
       xml:space="preserve"
       style="font-style:normal;font-weight:normal;font-size:57.97903061px;line-height:125%;font-family:sans-serif;letter-spacing:0px;word-spacing:0px;fill:#000000;fill-opacity:1;stroke:none;stroke-width:1px;stroke-linecap:butt;stroke-linejoin:miter;stroke-opacity:1"
       x="85.465942"
       y="1050.9575"
       id="text4958-7"
       sodipodi:linespacing="125%"><tspan
         sodipodi:role="line"
         id="tspan4960-5"
         x="85.465942"
         y="1050.9575"
         style="font-size:18.11844635px">6</tspan></text>
    <circle
       style="fill:#000000;fill-opacity:1;stroke:none;stroke-opacity:1"
       id="circle5042"
       cx="93.357147"
       cy="961.43365"
       r="6.4782181" />
    <path
       style="fill:#000000;fill-opacity:1;stroke:none;stroke-opacity:1"
       id="path5071"
       d="m 17.877237,961.71346 c 0.574504,-0.0984 1.166315,-0.0687 1.73433,0.0552 0.524164,0.10954 1.03851,0.25444 1.563637,0.35991 0,0 -2.998287,2.0845 -2.998287,2.0845 l 0,0 c -0.522277,-0.11548 -1.042596,-0.24032 -1.568246,-0.34006 -0.566096,-0.0695 -1.132065,-0.0762 -1.686865,0.0781 0,0 2.955431,-2.23769 2.955431,-2.23769 z"
       inkscape:connector-curvature="0" />
    <path
       style="fill:#000000;fill-opacity:1;stroke:none;stroke-opacity:1"
       id="path5073"
       d="m 167.14937,957.5225 c 0.56459,0.0183 1.12969,0.013 1.6945,0.0117 0.53261,-0.002 1.06521,-0.002 1.59782,-0.003 0.50105,-3.7e-4 1.0021,-3.6e-4 1.50314,-3.7e-4 0.0832,0 0.16643,0 0.24965,0 0,0 -2.97686,2.16281 -2.97686,2.16281 l 0,0 c -0.0832,0 -0.16643,0 -0.24964,0 -0.50071,0 -1.00142,0 -1.50212,-3.7e-4 -0.52983,-4.9e-4 -1.05967,-0.001 -1.5895,-0.003 -0.57554,-0.001 -1.15134,-0.006 -1.72669,0.0117 0,0 2.9997,-2.17941 2.9997,-2.17941 z"
       inkscape:connector-curvature="0" />
    <path
       style="fill:#000000;fill-opacity:1;stroke:none;stroke-opacity:1"
       id="path5075"
       d="m 90.701702,889.82211 c 0.02111,-0.92131 0.127763,-1.83 0.190457,-2.74543 0.008,-0.14621 0.01605,-0.29244 0.02407,-0.43865 0,0 3.284025,-2.59064 3.284025,-2.59064 l 0,0 c -0.0077,0.15063 -0.01532,0.30116 -0.02297,0.45173 -0.05738,0.88669 -0.17619,1.77253 -0.171881,2.66226 0,0 -3.303702,2.66073 -3.303702,2.66073 z"
       inkscape:connector-curvature="0" />
    <path
       style="fill:#000000;fill-opacity:1;stroke:none;stroke-opacity:1"
       id="path5079"
       d="m 92.085548,1036.5866 c -0.05553,-0.5806 -0.167072,-1.1498 -0.286953,-1.7196 -0.11493,-0.5323 -0.155716,-1.0753 -0.177873,-1.6181 -0.0086,-0.2526 -0.01008,-0.5053 -0.01189,-0.7579 0,0 3.277576,-1.672 3.277576,-1.672 l 0,0 c 6.27e-4,0.2497 9.61e-4,0.4994 0.0061,0.749 0.01374,0.5253 0.03885,1.0519 0.138755,1.5692 0.111779,0.5672 0.227484,1.1318 0.323411,1.7016 0,0 -3.269096,1.7478 -3.269096,1.7478 z"
       inkscape:connector-curvature="0" />
    <path
       style="fill:#000000;fill-opacity:1;stroke:none;stroke-opacity:1"
       id="path5081"
       d="m 24.420245,929.83246 c 0.647353,0.24671 1.262848,0.56612 1.892944,0.85203 0.483841,0.34314 1.081903,0.39765 1.611715,0.61564 0.05723,0.0461 0.11446,0.0922 0.171691,0.13835 0,0 -3.123676,1.98491 -3.123676,1.98491 l 0,0 c -0.03693,-0.0215 -0.07386,-0.0429 -0.11079,-0.0644 -0.545103,-0.18849 -1.094049,-0.35819 -1.592742,-0.66007 -0.609671,-0.29264 -1.220952,-0.61863 -1.890589,-0.74718 0,0 3.041447,-2.1193 3.041447,-2.1193 z"
       inkscape:connector-curvature="0" />
    <path
       style="fill:#000000;fill-opacity:1;stroke:none;stroke-opacity:1"
       id="path5083"
       d="m 47.936437,897.96092 c 0.484562,0.53361 0.867586,1.14993 1.308695,1.71991 0.388515,0.48672 0.824576,0.92905 1.180441,1.44098 0,0 -3.15524,1.85275 -3.15524,1.85275 l 0,0 c -0.340136,-0.51273 -0.772141,-0.94891 -1.148358,-1.43471 -0.418812,-0.54547 -0.787447,-1.15414 -1.319177,-1.59693 0,0 3.133639,-1.982 3.133639,-1.982 z"
       inkscape:connector-curvature="0" />
    <path
       style="fill:#000000;fill-opacity:1;stroke:none;stroke-opacity:1"
       id="path5085"
       d="m 132.63786,893.70302 c -0.13857,0.55507 -0.18566,1.12705 -0.22078,1.69638 -0.004,0.0928 -0.008,0.18555 -0.0122,0.27833 0,0 -3.27748,1.65249 -3.27748,1.65249 l 0,0 c 0.004,-0.095 0.008,-0.18998 0.0118,-0.28496 0.0327,-0.57696 0.0855,-1.15206 0.16315,-1.72482 0,0 3.33553,-1.61742 3.33553,-1.61742 z"
       inkscape:connector-curvature="0" />
    <path
       style="fill:#000000;fill-opacity:1;stroke:none;stroke-opacity:1"
       id="path5087"
       d="m 158.16445,917.88783 c 0.0916,0.65036 0.13762,1.30453 0.23908,1.95358 0.12488,0.60926 0.14873,1.23209 0.23487,1.84608 0,0 -3.24602,1.71801 -3.24602,1.71801 l 0,0 c -0.10528,-0.61419 -0.0842,-1.24557 -0.2098,-1.85871 -0.1021,-0.63694 -0.15818,-1.27928 -0.28722,-1.91116 0,0 3.26909,-1.7478 3.26909,-1.7478 z"
       inkscape:connector-curvature="0" />
    <path
       style="fill:#000000;fill-opacity:1;stroke:none;stroke-opacity:1"
       id="path5089"
       d="m 160.18402,995.78568 c 0.28731,0.59021 0.54009,1.19553 0.75915,1.81419 0.13615,0.42114 0.30028,0.83187 0.43932,1.25204 0,0 -3.21124,1.76249 -3.21124,1.76249 l 0,0 c -0.12725,-0.4198 -0.28802,-0.82668 -0.42219,-1.24417 -0.21571,-0.57808 -0.41891,-1.16981 -0.75366,-1.69226 0,0 3.18862,-1.89229 3.18862,-1.89229 z"
       inkscape:connector-curvature="0" />
    <path
       style="fill:#000000;fill-opacity:1;stroke:none;stroke-opacity:1"
       id="path5091"
       d="m 134.67281,1021.5634 c 0.27658,0.6075 0.47469,1.2455 0.71241,1.8681 0.18367,0.4885 0.34665,0.9841 0.54756,1.4661 0,0 -3.19902,1.7932 -3.19902,1.7932 l 0,0 c -0.20456,-0.486 -0.36123,-0.9885 -0.53587,-1.4856 -0.23334,-0.6075 -0.41217,-1.2448 -0.75108,-1.805 0,0 3.226,-1.8368 3.226,-1.8368 z"
       inkscape:connector-curvature="0" />
    <path
       style="fill:#000000;fill-opacity:1;stroke:none;stroke-opacity:1"
       id="path5093"
       d="m 57.151851,1024.9201 c -0.04403,0.5663 -0.02421,1.1271 0.103621,1.6808 0,0 -3.224709,1.7429 -3.224709,1.7429 l 0,0 c -0.150135,-0.5723 -0.182335,-1.1505 -0.182614,-1.7404 0,0 3.303702,-1.6833 3.303702,-1.6833 z"
       inkscape:connector-curvature="0" />
    <path
       style="fill:#000000;fill-opacity:1;stroke:none;stroke-opacity:1"
       id="path5097"
       d="m 28.434022,997.53568 c 0.38739,0.58855 0.837153,1.13164 1.209476,1.72987 0.05905,0.0979 0.118104,0.19585 0.177156,0.29378 0,0 -3.16188,1.83097 -3.16188,1.83097 l 0,0 c -0.05724,-0.098 -0.114469,-0.1951 -0.171704,-0.2926 -0.354874,-0.5972 -0.792939,-1.14072 -1.241666,-1.66973 0,0 3.188618,-1.89229 3.188618,-1.89229 z"
       inkscape:connector-curvature="0" />
    <rect
       style="fill:#000000;fill-opacity:1;stroke:none;stroke-opacity:1"
       id="rect5111"
       width="5"
       height="56.221825"
       x="90.792892"
       y="899.7868"
       ry="0.57369208" />
    <rect
       ry="0.31835023"
       y="488.54938"
       x="-824.41003"
       height="31.19832"
       width="7.4681826"
       id="rect5113-5"
       style="fill:#000000;fill-opacity:1;stroke:none;stroke-opacity:1"
       transform="matrix(0.45884574,-0.88851595,0.89569571,0.4446675,0,0)" />
  </g>
</svg>
